<ttFont>
    <TTGlyph name=".notdef" xMin="173" yMin="-68" xMax="1703" yMax="1870">
      <contour>
        <pt x="173" y="-68" on="1"/>
        <pt x="173" y="1870" on="1"/>
        <pt x="1703" y="1870" on="1"/>
        <pt x="1703" y="-68" on="1"/>
      </contour>
      <contour>
        <pt x="525" y="1283" on="1"/>
        <pt x="491" y="1249" on="0"/>
        <pt x="491" y="1203" on="0"/>
        <pt x="655" y="1005" on="0"/>
        <pt x="763" y="894" on="1"/>
        <pt x="548" y="715" on="0"/>
        <pt x="502" y="674" on="0"/>
        <pt x="431" y="616" on="0"/>
        <pt x="414" y="600" on="1"/>
        <pt x="363" y="554" on="0"/>
        <pt x="363" y="489" on="0"/>
        <pt x="492" y="360" on="0"/>
        <pt x="535" y="360" on="0"/>
        <pt x="551" y="374" on="1"/>
        <pt x="642" y="458" on="0"/>
        <pt x="927" y="697" on="1"/>
        <pt x="992" y="612" on="0"/>
        <pt x="1087" y="480" on="0"/>
        <pt x="1111" y="448" on="0"/>
        <pt x="1134" y="419" on="1"/>
        <pt x="1182" y="361" on="0"/>
        <pt x="1235" y="361" on="0"/>
        <pt x="1385" y="488" on="0"/>
        <pt x="1385" y="527" on="0"/>
        <pt x="1317" y="604" on="0"/>
        <pt x="1183" y="741" on="0"/>
        <pt x="1141" y="789" on="1"/>
        <pt x="1097" y="839" on="1"/>
        <pt x="1274" y="987" on="0"/>
        <pt x="1356" y="1060" on="0"/>
        <pt x="1407" y="1103" on="0"/>
        <pt x="1441" y="1132" on="0"/>
        <pt x="1459" y="1150" on="1"/>
        <pt x="1496" y="1187" on="0"/>
        <pt x="1496" y="1229" on="0"/>
        <pt x="1468" y="1272" on="0"/>
        <pt x="1437" y="1302" on="0"/>
        <pt x="1388" y="1347" on="0"/>
        <pt x="1358" y="1376" on="0"/>
        <pt x="1319" y="1376" on="0"/>
        <pt x="1305" y="1362" on="1"/>
        <pt x="1175" y="1235" on="0"/>
        <pt x="936" y="1037" on="1"/>
        <pt x="711" y="1324" on="0"/>
        <pt x="662" y="1379" on="0"/>
        <pt x="624" y="1379" on="0"/>
      </contour>
    </TTGlyph>
    <TTGlyph name="A" xMin="-34" yMin="-40" xMax="1792" yMax="1576">
      <contour>
        <pt x="1183" y="-40" on="1"/>
        <pt x="850" y="-40" on="0"/>
        <pt x="850" y="181" on="1"/>
        <pt x="850" y="307" on="0"/>
        <pt x="1168" y="1062" on="0"/>
        <pt x="1168" y="1208" on="1"/>
        <pt x="1168" y="1290" on="0"/>
        <pt x="1047" y="1359" on="0"/>
        <pt x="818" y="1359" on="0"/>
        <pt x="582" y="1319" on="0"/>
        <pt x="515" y="1319" on="0"/>
        <pt x="515" y="1349" on="1"/>
        <pt x="515" y="1388" on="0"/>
        <pt x="656" y="1452" on="1"/>
        <pt x="927" y="1576" on="0"/>
        <pt x="1253" y="1576" on="1"/>
        <pt x="1511" y="1576" on="0"/>
        <pt x="1768" y="1390" on="0"/>
        <pt x="1768" y="1181" on="1"/>
        <pt x="1768" y="1057" on="0"/>
        <pt x="1680" y="684" on="0"/>
        <pt x="1593" y="356" on="0"/>
        <pt x="1593" y="234" on="0"/>
        <pt x="1616" y="210" on="1"/>
        <pt x="1645" y="180" on="0"/>
        <pt x="1728" y="180" on="1"/>
        <pt x="1779" y="180" on="0"/>
        <pt x="1792" y="158" on="0"/>
        <pt x="1792" y="146" on="1"/>
        <pt x="1792" y="100" on="0"/>
        <pt x="1750" y="71" on="1"/>
        <pt x="1591" y="-40" on="0"/>
      </contour>
      <contour>
        <pt x="601" y="684" on="1"/>
        <pt x="857" y="690" on="1"/>
        <pt x="927" y="690" on="0"/>
        <pt x="927" y="649" on="1"/>
        <pt x="927" y="620" on="0"/>
        <pt x="894" y="603" on="1"/>
        <pt x="778" y="544" on="0"/>
        <pt x="494" y="528" on="1"/>
        <pt x="413" y="368" on="0"/>
        <pt x="413" y="247" on="1"/>
        <pt x="413" y="193" on="0"/>
        <pt x="441" y="102" on="0"/>
        <pt x="441" y="82" on="1"/>
        <pt x="441" y="29" on="0"/>
        <pt x="307" y="-8" on="0"/>
        <pt x="48" y="-8" on="0"/>
        <pt x="-34" y="39" on="0"/>
        <pt x="-34" y="99" on="1"/>
        <pt x="-34" y="211" on="0"/>
        <pt x="97" y="481" on="0"/>
        <pt x="301" y="728" on="0"/>
        <pt x="549" y="966" on="0"/>
        <pt x="666" y="1052" on="1"/>
        <pt x="926" y="1245" on="0"/>
        <pt x="1020" y="1245" on="1"/>
        <pt x="1063" y="1245" on="0"/>
        <pt x="1063" y="1193" on="0"/>
        <pt x="1021" y="1161" on="1"/>
        <pt x="932" y="1096" on="0"/>
        <pt x="684" y="830" on="0"/>
        <pt x="587" y="684" on="1"/>
      </contour>
    </TTGlyph>
    <TTGlyph name="AE" xMin="-34" yMin="-40" xMax="2680" yMax="1576">
      <contour>
        <pt x="2121" y="919" on="1"/>
        <pt x="2159" y="919" on="0"/>
        <pt x="2159" y="802" on="0"/>
        <pt x="2083" y="718" on="0"/>
        <pt x="2000" y="712" on="0"/>
        <pt x="1910" y="701" on="0"/>
        <pt x="1794" y="677" on="0"/>
        <pt x="1691" y="645" on="0"/>
        <pt x="1589" y="593" on="0"/>
        <pt x="1552" y="562" on="1"/>
        <pt x="1471" y="493" on="0"/>
        <pt x="1471" y="391" on="1"/>
        <pt x="1471" y="185" on="0"/>
        <pt x="1905" y="185" on="1"/>
        <pt x="2022" y="185" on="0"/>
        <pt x="2325" y="238" on="0"/>
        <pt x="2433" y="276" on="0"/>
        <pt x="2450" y="276" on="1"/>
        <pt x="2488" y="276" on="0"/>
        <pt x="2488" y="238" on="1"/>
        <pt x="2488" y="166" on="0"/>
        <pt x="2185" y="37" on="0"/>
        <pt x="1679" y="-40" on="0"/>
        <pt x="1189" y="-40" on="0"/>
        <pt x="947" y="9" on="0"/>
        <pt x="850" y="103" on="0"/>
        <pt x="850" y="249" on="0"/>
        <pt x="959" y="542" on="0"/>
        <pt x="1024" y="684" on="1"/>
        <pt x="1198" y="1066" on="0"/>
        <pt x="1198" y="1208" on="1"/>
        <pt x="1198" y="1288" on="0"/>
        <pt x="1051" y="1359" on="0"/>
        <pt x="818" y="1359" on="0"/>
        <pt x="582" y="1319" on="0"/>
        <pt x="515" y="1319" on="0"/>
        <pt x="515" y="1349" on="1"/>
        <pt x="515" y="1388" on="0"/>
        <pt x="656" y="1452" on="1"/>
        <pt x="927" y="1576" on="0"/>
        <pt x="1253" y="1576" on="1"/>
        <pt x="1468" y="1576" on="0"/>
        <pt x="1560" y="1507" on="1"/>
        <pt x="1750" y="1576" on="0"/>
        <pt x="1998" y="1576" on="1"/>
        <pt x="2467" y="1576" on="0"/>
        <pt x="2642" y="1471" on="1"/>
        <pt x="2680" y="1448" on="0"/>
        <pt x="2680" y="1359" on="0"/>
        <pt x="2549" y="1155" on="0"/>
        <pt x="2468" y="1077" on="0"/>
        <pt x="2399" y="1077" on="0"/>
        <pt x="2343" y="1127" on="0"/>
        <pt x="2327" y="1164" on="1"/>
        <pt x="2218" y="1409" on="0"/>
        <pt x="1991" y="1409" on="1"/>
        <pt x="1819" y="1409" on="0"/>
        <pt x="1725" y="1284" on="1"/>
        <pt x="1677" y="1221" on="0"/>
        <pt x="1677" y="1138" on="1"/>
        <pt x="1677" y="913" on="0"/>
        <pt x="2037" y="913" on="1"/>
      </contour>
      <contour>
        <pt x="601" y="684" on="1"/>
        <pt x="857" y="690" on="1"/>
        <pt x="927" y="690" on="0"/>
        <pt x="927" y="649" on="1"/>
        <pt x="927" y="620" on="0"/>
        <pt x="894" y="603" on="1"/>
        <pt x="778" y="544" on="0"/>
        <pt x="494" y="528" on="1"/>
        <pt x="413" y="368" on="0"/>
        <pt x="413" y="247" on="1"/>
        <pt x="413" y="193" on="0"/>
        <pt x="441" y="102" on="0"/>
        <pt x="441" y="82" on="1"/>
        <pt x="441" y="29" on="0"/>
        <pt x="307" y="-8" on="0"/>
        <pt x="48" y="-8" on="0"/>
        <pt x="-34" y="39" on="0"/>
        <pt x="-34" y="99" on="1"/>
        <pt x="-34" y="211" on="0"/>
        <pt x="97" y="481" on="0"/>
        <pt x="301" y="728" on="0"/>
        <pt x="549" y="966" on="0"/>
        <pt x="666" y="1052" on="1"/>
        <pt x="926" y="1245" on="0"/>
        <pt x="1020" y="1245" on="1"/>
        <pt x="1063" y="1245" on="0"/>
        <pt x="1063" y="1193" on="0"/>
        <pt x="1021" y="1161" on="1"/>
        <pt x="932" y="1096" on="0"/>
        <pt x="684" y="830" on="0"/>
        <pt x="587" y="684" on="1"/>
      </contour>
    </TTGlyph>
    <TTGlyph name="AEacute" xMin="16" yMin="-40" xMax="2730" yMax="2050">
      <contour>
        <pt x="2171" y="919" on="1"/>
        <pt x="2209" y="919" on="0"/>
        <pt x="2209" y="802" on="0"/>
        <pt x="2133" y="718" on="0"/>
        <pt x="2050" y="712" on="0"/>
        <pt x="1960" y="701" on="0"/>
        <pt x="1844" y="677" on="0"/>
        <pt x="1741" y="645" on="0"/>
        <pt x="1639" y="593" on="0"/>
        <pt x="1602" y="562" on="1"/>
        <pt x="1521" y="493" on="0"/>
        <pt x="1521" y="391" on="1"/>
        <pt x="1521" y="185" on="0"/>
        <pt x="1955" y="185" on="1"/>
        <pt x="2072" y="185" on="0"/>
        <pt x="2375" y="238" on="0"/>
        <pt x="2483" y="276" on="0"/>
        <pt x="2500" y="276" on="1"/>
        <pt x="2538" y="276" on="0"/>
        <pt x="2538" y="238" on="1"/>
        <pt x="2538" y="166" on="0"/>
        <pt x="2235" y="37" on="0"/>
        <pt x="1729" y="-40" on="0"/>
        <pt x="1239" y="-40" on="0"/>
        <pt x="997" y="9" on="0"/>
        <pt x="900" y="103" on="0"/>
        <pt x="900" y="249" on="0"/>
        <pt x="1009" y="542" on="0"/>
        <pt x="1074" y="684" on="1"/>
        <pt x="1248" y="1066" on="0"/>
        <pt x="1248" y="1208" on="1"/>
        <pt x="1248" y="1288" on="0"/>
        <pt x="1101" y="1359" on="0"/>
        <pt x="868" y="1359" on="0"/>
        <pt x="632" y="1319" on="0"/>
        <pt x="565" y="1319" on="0"/>
        <pt x="565" y="1349" on="1"/>
        <pt x="565" y="1388" on="0"/>
        <pt x="706" y="1452" on="1"/>
        <pt x="977" y="1576" on="0"/>
        <pt x="1303" y="1576" on="1"/>
        <pt x="1518" y="1576" on="0"/>
        <pt x="1610" y="1507" on="1"/>
        <pt x="1800" y="1576" on="0"/>
        <pt x="2048" y="1576" on="1"/>
        <pt x="2517" y="1576" on="0"/>
        <pt x="2692" y="1471" on="1"/>
        <pt x="2730" y="1448" on="0"/>
        <pt x="2730" y="1359" on="0"/>
        <pt x="2599" y="1155" on="0"/>
        <pt x="2518" y="1077" on="0"/>
        <pt x="2449" y="1077" on="0"/>
        <pt x="2393" y="1127" on="0"/>
        <pt x="2377" y="1164" on="1"/>
        <pt x="2268" y="1409" on="0"/>
        <pt x="2041" y="1409" on="1"/>
        <pt x="1869" y="1409" on="0"/>
        <pt x="1775" y="1284" on="1"/>
        <pt x="1727" y="1221" on="0"/>
        <pt x="1727" y="1138" on="1"/>
        <pt x="1727" y="913" on="0"/>
        <pt x="2087" y="913" on="1"/>
      </contour>
      <contour>
        <pt x="651" y="684" on="1"/>
        <pt x="907" y="690" on="1"/>
        <pt x="977" y="690" on="0"/>
        <pt x="977" y="649" on="1"/>
        <pt x="977" y="620" on="0"/>
        <pt x="944" y="603" on="1"/>
        <pt x="828" y="544" on="0"/>
        <pt x="544" y="528" on="1"/>
        <pt x="463" y="368" on="0"/>
        <pt x="463" y="247" on="1"/>
        <pt x="463" y="193" on="0"/>
        <pt x="491" y="102" on="0"/>
        <pt x="491" y="82" on="1"/>
        <pt x="491" y="29" on="0"/>
        <pt x="357" y="-8" on="0"/>
        <pt x="98" y="-8" on="0"/>
        <pt x="16" y="39" on="0"/>
        <pt x="16" y="99" on="1"/>
        <pt x="16" y="211" on="0"/>
        <pt x="147" y="481" on="0"/>
        <pt x="351" y="728" on="0"/>
        <pt x="599" y="966" on="0"/>
        <pt x="716" y="1052" on="1"/>
        <pt x="976" y="1245" on="0"/>
        <pt x="1070" y="1245" on="1"/>
        <pt x="1113" y="1245" on="0"/>
        <pt x="1113" y="1193" on="0"/>
        <pt x="1071" y="1161" on="1"/>
        <pt x="982" y="1096" on="0"/>
        <pt x="734" y="830" on="0"/>
        <pt x="637" y="684" on="1"/>
      </contour>
      <contour>
        <pt x="1894" y="2013" on="1"/>
        <pt x="1992" y="2050" on="0"/>
        <pt x="2153" y="2050" on="0"/>
        <pt x="2284" y="1951" on="0"/>
        <pt x="2284" y="1886" on="1"/>
        <pt x="2284" y="1847" on="0"/>
        <pt x="2230" y="1780" on="0"/>
        <pt x="2171" y="1772" on="1"/>
        <pt x="2162" y="1771" on="0"/>
        <pt x="2046" y="1755" on="0"/>
        <pt x="1985" y="1747" on="0"/>
        <pt x="1862" y="1729" on="0"/>
        <pt x="1773" y="1713" on="0"/>
        <pt x="1662" y="1691" on="0"/>
        <pt x="1563" y="1667" on="0"/>
        <pt x="1479" y="1641" on="0"/>
        <pt x="1413" y="1641" on="0"/>
        <pt x="1413" y="1680" on="1"/>
        <pt x="1413" y="1737" on="0"/>
        <pt x="1703" y="1941" on="0"/>
      </contour>
    </TTGlyph>
    <TTGlyph name="Aacute" xMin="-34" yMin="-40" xMax="2001" yMax="2050">
      <contour>
        <pt x="1183" y="-40" on="1"/>
        <pt x="850" y="-40" on="0"/>
        <pt x="850" y="181" on="1"/>
        <pt x="850" y="307" on="0"/>
        <pt x="1168" y="1062" on="0"/>
        <pt x="1168" y="1208" on="1"/>
        <pt x="1168" y="1290" on="0"/>
        <pt x="1047" y="1359" on="0"/>
        <pt x="818" y="1359" on="0"/>
        <pt x="582" y="1319" on="0"/>
        <pt x="515" y="1319" on="0"/>
        <pt x="515" y="1349" on="1"/>
        <pt x="515" y="1388" on="0"/>
        <pt x="656" y="1452" on="1"/>
        <pt x="927" y="1576" on="0"/>
        <pt x="1253" y="1576" on="1"/>
        <pt x="1511" y="1576" on="0"/>
        <pt x="1768" y="1390" on="0"/>
        <pt x="1768" y="1181" on="1"/>
        <pt x="1768" y="1057" on="0"/>
        <pt x="1680" y="684" on="0"/>
        <pt x="1593" y="356" on="0"/>
        <pt x="1593" y="234" on="0"/>
        <pt x="1616" y="210" on="1"/>
        <pt x="1645" y="180" on="0"/>
        <pt x="1728" y="180" on="1"/>
        <pt x="1779" y="180" on="0"/>
        <pt x="1792" y="158" on="0"/>
        <pt x="1792" y="146" on="1"/>
        <pt x="1792" y="100" on="0"/>
        <pt x="1750" y="71" on="1"/>
        <pt x="1591" y="-40" on="0"/>
      </contour>
      <contour>
        <pt x="601" y="684" on="1"/>
        <pt x="857" y="690" on="1"/>
        <pt x="927" y="690" on="0"/>
        <pt x="927" y="649" on="1"/>
        <pt x="927" y="620" on="0"/>
        <pt x="894" y="603" on="1"/>
        <pt x="778" y="544" on="0"/>
        <pt x="494" y="528" on="1"/>
        <pt x="413" y="368" on="0"/>
        <pt x="413" y="247" on="1"/>
        <pt x="413" y="193" on="0"/>
        <pt x="441" y="102" on="0"/>
        <pt x="441" y="82" on="1"/>
        <pt x="441" y="29" on="0"/>
        <pt x="307" y="-8" on="0"/>
        <pt x="48" y="-8" on="0"/>
        <pt x="-34" y="39" on="0"/>
        <pt x="-34" y="99" on="1"/>
        <pt x="-34" y="211" on="0"/>
        <pt x="97" y="481" on="0"/>
        <pt x="301" y="728" on="0"/>
        <pt x="549" y="966" on="0"/>
        <pt x="666" y="1052" on="1"/>
        <pt x="926" y="1245" on="0"/>
        <pt x="1020" y="1245" on="1"/>
        <pt x="1063" y="1245" on="0"/>
        <pt x="1063" y="1193" on="0"/>
        <pt x="1021" y="1161" on="1"/>
        <pt x="932" y="1096" on="0"/>
        <pt x="684" y="830" on="0"/>
        <pt x="587" y="684" on="1"/>
      </contour>
      <contour>
        <pt x="1611" y="2013" on="1"/>
        <pt x="1709" y="2050" on="0"/>
        <pt x="1870" y="2050" on="0"/>
        <pt x="2001" y="1951" on="0"/>
        <pt x="2001" y="1886" on="1"/>
        <pt x="2001" y="1847" on="0"/>
        <pt x="1947" y="1780" on="0"/>
        <pt x="1888" y="1772" on="1"/>
        <pt x="1879" y="1771" on="0"/>
        <pt x="1763" y="1755" on="0"/>
        <pt x="1702" y="1747" on="0"/>
        <pt x="1579" y="1729" on="0"/>
        <pt x="1490" y="1713" on="0"/>
        <pt x="1379" y="1691" on="0"/>
        <pt x="1280" y="1667" on="0"/>
        <pt x="1196" y="1641" on="0"/>
        <pt x="1130" y="1641" on="0"/>
        <pt x="1130" y="1680" on="1"/>
        <pt x="1130" y="1737" on="0"/>
        <pt x="1420" y="1941" on="0"/>
      </contour>
    </TTGlyph>
    <TTGlyph name="Abreve" xMin="-34" yMin="-40" xMax="1997" yMax="2046">
      <contour>
        <pt x="1183" y="-40" on="1"/>
        <pt x="850" y="-40" on="0"/>
        <pt x="850" y="181" on="1"/>
        <pt x="850" y="307" on="0"/>
        <pt x="1168" y="1062" on="0"/>
        <pt x="1168" y="1208" on="1"/>
        <pt x="1168" y="1290" on="0"/>
        <pt x="1047" y="1359" on="0"/>
        <pt x="818" y="1359" on="0"/>
        <pt x="582" y="1319" on="0"/>
        <pt x="515" y="1319" on="0"/>
        <pt x="515" y="1349" on="1"/>
        <pt x="515" y="1388" on="0"/>
        <pt x="656" y="1452" on="1"/>
        <pt x="927" y="1576" on="0"/>
        <pt x="1253" y="1576" on="1"/>
        <pt x="1511" y="1576" on="0"/>
        <pt x="1768" y="1390" on="0"/>
        <pt x="1768" y="1181" on="1"/>
        <pt x="1768" y="1057" on="0"/>
        <pt x="1680" y="684" on="0"/>
        <pt x="1593" y="356" on="0"/>
        <pt x="1593" y="234" on="0"/>
        <pt x="1616" y="210" on="1"/>
        <pt x="1645" y="180" on="0"/>
        <pt x="1728" y="180" on="1"/>
        <pt x="1779" y="180" on="0"/>
        <pt x="1792" y="158" on="0"/>
        <pt x="1792" y="146" on="1"/>
        <pt x="1792" y="100" on="0"/>
        <pt x="1750" y="71" on="1"/>
        <pt x="1591" y="-40" on="0"/>
      </contour>
      <contour>
        <pt x="601" y="684" on="1"/>
        <pt x="857" y="690" on="1"/>
        <pt x="927" y="690" on="0"/>
        <pt x="927" y="649" on="1"/>
        <pt x="927" y="620" on="0"/>
        <pt x="894" y="603" on="1"/>
        <pt x="778" y="544" on="0"/>
        <pt x="494" y="528" on="1"/>
        <pt x="413" y="368" on="0"/>
        <pt x="413" y="247" on="1"/>
        <pt x="413" y="193" on="0"/>
        <pt x="441" y="102" on="0"/>
        <pt x="441" y="82" on="1"/>
        <pt x="441" y="29" on="0"/>
        <pt x="307" y="-8" on="0"/>
        <pt x="48" y="-8" on="0"/>
        <pt x="-34" y="39" on="0"/>
        <pt x="-34" y="99" on="1"/>
        <pt x="-34" y="211" on="0"/>
        <pt x="97" y="481" on="0"/>
        <pt x="301" y="728" on="0"/>
        <pt x="549" y="966" on="0"/>
        <pt x="666" y="1052" on="1"/>
        <pt x="926" y="1245" on="0"/>
        <pt x="1020" y="1245" on="1"/>
        <pt x="1063" y="1245" on="0"/>
        <pt x="1063" y="1193" on="0"/>
        <pt x="1021" y="1161" on="1"/>
        <pt x="932" y="1096" on="0"/>
        <pt x="684" y="830" on="0"/>
        <pt x="587" y="684" on="1"/>
      </contour>
      <contour>
        <pt x="988" y="1978" on="1"/>
        <pt x="988" y="2045" on="0"/>
        <pt x="1057" y="2045" on="1"/>
        <pt x="1096" y="2045" on="0"/>
        <pt x="1180" y="1999" on="1"/>
        <pt x="1342" y="1911" on="0"/>
        <pt x="1493" y="1911" on="1"/>
        <pt x="1691" y="1911" on="0"/>
        <pt x="1836" y="1998" on="1"/>
        <pt x="1917" y="2046" on="0"/>
        <pt x="1947" y="2046" on="1"/>
        <pt x="1997" y="2046" on="0"/>
        <pt x="1997" y="1969" on="0"/>
        <pt x="1947" y="1896" on="0"/>
        <pt x="1899" y="1848" on="1"/>
        <pt x="1696" y="1645" on="0"/>
        <pt x="1448" y="1645" on="1"/>
        <pt x="1169" y="1645" on="0"/>
        <pt x="1026" y="1867" on="1"/>
        <pt x="988" y="1925" on="0"/>
      </contour>
    </TTGlyph>
    <TTGlyph name="Acircumflex" xMin="-34" yMin="-40" xMax="1870" yMax="2049">
      <contour>
        <pt x="1183" y="-40" on="1"/>
        <pt x="850" y="-40" on="0"/>
        <pt x="850" y="181" on="1"/>
        <pt x="850" y="307" on="0"/>
        <pt x="1168" y="1062" on="0"/>
        <pt x="1168" y="1208" on="1"/>
        <pt x="1168" y="1290" on="0"/>
        <pt x="1047" y="1359" on="0"/>
        <pt x="818" y="1359" on="0"/>
        <pt x="582" y="1319" on="0"/>
        <pt x="515" y="1319" on="0"/>
        <pt x="515" y="1349" on="1"/>
        <pt x="515" y="1388" on="0"/>
        <pt x="656" y="1452" on="1"/>
        <pt x="927" y="1576" on="0"/>
        <pt x="1253" y="1576" on="1"/>
        <pt x="1511" y="1576" on="0"/>
        <pt x="1768" y="1390" on="0"/>
        <pt x="1768" y="1181" on="1"/>
        <pt x="1768" y="1057" on="0"/>
        <pt x="1680" y="684" on="0"/>
        <pt x="1593" y="356" on="0"/>
        <pt x="1593" y="234" on="0"/>
        <pt x="1616" y="210" on="1"/>
        <pt x="1645" y="180" on="0"/>
        <pt x="1728" y="180" on="1"/>
        <pt x="1779" y="180" on="0"/>
        <pt x="1792" y="158" on="0"/>
        <pt x="1792" y="146" on="1"/>
        <pt x="1792" y="100" on="0"/>
        <pt x="1750" y="71" on="1"/>
        <pt x="1591" y="-40" on="0"/>
      </contour>
      <contour>
        <pt x="601" y="684" on="1"/>
        <pt x="857" y="690" on="1"/>
        <pt x="927" y="690" on="0"/>
        <pt x="927" y="649" on="1"/>
        <pt x="927" y="620" on="0"/>
        <pt x="894" y="603" on="1"/>
        <pt x="778" y="544" on="0"/>
        <pt x="494" y="528" on="1"/>
        <pt x="413" y="368" on="0"/>
        <pt x="413" y="247" on="1"/>
        <pt x="413" y="193" on="0"/>
        <pt x="441" y="102" on="0"/>
        <pt x="441" y="82" on="1"/>
        <pt x="441" y="29" on="0"/>
        <pt x="307" y="-8" on="0"/>
        <pt x="48" y="-8" on="0"/>
        <pt x="-34" y="39" on="0"/>
        <pt x="-34" y="99" on="1"/>
        <pt x="-34" y="211" on="0"/>
        <pt x="97" y="481" on="0"/>
        <pt x="301" y="728" on="0"/>
        <pt x="549" y="966" on="0"/>
        <pt x="666" y="1052" on="1"/>
        <pt x="926" y="1245" on="0"/>
        <pt x="1020" y="1245" on="1"/>
        <pt x="1063" y="1245" on="0"/>
        <pt x="1063" y="1193" on="0"/>
        <pt x="1021" y="1161" on="1"/>
        <pt x="932" y="1096" on="0"/>
        <pt x="684" y="830" on="0"/>
        <pt x="587" y="684" on="1"/>
      </contour>
      <contour>
        <pt x="1419" y="1782" on="1"/>
        <pt x="1015" y="1627" on="0"/>
        <pt x="949" y="1627" on="1"/>
        <pt x="929" y="1627" on="0"/>
        <pt x="901" y="1651" on="0"/>
        <pt x="901" y="1672" on="1"/>
        <pt x="901" y="1714" on="0"/>
        <pt x="1117" y="1881" on="0"/>
        <pt x="1317" y="2007" on="1"/>
        <pt x="1357" y="2032" on="0"/>
        <pt x="1416" y="2049" on="0"/>
        <pt x="1516" y="2049" on="0"/>
        <pt x="1576" y="2019" on="0"/>
        <pt x="1604" y="1991" on="1"/>
        <pt x="1735" y="1861" on="0"/>
        <pt x="1870" y="1700" on="0"/>
        <pt x="1870" y="1620" on="0"/>
        <pt x="1775" y="1620" on="0"/>
        <pt x="1693" y="1653" on="1"/>
        <pt x="1552" y="1710" on="0"/>
      </contour>
    </TTGlyph>
    <TTGlyph name="Adieresis" xMin="-34" yMin="-40" xMax="2071" yMax="2020">
      <contour>
        <pt x="1183" y="-40" on="1"/>
        <pt x="850" y="-40" on="0"/>
        <pt x="850" y="181" on="1"/>
        <pt x="850" y="307" on="0"/>
        <pt x="1168" y="1062" on="0"/>
        <pt x="1168" y="1208" on="1"/>
        <pt x="1168" y="1290" on="0"/>
        <pt x="1047" y="1359" on="0"/>
        <pt x="818" y="1359" on="0"/>
        <pt x="582" y="1319" on="0"/>
        <pt x="515" y="1319" on="0"/>
        <pt x="515" y="1349" on="1"/>
        <pt x="515" y="1388" on="0"/>
        <pt x="656" y="1452" on="1"/>
        <pt x="927" y="1576" on="0"/>
        <pt x="1253" y="1576" on="1"/>
        <pt x="1511" y="1576" on="0"/>
        <pt x="1768" y="1390" on="0"/>
        <pt x="1768" y="1181" on="1"/>
        <pt x="1768" y="1057" on="0"/>
        <pt x="1680" y="684" on="0"/>
        <pt x="1593" y="356" on="0"/>
        <pt x="1593" y="234" on="0"/>
        <pt x="1616" y="210" on="1"/>
        <pt x="1645" y="180" on="0"/>
        <pt x="1728" y="180" on="1"/>
        <pt x="1779" y="180" on="0"/>
        <pt x="1792" y="158" on="0"/>
        <pt x="1792" y="146" on="1"/>
        <pt x="1792" y="100" on="0"/>
        <pt x="1750" y="71" on="1"/>
        <pt x="1591" y="-40" on="0"/>
      </contour>
      <contour>
        <pt x="601" y="684" on="1"/>
        <pt x="857" y="690" on="1"/>
        <pt x="927" y="690" on="0"/>
        <pt x="927" y="649" on="1"/>
        <pt x="927" y="620" on="0"/>
        <pt x="894" y="603" on="1"/>
        <pt x="778" y="544" on="0"/>
        <pt x="494" y="528" on="1"/>
        <pt x="413" y="368" on="0"/>
        <pt x="413" y="247" on="1"/>
        <pt x="413" y="193" on="0"/>
        <pt x="441" y="102" on="0"/>
        <pt x="441" y="82" on="1"/>
        <pt x="441" y="29" on="0"/>
        <pt x="307" y="-8" on="0"/>
        <pt x="48" y="-8" on="0"/>
        <pt x="-34" y="39" on="0"/>
        <pt x="-34" y="99" on="1"/>
        <pt x="-34" y="211" on="0"/>
        <pt x="97" y="481" on="0"/>
        <pt x="301" y="728" on="0"/>
        <pt x="549" y="966" on="0"/>
        <pt x="666" y="1052" on="1"/>
        <pt x="926" y="1245" on="0"/>
        <pt x="1020" y="1245" on="1"/>
        <pt x="1063" y="1245" on="0"/>
        <pt x="1063" y="1193" on="0"/>
        <pt x="1021" y="1161" on="1"/>
        <pt x="932" y="1096" on="0"/>
        <pt x="684" y="830" on="0"/>
        <pt x="587" y="684" on="1"/>
      </contour>
      <contour>
        <pt x="1279" y="1749" on="1"/>
        <pt x="1228" y="1697" on="0"/>
        <pt x="1069" y="1641" on="0"/>
        <pt x="883" y="1641" on="0"/>
        <pt x="748" y="1726" on="0"/>
        <pt x="748" y="1857" on="0"/>
        <pt x="851" y="1962" on="0"/>
        <pt x="1010" y="2020" on="0"/>
        <pt x="1197" y="2020" on="0"/>
        <pt x="1331" y="1932" on="0"/>
        <pt x="1331" y="1801" on="0"/>
      </contour>
      <contour>
        <pt x="2071" y="1862" on="1"/>
        <pt x="2071" y="1770" on="0"/>
        <pt x="1857" y="1641" on="0"/>
        <pt x="1623" y="1641" on="0"/>
        <pt x="1488" y="1726" on="0"/>
        <pt x="1488" y="1857" on="0"/>
        <pt x="1591" y="1962" on="0"/>
        <pt x="1750" y="2020" on="0"/>
        <pt x="1937" y="2020" on="0"/>
        <pt x="2071" y="1932" on="0"/>
      </contour>
    </TTGlyph>
    <TTGlyph name="Agrave" xMin="-34" yMin="-40" xMax="1792" yMax="2050">
      <contour>
        <pt x="1183" y="-40" on="1"/>
        <pt x="850" y="-40" on="0"/>
        <pt x="850" y="181" on="1"/>
        <pt x="850" y="307" on="0"/>
        <pt x="1168" y="1062" on="0"/>
        <pt x="1168" y="1208" on="1"/>
        <pt x="1168" y="1290" on="0"/>
        <pt x="1047" y="1359" on="0"/>
        <pt x="818" y="1359" on="0"/>
        <pt x="582" y="1319" on="0"/>
        <pt x="515" y="1319" on="0"/>
        <pt x="515" y="1349" on="1"/>
        <pt x="515" y="1388" on="0"/>
        <pt x="656" y="1452" on="1"/>
        <pt x="927" y="1576" on="0"/>
        <pt x="1253" y="1576" on="1"/>
        <pt x="1511" y="1576" on="0"/>
        <pt x="1768" y="1390" on="0"/>
        <pt x="1768" y="1181" on="1"/>
        <pt x="1768" y="1057" on="0"/>
        <pt x="1680" y="684" on="0"/>
        <pt x="1593" y="356" on="0"/>
        <pt x="1593" y="234" on="0"/>
        <pt x="1616" y="210" on="1"/>
        <pt x="1645" y="180" on="0"/>
        <pt x="1728" y="180" on="1"/>
        <pt x="1779" y="180" on="0"/>
        <pt x="1792" y="158" on="0"/>
        <pt x="1792" y="146" on="1"/>
        <pt x="1792" y="100" on="0"/>
        <pt x="1750" y="71" on="1"/>
        <pt x="1591" y="-40" on="0"/>
      </contour>
      <contour>
        <pt x="601" y="684" on="1"/>
        <pt x="857" y="690" on="1"/>
        <pt x="927" y="690" on="0"/>
        <pt x="927" y="649" on="1"/>
        <pt x="927" y="620" on="0"/>
        <pt x="894" y="603" on="1"/>
        <pt x="778" y="544" on="0"/>
        <pt x="494" y="528" on="1"/>
        <pt x="413" y="368" on="0"/>
        <pt x="413" y="247" on="1"/>
        <pt x="413" y="193" on="0"/>
        <pt x="441" y="102" on="0"/>
        <pt x="441" y="82" on="1"/>
        <pt x="441" y="29" on="0"/>
        <pt x="307" y="-8" on="0"/>
        <pt x="48" y="-8" on="0"/>
        <pt x="-34" y="39" on="0"/>
        <pt x="-34" y="99" on="1"/>
        <pt x="-34" y="211" on="0"/>
        <pt x="97" y="481" on="0"/>
        <pt x="301" y="728" on="0"/>
        <pt x="549" y="966" on="0"/>
        <pt x="666" y="1052" on="1"/>
        <pt x="926" y="1245" on="0"/>
        <pt x="1020" y="1245" on="1"/>
        <pt x="1063" y="1245" on="0"/>
        <pt x="1063" y="1193" on="0"/>
        <pt x="1021" y="1161" on="1"/>
        <pt x="932" y="1096" on="0"/>
        <pt x="684" y="830" on="0"/>
        <pt x="587" y="684" on="1"/>
      </contour>
      <contour>
        <pt x="1681" y="1674" on="1"/>
        <pt x="1681" y="1636" on="0"/>
        <pt x="1601" y="1636" on="0"/>
        <pt x="1490" y="1670" on="1"/>
        <pt x="1294" y="1729" on="0"/>
        <pt x="1032" y="1755" on="1"/>
        <pt x="975" y="1760" on="0"/>
        <pt x="899" y="1838" on="0"/>
        <pt x="899" y="1969" on="0"/>
        <pt x="1007" y="2050" on="0"/>
        <pt x="1182" y="2050" on="0"/>
        <pt x="1402" y="1954" on="0"/>
        <pt x="1568" y="1826" on="0"/>
        <pt x="1681" y="1703" on="0"/>
      </contour>
    </TTGlyph>
    <TTGlyph name="Amacron" xMin="-34" yMin="-40" xMax="1863" yMax="1949">
      <contour>
        <pt x="1183" y="-40" on="1"/>
        <pt x="850" y="-40" on="0"/>
        <pt x="850" y="181" on="1"/>
        <pt x="850" y="307" on="0"/>
        <pt x="1168" y="1062" on="0"/>
        <pt x="1168" y="1208" on="1"/>
        <pt x="1168" y="1290" on="0"/>
        <pt x="1047" y="1359" on="0"/>
        <pt x="818" y="1359" on="0"/>
        <pt x="582" y="1319" on="0"/>
        <pt x="515" y="1319" on="0"/>
        <pt x="515" y="1349" on="1"/>
        <pt x="515" y="1388" on="0"/>
        <pt x="656" y="1452" on="1"/>
        <pt x="927" y="1576" on="0"/>
        <pt x="1253" y="1576" on="1"/>
        <pt x="1511" y="1576" on="0"/>
        <pt x="1768" y="1390" on="0"/>
        <pt x="1768" y="1181" on="1"/>
        <pt x="1768" y="1057" on="0"/>
        <pt x="1680" y="684" on="0"/>
        <pt x="1593" y="356" on="0"/>
        <pt x="1593" y="234" on="0"/>
        <pt x="1616" y="210" on="1"/>
        <pt x="1645" y="180" on="0"/>
        <pt x="1728" y="180" on="1"/>
        <pt x="1779" y="180" on="0"/>
        <pt x="1792" y="158" on="0"/>
        <pt x="1792" y="146" on="1"/>
        <pt x="1792" y="100" on="0"/>
        <pt x="1750" y="71" on="1"/>
        <pt x="1591" y="-40" on="0"/>
      </contour>
      <contour>
        <pt x="601" y="684" on="1"/>
        <pt x="857" y="690" on="1"/>
        <pt x="927" y="690" on="0"/>
        <pt x="927" y="649" on="1"/>
        <pt x="927" y="620" on="0"/>
        <pt x="894" y="603" on="1"/>
        <pt x="778" y="544" on="0"/>
        <pt x="494" y="528" on="1"/>
        <pt x="413" y="368" on="0"/>
        <pt x="413" y="247" on="1"/>
        <pt x="413" y="193" on="0"/>
        <pt x="441" y="102" on="0"/>
        <pt x="441" y="82" on="1"/>
        <pt x="441" y="29" on="0"/>
        <pt x="307" y="-8" on="0"/>
        <pt x="48" y="-8" on="0"/>
        <pt x="-34" y="39" on="0"/>
        <pt x="-34" y="99" on="1"/>
        <pt x="-34" y="211" on="0"/>
        <pt x="97" y="481" on="0"/>
        <pt x="301" y="728" on="0"/>
        <pt x="549" y="966" on="0"/>
        <pt x="666" y="1052" on="1"/>
        <pt x="926" y="1245" on="0"/>
        <pt x="1020" y="1245" on="1"/>
        <pt x="1063" y="1245" on="0"/>
        <pt x="1063" y="1193" on="0"/>
        <pt x="1021" y="1161" on="1"/>
        <pt x="932" y="1096" on="0"/>
        <pt x="684" y="830" on="0"/>
        <pt x="587" y="684" on="1"/>
      </contour>
      <contour>
        <pt x="1361" y="1728" on="1"/>
        <pt x="959" y="1708" on="1"/>
        <pt x="941" y="1708" on="0"/>
        <pt x="914" y="1761" on="0"/>
        <pt x="914" y="1858" on="0"/>
        <pt x="974" y="1949" on="0"/>
        <pt x="1009" y="1949" on="1"/>
        <pt x="1425" y="1929" on="1"/>
        <pt x="1828" y="1949" on="1"/>
        <pt x="1844" y="1949" on="0"/>
        <pt x="1863" y="1896" on="0"/>
        <pt x="1863" y="1799" on="0"/>
        <pt x="1804" y="1708" on="0"/>
        <pt x="1711" y="1708" on="0"/>
        <pt x="1441" y="1728" on="0"/>
      </contour>
    </TTGlyph>
    <TTGlyph name="Aogonek" xMin="-34" yMin="-542" xMax="1792" yMax="1576">
      <component glyphName="A" x="0" y="0" flags="0x204"/>
      <component glyphName="ogonek" x="576" y="0" flags="0x4"/>
    </TTGlyph>
    <TTGlyph name="Aring" xMin="-34" yMin="-40" xMax="1810" yMax="2040">
      <contour>
        <pt x="1183" y="-40" on="1"/>
        <pt x="850" y="-40" on="0"/>
        <pt x="850" y="181" on="1"/>
        <pt x="850" y="307" on="0"/>
        <pt x="1168" y="1062" on="0"/>
        <pt x="1168" y="1208" on="1"/>
        <pt x="1168" y="1290" on="0"/>
        <pt x="1047" y="1359" on="0"/>
        <pt x="818" y="1359" on="0"/>
        <pt x="582" y="1319" on="0"/>
        <pt x="515" y="1319" on="0"/>
        <pt x="515" y="1349" on="1"/>
        <pt x="515" y="1388" on="0"/>
        <pt x="656" y="1452" on="1"/>
        <pt x="927" y="1576" on="0"/>
        <pt x="1253" y="1576" on="1"/>
        <pt x="1511" y="1576" on="0"/>
        <pt x="1768" y="1390" on="0"/>
        <pt x="1768" y="1181" on="1"/>
        <pt x="1768" y="1057" on="0"/>
        <pt x="1680" y="684" on="0"/>
        <pt x="1593" y="356" on="0"/>
        <pt x="1593" y="234" on="0"/>
        <pt x="1616" y="210" on="1"/>
        <pt x="1645" y="180" on="0"/>
        <pt x="1728" y="180" on="1"/>
        <pt x="1779" y="180" on="0"/>
        <pt x="1792" y="158" on="0"/>
        <pt x="1792" y="146" on="1"/>
        <pt x="1792" y="100" on="0"/>
        <pt x="1750" y="71" on="1"/>
        <pt x="1591" y="-40" on="0"/>
      </contour>
      <contour>
        <pt x="601" y="684" on="1"/>
        <pt x="857" y="690" on="1"/>
        <pt x="927" y="690" on="0"/>
        <pt x="927" y="649" on="1"/>
        <pt x="927" y="620" on="0"/>
        <pt x="894" y="603" on="1"/>
        <pt x="778" y="544" on="0"/>
        <pt x="494" y="528" on="1"/>
        <pt x="413" y="368" on="0"/>
        <pt x="413" y="247" on="1"/>
        <pt x="413" y="193" on="0"/>
        <pt x="441" y="102" on="0"/>
        <pt x="441" y="82" on="1"/>
        <pt x="441" y="29" on="0"/>
        <pt x="307" y="-8" on="0"/>
        <pt x="48" y="-8" on="0"/>
        <pt x="-34" y="39" on="0"/>
        <pt x="-34" y="99" on="1"/>
        <pt x="-34" y="211" on="0"/>
        <pt x="97" y="481" on="0"/>
        <pt x="301" y="728" on="0"/>
        <pt x="549" y="966" on="0"/>
        <pt x="666" y="1052" on="1"/>
        <pt x="926" y="1245" on="0"/>
        <pt x="1020" y="1245" on="1"/>
        <pt x="1063" y="1245" on="0"/>
        <pt x="1063" y="1193" on="0"/>
        <pt x="1021" y="1161" on="1"/>
        <pt x="932" y="1096" on="0"/>
        <pt x="684" y="830" on="0"/>
        <pt x="587" y="684" on="1"/>
      </contour>
      <contour>
        <pt x="1424" y="1899" on="1"/>
        <pt x="1342" y="1899" on="0"/>
        <pt x="1241" y="1854" on="0"/>
        <pt x="1200" y="1800" on="0"/>
        <pt x="1200" y="1712" on="0"/>
        <pt x="1288" y="1660" on="0"/>
        <pt x="1438" y="1660" on="0"/>
        <pt x="1560" y="1727" on="0"/>
        <pt x="1560" y="1787" on="1"/>
        <pt x="1560" y="1899" on="0"/>
      </contour>
      <contour>
        <pt x="952" y="1742" on="1"/>
        <pt x="952" y="1875" on="0"/>
        <pt x="1224" y="2040" on="0"/>
        <pt x="1424" y="2040" on="1"/>
        <pt x="1810" y="2040" on="0"/>
        <pt x="1810" y="1826" on="1"/>
        <pt x="1810" y="1700" on="0"/>
        <pt x="1534" y="1535" on="0"/>
        <pt x="1338" y="1535" on="1"/>
        <pt x="952" y="1535" on="0"/>
      </contour>
    </TTGlyph>
    <TTGlyph name="Atilde" xMin="-34" yMin="-40" xMax="1980" yMax="2024">
      <contour>
        <pt x="1183" y="-40" on="1"/>
        <pt x="850" y="-40" on="0"/>
        <pt x="850" y="181" on="1"/>
        <pt x="850" y="307" on="0"/>
        <pt x="1168" y="1062" on="0"/>
        <pt x="1168" y="1208" on="1"/>
        <pt x="1168" y="1290" on="0"/>
        <pt x="1047" y="1359" on="0"/>
        <pt x="818" y="1359" on="0"/>
        <pt x="582" y="1319" on="0"/>
        <pt x="515" y="1319" on="0"/>
        <pt x="515" y="1349" on="1"/>
        <pt x="515" y="1388" on="0"/>
        <pt x="656" y="1452" on="1"/>
        <pt x="927" y="1576" on="0"/>
        <pt x="1253" y="1576" on="1"/>
        <pt x="1511" y="1576" on="0"/>
        <pt x="1768" y="1390" on="0"/>
        <pt x="1768" y="1181" on="1"/>
        <pt x="1768" y="1057" on="0"/>
        <pt x="1680" y="684" on="0"/>
        <pt x="1593" y="356" on="0"/>
        <pt x="1593" y="234" on="0"/>
        <pt x="1616" y="210" on="1"/>
        <pt x="1645" y="180" on="0"/>
        <pt x="1728" y="180" on="1"/>
        <pt x="1779" y="180" on="0"/>
        <pt x="1792" y="158" on="0"/>
        <pt x="1792" y="146" on="1"/>
        <pt x="1792" y="100" on="0"/>
        <pt x="1750" y="71" on="1"/>
        <pt x="1591" y="-40" on="0"/>
      </contour>
      <contour>
        <pt x="601" y="684" on="1"/>
        <pt x="857" y="690" on="1"/>
        <pt x="927" y="690" on="0"/>
        <pt x="927" y="649" on="1"/>
        <pt x="927" y="620" on="0"/>
        <pt x="894" y="603" on="1"/>
        <pt x="778" y="544" on="0"/>
        <pt x="494" y="528" on="1"/>
        <pt x="413" y="368" on="0"/>
        <pt x="413" y="247" on="1"/>
        <pt x="413" y="193" on="0"/>
        <pt x="441" y="102" on="0"/>
        <pt x="441" y="82" on="1"/>
        <pt x="441" y="29" on="0"/>
        <pt x="307" y="-8" on="0"/>
        <pt x="48" y="-8" on="0"/>
        <pt x="-34" y="39" on="0"/>
        <pt x="-34" y="99" on="1"/>
        <pt x="-34" y="211" on="0"/>
        <pt x="97" y="481" on="0"/>
        <pt x="301" y="728" on="0"/>
        <pt x="549" y="966" on="0"/>
        <pt x="666" y="1052" on="1"/>
        <pt x="926" y="1245" on="0"/>
        <pt x="1020" y="1245" on="1"/>
        <pt x="1063" y="1245" on="0"/>
        <pt x="1063" y="1193" on="0"/>
        <pt x="1021" y="1161" on="1"/>
        <pt x="932" y="1096" on="0"/>
        <pt x="684" y="830" on="0"/>
        <pt x="587" y="684" on="1"/>
      </contour>
      <contour>
        <pt x="943" y="1705" on="1"/>
        <pt x="874" y="1705" on="0"/>
        <pt x="874" y="1754" on="1"/>
        <pt x="874" y="1786" on="0"/>
        <pt x="925" y="1846" on="0"/>
        <pt x="949" y="1872" on="1"/>
        <pt x="1088" y="2024" on="0"/>
        <pt x="1263" y="2024" on="1"/>
        <pt x="1366" y="2024" on="0"/>
        <pt x="1600" y="1923" on="0"/>
        <pt x="1698" y="1923" on="0"/>
        <pt x="1880" y="1985" on="0"/>
        <pt x="1941" y="1985" on="0"/>
        <pt x="1980" y="1959" on="0"/>
        <pt x="1980" y="1898" on="0"/>
        <pt x="1905" y="1818" on="1"/>
        <pt x="1766" y="1665" on="0"/>
        <pt x="1590" y="1665" on="1"/>
        <pt x="1520" y="1665" on="0"/>
        <pt x="1369" y="1716" on="0"/>
        <pt x="1235" y="1767" on="0"/>
        <pt x="1156" y="1767" on="0"/>
        <pt x="974" y="1705" on="0"/>
      </contour>
    </TTGlyph>
    <TTGlyph name="B" xMin="-79" yMin="-40" xMax="2067" yMax="1576">
      <contour>
        <pt x="1287" y="-40" on="1"/>
        <pt x="994" y="-40" on="0"/>
        <pt x="749" y="64" on="1"/>
        <pt x="698" y="13" on="0"/>
        <pt x="547" y="-20" on="0"/>
        <pt x="296" y="-20" on="0"/>
        <pt x="60" y="38" on="0"/>
        <pt x="-79" y="122" on="0"/>
        <pt x="-79" y="162" on="1"/>
        <pt x="-79" y="185" on="0"/>
        <pt x="-39" y="213" on="0"/>
        <pt x="-13" y="213" on="1"/>
        <pt x="79" y="213" on="0"/>
        <pt x="168" y="272" on="0"/>
        <pt x="251" y="432" on="0"/>
        <pt x="329" y="641" on="0"/>
        <pt x="396" y="823" on="0"/>
        <pt x="438" y="916" on="1"/>
        <pt x="531" y="1119" on="0"/>
        <pt x="671" y="1186" on="1"/>
        <pt x="738" y="1218" on="0"/>
        <pt x="954" y="1253" on="0"/>
        <pt x="1077" y="1253" on="0"/>
        <pt x="1114" y="1250" on="0"/>
        <pt x="1133" y="1245" on="1"/>
        <pt x="1171" y="1235" on="0"/>
        <pt x="1171" y="1203" on="1"/>
        <pt x="1171" y="1181" on="0"/>
        <pt x="1154" y="1144" on="0"/>
        <pt x="1080" y="1024" on="0"/>
        <pt x="1019" y="833" on="1"/>
        <pt x="1263" y="848" on="0"/>
        <pt x="1521" y="1021" on="0"/>
        <pt x="1521" y="1156" on="1"/>
        <pt x="1521" y="1339" on="0"/>
        <pt x="1211" y="1364" on="1"/>
        <pt x="1148" y="1369" on="0"/>
        <pt x="906" y="1369" on="0"/>
        <pt x="610" y="1312" on="0"/>
        <pt x="443" y="1244" on="0"/>
        <pt x="309" y="1187" on="0"/>
        <pt x="290" y="1187" on="1"/>
        <pt x="238" y="1187" on="0"/>
        <pt x="238" y="1256" on="0"/>
        <pt x="368" y="1352" on="0"/>
        <pt x="597" y="1446" on="0"/>
        <pt x="736" y="1486" on="1"/>
        <pt x="1050" y="1576" on="0"/>
        <pt x="1720" y="1576" on="0"/>
        <pt x="2067" y="1367" on="0"/>
        <pt x="2067" y="1023" on="0"/>
        <pt x="1722" y="795" on="0"/>
        <pt x="1421" y="783" on="1"/>
        <pt x="1614" y="781" on="0"/>
        <pt x="1776" y="690" on="1"/>
        <pt x="1854" y="647" on="0"/>
        <pt x="1952" y="507" on="0"/>
        <pt x="1952" y="323" on="0"/>
        <pt x="1875" y="162" on="0"/>
        <pt x="1748" y="58" on="0"/>
        <pt x="1660" y="24" on="1"/>
        <pt x="1499" y="-40" on="0"/>
      </contour>
      <contour>
        <pt x="991" y="745" on="1"/>
        <pt x="972" y="682" on="0"/>
        <pt x="860" y="299" on="0"/>
        <pt x="816" y="170" on="0"/>
        <pt x="815" y="168" on="1"/>
        <pt x="847" y="164" on="0"/>
        <pt x="988" y="164" on="0"/>
        <pt x="1163" y="203" on="0"/>
        <pt x="1302" y="283" on="0"/>
        <pt x="1381" y="419" on="0"/>
        <pt x="1381" y="613" on="0"/>
        <pt x="1155" y="741" on="0"/>
      </contour>
    </TTGlyph>
    <TTGlyph name="C" xMin="115" yMin="-40" xMax="1921" yMax="1576">
      <contour>
        <pt x="861" y="322" on="1"/>
        <pt x="956" y="208" on="0"/>
        <pt x="1159" y="208" on="1"/>
        <pt x="1349" y="208" on="0"/>
        <pt x="1553" y="272" on="1"/>
        <pt x="1620" y="293" on="0"/>
        <pt x="1652" y="293" on="1"/>
        <pt x="1710" y="293" on="0"/>
        <pt x="1710" y="260" on="1"/>
        <pt x="1710" y="212" on="0"/>
        <pt x="1558" y="103" on="0"/>
        <pt x="1326" y="17" on="0"/>
        <pt x="1033" y="-40" on="0"/>
        <pt x="901" y="-40" on="1"/>
        <pt x="667" y="-40" on="0"/>
        <pt x="311" y="106" on="0"/>
        <pt x="115" y="377" on="0"/>
        <pt x="115" y="698" on="0"/>
        <pt x="223" y="971" on="0"/>
        <pt x="408" y="1191" on="0"/>
        <pt x="655" y="1379" on="0"/>
        <pt x="792" y="1442" on="1"/>
        <pt x="1085" y="1576" on="0"/>
        <pt x="1623" y="1576" on="0"/>
        <pt x="1921" y="1355" on="0"/>
        <pt x="1921" y="1195" on="1"/>
        <pt x="1921" y="1021" on="0"/>
        <pt x="1818" y="890" on="1"/>
        <pt x="1769" y="826" on="0"/>
        <pt x="1606" y="750" on="0"/>
        <pt x="1504" y="750" on="1"/>
        <pt x="1436" y="750" on="0"/>
        <pt x="1388" y="769" on="1"/>
        <pt x="1297" y="805" on="0"/>
        <pt x="1297" y="872" on="1"/>
        <pt x="1297" y="895" on="0"/>
        <pt x="1402" y="1109" on="0"/>
        <pt x="1508" y="1336" on="0"/>
        <pt x="1508" y="1421" on="0"/>
        <pt x="1436" y="1453" on="0"/>
        <pt x="1303" y="1453" on="0"/>
        <pt x="1135" y="1352" on="0"/>
        <pt x="979" y="1177" on="0"/>
        <pt x="849" y="963" on="0"/>
        <pt x="771" y="714" on="0"/>
        <pt x="771" y="516" on="0"/>
        <pt x="816" y="376" on="0"/>
      </contour>
    </TTGlyph>
    <TTGlyph name="Cacute" xMin="115" yMin="-40" xMax="1980" yMax="2050">
      <contour>
        <pt x="861" y="322" on="1"/>
        <pt x="956" y="208" on="0"/>
        <pt x="1159" y="208" on="1"/>
        <pt x="1349" y="208" on="0"/>
        <pt x="1553" y="272" on="1"/>
        <pt x="1620" y="293" on="0"/>
        <pt x="1652" y="293" on="1"/>
        <pt x="1710" y="293" on="0"/>
        <pt x="1710" y="260" on="1"/>
        <pt x="1710" y="212" on="0"/>
        <pt x="1558" y="103" on="0"/>
        <pt x="1326" y="17" on="0"/>
        <pt x="1033" y="-40" on="0"/>
        <pt x="901" y="-40" on="1"/>
        <pt x="667" y="-40" on="0"/>
        <pt x="311" y="106" on="0"/>
        <pt x="115" y="377" on="0"/>
        <pt x="115" y="698" on="0"/>
        <pt x="223" y="971" on="0"/>
        <pt x="408" y="1191" on="0"/>
        <pt x="655" y="1379" on="0"/>
        <pt x="792" y="1442" on="1"/>
        <pt x="1085" y="1576" on="0"/>
        <pt x="1623" y="1576" on="0"/>
        <pt x="1921" y="1355" on="0"/>
        <pt x="1921" y="1195" on="1"/>
        <pt x="1921" y="1021" on="0"/>
        <pt x="1818" y="890" on="1"/>
        <pt x="1769" y="826" on="0"/>
        <pt x="1606" y="750" on="0"/>
        <pt x="1504" y="750" on="1"/>
        <pt x="1436" y="750" on="0"/>
        <pt x="1388" y="769" on="1"/>
        <pt x="1297" y="805" on="0"/>
        <pt x="1297" y="872" on="1"/>
        <pt x="1297" y="895" on="0"/>
        <pt x="1402" y="1109" on="0"/>
        <pt x="1508" y="1336" on="0"/>
        <pt x="1508" y="1421" on="0"/>
        <pt x="1436" y="1453" on="0"/>
        <pt x="1303" y="1453" on="0"/>
        <pt x="1135" y="1352" on="0"/>
        <pt x="979" y="1177" on="0"/>
        <pt x="849" y="963" on="0"/>
        <pt x="771" y="714" on="0"/>
        <pt x="771" y="516" on="0"/>
        <pt x="816" y="376" on="0"/>
      </contour>
      <contour>
        <pt x="1590" y="2013" on="1"/>
        <pt x="1688" y="2050" on="0"/>
        <pt x="1849" y="2050" on="0"/>
        <pt x="1980" y="1951" on="0"/>
        <pt x="1980" y="1886" on="1"/>
        <pt x="1980" y="1847" on="0"/>
        <pt x="1926" y="1780" on="0"/>
        <pt x="1867" y="1772" on="1"/>
        <pt x="1858" y="1771" on="0"/>
        <pt x="1742" y="1755" on="0"/>
        <pt x="1681" y="1747" on="0"/>
        <pt x="1558" y="1729" on="0"/>
        <pt x="1469" y="1713" on="0"/>
        <pt x="1358" y="1691" on="0"/>
        <pt x="1259" y="1667" on="0"/>
        <pt x="1175" y="1641" on="0"/>
        <pt x="1109" y="1641" on="0"/>
        <pt x="1109" y="1680" on="1"/>
        <pt x="1109" y="1737" on="0"/>
        <pt x="1399" y="1941" on="0"/>
      </contour>
    </TTGlyph>
    <TTGlyph name="Ccaron" xMin="115" yMin="-40" xMax="1979" yMax="2049">
      <contour>
        <pt x="861" y="322" on="1"/>
        <pt x="956" y="208" on="0"/>
        <pt x="1159" y="208" on="1"/>
        <pt x="1349" y="208" on="0"/>
        <pt x="1553" y="272" on="1"/>
        <pt x="1620" y="293" on="0"/>
        <pt x="1652" y="293" on="1"/>
        <pt x="1710" y="293" on="0"/>
        <pt x="1710" y="260" on="1"/>
        <pt x="1710" y="212" on="0"/>
        <pt x="1558" y="103" on="0"/>
        <pt x="1326" y="17" on="0"/>
        <pt x="1033" y="-40" on="0"/>
        <pt x="901" y="-40" on="1"/>
        <pt x="667" y="-40" on="0"/>
        <pt x="311" y="106" on="0"/>
        <pt x="115" y="377" on="0"/>
        <pt x="115" y="698" on="0"/>
        <pt x="223" y="971" on="0"/>
        <pt x="408" y="1191" on="0"/>
        <pt x="655" y="1379" on="0"/>
        <pt x="792" y="1442" on="1"/>
        <pt x="1085" y="1576" on="0"/>
        <pt x="1623" y="1576" on="0"/>
        <pt x="1921" y="1355" on="0"/>
        <pt x="1921" y="1195" on="1"/>
        <pt x="1921" y="1021" on="0"/>
        <pt x="1818" y="890" on="1"/>
        <pt x="1769" y="826" on="0"/>
        <pt x="1606" y="750" on="0"/>
        <pt x="1504" y="750" on="1"/>
        <pt x="1436" y="750" on="0"/>
        <pt x="1388" y="769" on="1"/>
        <pt x="1297" y="805" on="0"/>
        <pt x="1297" y="872" on="1"/>
        <pt x="1297" y="895" on="0"/>
        <pt x="1402" y="1109" on="0"/>
        <pt x="1508" y="1336" on="0"/>
        <pt x="1508" y="1421" on="0"/>
        <pt x="1436" y="1453" on="0"/>
        <pt x="1303" y="1453" on="0"/>
        <pt x="1135" y="1352" on="0"/>
        <pt x="979" y="1177" on="0"/>
        <pt x="849" y="963" on="0"/>
        <pt x="771" y="714" on="0"/>
        <pt x="771" y="516" on="0"/>
        <pt x="816" y="376" on="0"/>
      </contour>
      <contour>
        <pt x="1461" y="1887" on="1"/>
        <pt x="1865" y="2042" on="0"/>
        <pt x="1931" y="2042" on="1"/>
        <pt x="1951" y="2042" on="0"/>
        <pt x="1979" y="2018" on="0"/>
        <pt x="1979" y="1997" on="1"/>
        <pt x="1979" y="1955" on="0"/>
        <pt x="1763" y="1788" on="0"/>
        <pt x="1563" y="1662" on="1"/>
        <pt x="1523" y="1637" on="0"/>
        <pt x="1464" y="1620" on="0"/>
        <pt x="1364" y="1620" on="0"/>
        <pt x="1304" y="1650" on="0"/>
        <pt x="1276" y="1678" on="1"/>
        <pt x="1143" y="1810" on="0"/>
        <pt x="1010" y="1969" on="0"/>
        <pt x="1010" y="2049" on="0"/>
        <pt x="1105" y="2049" on="0"/>
        <pt x="1187" y="2016" on="1"/>
        <pt x="1328" y="1959" on="0"/>
      </contour>
    </TTGlyph>
    <TTGlyph name="Ccedilla" xMin="115" yMin="-600" xMax="1921" yMax="1576">
      <component glyphName="C" x="0" y="0" flags="0x204"/>
      <component glyphName="cedilla" x="324" y="0" flags="0x4"/>
    </TTGlyph>
    <TTGlyph name="Ccircumflex" xMin="115" yMin="-40" xMax="1921" yMax="2049">
      <contour>
        <pt x="861" y="322" on="1"/>
        <pt x="956" y="208" on="0"/>
        <pt x="1159" y="208" on="1"/>
        <pt x="1349" y="208" on="0"/>
        <pt x="1553" y="272" on="1"/>
        <pt x="1620" y="293" on="0"/>
        <pt x="1652" y="293" on="1"/>
        <pt x="1710" y="293" on="0"/>
        <pt x="1710" y="260" on="1"/>
        <pt x="1710" y="212" on="0"/>
        <pt x="1558" y="103" on="0"/>
        <pt x="1326" y="17" on="0"/>
        <pt x="1033" y="-40" on="0"/>
        <pt x="901" y="-40" on="1"/>
        <pt x="667" y="-40" on="0"/>
        <pt x="311" y="106" on="0"/>
        <pt x="115" y="377" on="0"/>
        <pt x="115" y="698" on="0"/>
        <pt x="223" y="971" on="0"/>
        <pt x="408" y="1191" on="0"/>
        <pt x="655" y="1379" on="0"/>
        <pt x="792" y="1442" on="1"/>
        <pt x="1085" y="1576" on="0"/>
        <pt x="1623" y="1576" on="0"/>
        <pt x="1921" y="1355" on="0"/>
        <pt x="1921" y="1195" on="1"/>
        <pt x="1921" y="1021" on="0"/>
        <pt x="1818" y="890" on="1"/>
        <pt x="1769" y="826" on="0"/>
        <pt x="1606" y="750" on="0"/>
        <pt x="1504" y="750" on="1"/>
        <pt x="1436" y="750" on="0"/>
        <pt x="1388" y="769" on="1"/>
        <pt x="1297" y="805" on="0"/>
        <pt x="1297" y="872" on="1"/>
        <pt x="1297" y="895" on="0"/>
        <pt x="1402" y="1109" on="0"/>
        <pt x="1508" y="1336" on="0"/>
        <pt x="1508" y="1421" on="0"/>
        <pt x="1436" y="1453" on="0"/>
        <pt x="1303" y="1453" on="0"/>
        <pt x="1135" y="1352" on="0"/>
        <pt x="979" y="1177" on="0"/>
        <pt x="849" y="963" on="0"/>
        <pt x="771" y="714" on="0"/>
        <pt x="771" y="516" on="0"/>
        <pt x="816" y="376" on="0"/>
      </contour>
      <contour>
        <pt x="1398" y="1782" on="1"/>
        <pt x="994" y="1627" on="0"/>
        <pt x="928" y="1627" on="1"/>
        <pt x="908" y="1627" on="0"/>
        <pt x="880" y="1651" on="0"/>
        <pt x="880" y="1672" on="1"/>
        <pt x="880" y="1714" on="0"/>
        <pt x="1096" y="1881" on="0"/>
        <pt x="1296" y="2007" on="1"/>
        <pt x="1336" y="2032" on="0"/>
        <pt x="1395" y="2049" on="0"/>
        <pt x="1495" y="2049" on="0"/>
        <pt x="1555" y="2019" on="0"/>
        <pt x="1583" y="1991" on="1"/>
        <pt x="1714" y="1861" on="0"/>
        <pt x="1849" y="1700" on="0"/>
        <pt x="1849" y="1620" on="0"/>
        <pt x="1754" y="1620" on="0"/>
        <pt x="1672" y="1653" on="1"/>
        <pt x="1531" y="1710" on="0"/>
      </contour>
    </TTGlyph>
    <TTGlyph name="Cdotaccent" xMin="115" yMin="-40" xMax="1921" yMax="2044">
      <contour>
        <pt x="861" y="322" on="1"/>
        <pt x="956" y="208" on="0"/>
        <pt x="1159" y="208" on="1"/>
        <pt x="1349" y="208" on="0"/>
        <pt x="1553" y="272" on="1"/>
        <pt x="1620" y="293" on="0"/>
        <pt x="1652" y="293" on="1"/>
        <pt x="1710" y="293" on="0"/>
        <pt x="1710" y="260" on="1"/>
        <pt x="1710" y="212" on="0"/>
        <pt x="1558" y="103" on="0"/>
        <pt x="1326" y="17" on="0"/>
        <pt x="1033" y="-40" on="0"/>
        <pt x="901" y="-40" on="1"/>
        <pt x="667" y="-40" on="0"/>
        <pt x="311" y="106" on="0"/>
        <pt x="115" y="377" on="0"/>
        <pt x="115" y="698" on="0"/>
        <pt x="223" y="971" on="0"/>
        <pt x="408" y="1191" on="0"/>
        <pt x="655" y="1379" on="0"/>
        <pt x="792" y="1442" on="1"/>
        <pt x="1085" y="1576" on="0"/>
        <pt x="1623" y="1576" on="0"/>
        <pt x="1921" y="1355" on="0"/>
        <pt x="1921" y="1195" on="1"/>
        <pt x="1921" y="1021" on="0"/>
        <pt x="1818" y="890" on="1"/>
        <pt x="1769" y="826" on="0"/>
        <pt x="1606" y="750" on="0"/>
        <pt x="1504" y="750" on="1"/>
        <pt x="1436" y="750" on="0"/>
        <pt x="1388" y="769" on="1"/>
        <pt x="1297" y="805" on="0"/>
        <pt x="1297" y="872" on="1"/>
        <pt x="1297" y="895" on="0"/>
        <pt x="1402" y="1109" on="0"/>
        <pt x="1508" y="1336" on="0"/>
        <pt x="1508" y="1421" on="0"/>
        <pt x="1436" y="1453" on="0"/>
        <pt x="1303" y="1453" on="0"/>
        <pt x="1135" y="1352" on="0"/>
        <pt x="979" y="1177" on="0"/>
        <pt x="849" y="963" on="0"/>
        <pt x="771" y="714" on="0"/>
        <pt x="771" y="516" on="0"/>
        <pt x="816" y="376" on="0"/>
      </contour>
      <contour>
        <pt x="1084" y="1940" on="1"/>
        <pt x="1199" y="2044" on="0"/>
        <pt x="1395" y="2044" on="1"/>
        <pt x="1506" y="2044" on="0"/>
        <pt x="1643" y="1954" on="0"/>
        <pt x="1643" y="1815" on="0"/>
        <pt x="1533" y="1714" on="0"/>
        <pt x="1366" y="1661" on="0"/>
        <pt x="1165" y="1661" on="0"/>
        <pt x="1027" y="1750" on="0"/>
        <pt x="1027" y="1890" on="0"/>
      </contour>
    </TTGlyph>
    <TTGlyph name="D" xMin="-79" yMin="-40" xMax="2032" yMax="1576">
      <contour>
        <pt x="1041" y="1360" on="1"/>
        <pt x="914" y="1360" on="0"/>
        <pt x="627" y="1311" on="0"/>
        <pt x="431" y="1251" on="0"/>
        <pt x="271" y="1202" on="0"/>
        <pt x="255" y="1202" on="1"/>
        <pt x="200" y="1202" on="0"/>
        <pt x="200" y="1279" on="0"/>
        <pt x="260" y="1319" on="1"/>
        <pt x="453" y="1448" on="0"/>
        <pt x="942" y="1576" on="0"/>
        <pt x="1389" y="1576" on="0"/>
        <pt x="1674" y="1502" on="0"/>
        <pt x="1860" y="1374" on="0"/>
        <pt x="1920" y="1282" on="1"/>
        <pt x="2032" y="1111" on="0"/>
        <pt x="2032" y="855" on="1"/>
        <pt x="2032" y="585" on="0"/>
        <pt x="1884" y="358" on="1"/>
        <pt x="1721" y="109" on="0"/>
        <pt x="1453" y="12" on="1"/>
        <pt x="1307" y="-40" on="0"/>
        <pt x="1140" y="-40" on="1"/>
        <pt x="874" y="-40" on="0"/>
        <pt x="724" y="44" on="1"/>
        <pt x="682" y="3" on="0"/>
        <pt x="562" y="-20" on="0"/>
        <pt x="350" y="-20" on="0"/>
        <pt x="157" y="14" on="0"/>
        <pt x="13" y="67" on="0"/>
        <pt x="-79" y="132" on="0"/>
        <pt x="-79" y="184" on="0"/>
        <pt x="-38" y="213" on="0"/>
        <pt x="-12" y="213" on="1"/>
        <pt x="78" y="213" on="0"/>
        <pt x="163" y="270" on="0"/>
        <pt x="252" y="428" on="0"/>
        <pt x="328" y="630" on="0"/>
        <pt x="395" y="816" on="0"/>
        <pt x="438" y="911" on="1"/>
        <pt x="531" y="1120" on="0"/>
        <pt x="671" y="1186" on="1"/>
        <pt x="740" y="1218" on="0"/>
        <pt x="954" y="1253" on="0"/>
        <pt x="1170" y="1253" on="0"/>
        <pt x="1170" y="1203" on="1"/>
        <pt x="1170" y="1165" on="0"/>
        <pt x="1079" y="1021" on="0"/>
        <pt x="975" y="719" on="0"/>
        <pt x="848" y="301" on="0"/>
        <pt x="813" y="204" on="1"/>
        <pt x="796" y="160" on="1"/>
        <pt x="827" y="157" on="0"/>
        <pt x="959" y="157" on="0"/>
        <pt x="1122" y="213" on="0"/>
        <pt x="1242" y="310" on="0"/>
        <pt x="1339" y="442" on="0"/>
        <pt x="1402" y="591" on="0"/>
        <pt x="1423" y="674" on="1"/>
        <pt x="1462" y="827" on="0"/>
        <pt x="1462" y="1002" on="1"/>
        <pt x="1462" y="1360" on="0"/>
      </contour>
    </TTGlyph>
    <TTGlyph name="Dcaron" xMin="-79" yMin="-40" xMax="2032" yMax="2049">
      <contour>
        <pt x="1041" y="1360" on="1"/>
        <pt x="914" y="1360" on="0"/>
        <pt x="627" y="1311" on="0"/>
        <pt x="431" y="1251" on="0"/>
        <pt x="271" y="1202" on="0"/>
        <pt x="255" y="1202" on="1"/>
        <pt x="200" y="1202" on="0"/>
        <pt x="200" y="1279" on="0"/>
        <pt x="260" y="1319" on="1"/>
        <pt x="453" y="1448" on="0"/>
        <pt x="942" y="1576" on="0"/>
        <pt x="1389" y="1576" on="0"/>
        <pt x="1674" y="1502" on="0"/>
        <pt x="1860" y="1374" on="0"/>
        <pt x="1920" y="1282" on="1"/>
        <pt x="2032" y="1111" on="0"/>
        <pt x="2032" y="855" on="1"/>
        <pt x="2032" y="585" on="0"/>
        <pt x="1884" y="358" on="1"/>
        <pt x="1721" y="109" on="0"/>
        <pt x="1453" y="12" on="1"/>
        <pt x="1307" y="-40" on="0"/>
        <pt x="1140" y="-40" on="1"/>
        <pt x="874" y="-40" on="0"/>
        <pt x="724" y="44" on="1"/>
        <pt x="682" y="3" on="0"/>
        <pt x="562" y="-20" on="0"/>
        <pt x="350" y="-20" on="0"/>
        <pt x="157" y="14" on="0"/>
        <pt x="13" y="67" on="0"/>
        <pt x="-79" y="132" on="0"/>
        <pt x="-79" y="184" on="0"/>
        <pt x="-38" y="213" on="0"/>
        <pt x="-12" y="213" on="1"/>
        <pt x="78" y="213" on="0"/>
        <pt x="163" y="270" on="0"/>
        <pt x="252" y="428" on="0"/>
        <pt x="328" y="630" on="0"/>
        <pt x="395" y="816" on="0"/>
        <pt x="438" y="911" on="1"/>
        <pt x="531" y="1120" on="0"/>
        <pt x="671" y="1186" on="1"/>
        <pt x="740" y="1218" on="0"/>
        <pt x="954" y="1253" on="0"/>
        <pt x="1170" y="1253" on="0"/>
        <pt x="1170" y="1203" on="1"/>
        <pt x="1170" y="1165" on="0"/>
        <pt x="1079" y="1021" on="0"/>
        <pt x="975" y="719" on="0"/>
        <pt x="848" y="301" on="0"/>
        <pt x="813" y="204" on="1"/>
        <pt x="796" y="160" on="1"/>
        <pt x="827" y="157" on="0"/>
        <pt x="959" y="157" on="0"/>
        <pt x="1122" y="213" on="0"/>
        <pt x="1242" y="310" on="0"/>
        <pt x="1339" y="442" on="0"/>
        <pt x="1402" y="591" on="0"/>
        <pt x="1423" y="674" on="1"/>
        <pt x="1462" y="827" on="0"/>
        <pt x="1462" y="1002" on="1"/>
        <pt x="1462" y="1360" on="0"/>
      </contour>
      <contour>
        <pt x="1350" y="1887" on="1"/>
        <pt x="1754" y="2042" on="0"/>
        <pt x="1820" y="2042" on="1"/>
        <pt x="1840" y="2042" on="0"/>
        <pt x="1868" y="2018" on="0"/>
        <pt x="1868" y="1997" on="1"/>
        <pt x="1868" y="1955" on="0"/>
        <pt x="1652" y="1788" on="0"/>
        <pt x="1452" y="1662" on="1"/>
        <pt x="1412" y="1637" on="0"/>
        <pt x="1353" y="1620" on="0"/>
        <pt x="1253" y="1620" on="0"/>
        <pt x="1193" y="1650" on="0"/>
        <pt x="1165" y="1678" on="1"/>
        <pt x="1032" y="1810" on="0"/>
        <pt x="899" y="1969" on="0"/>
        <pt x="899" y="2049" on="0"/>
        <pt x="994" y="2049" on="0"/>
        <pt x="1076" y="2016" on="1"/>
        <pt x="1217" y="1959" on="0"/>
      </contour>
    </TTGlyph>
    <TTGlyph name="Dcroat" xMin="-79" yMin="-40" xMax="2032" yMax="1576">
      <contour>
        <pt x="1063" y="598" on="1"/>
        <pt x="802" y="600" on="1"/>
        <pt x="704" y="600" on="0"/>
        <pt x="236" y="552" on="0"/>
        <pt x="152" y="552" on="1"/>
        <pt x="103" y="552" on="0"/>
        <pt x="103" y="683" on="0"/>
        <pt x="157" y="753" on="0"/>
        <pt x="251" y="758" on="0"/>
        <pt x="312" y="758" on="1"/>
        <pt x="526" y="757" on="1"/>
        <pt x="651" y="757" on="0"/>
        <pt x="1119" y="803" on="0"/>
        <pt x="1169" y="806" on="1"/>
        <pt x="1208" y="806" on="0"/>
        <pt x="1208" y="730" on="1"/>
        <pt x="1208" y="645" on="0"/>
        <pt x="1164" y="619" on="1"/>
        <pt x="1127" y="598" on="0"/>
      </contour>
      <contour>
        <pt x="1041" y="1360" on="1"/>
        <pt x="914" y="1360" on="0"/>
        <pt x="627" y="1311" on="0"/>
        <pt x="431" y="1251" on="0"/>
        <pt x="271" y="1202" on="0"/>
        <pt x="255" y="1202" on="1"/>
        <pt x="200" y="1202" on="0"/>
        <pt x="200" y="1279" on="0"/>
        <pt x="260" y="1319" on="1"/>
        <pt x="453" y="1448" on="0"/>
        <pt x="942" y="1576" on="0"/>
        <pt x="1389" y="1576" on="0"/>
        <pt x="1674" y="1502" on="0"/>
        <pt x="1860" y="1374" on="0"/>
        <pt x="1920" y="1282" on="1"/>
        <pt x="2032" y="1111" on="0"/>
        <pt x="2032" y="855" on="1"/>
        <pt x="2032" y="585" on="0"/>
        <pt x="1884" y="358" on="1"/>
        <pt x="1721" y="109" on="0"/>
        <pt x="1453" y="12" on="1"/>
        <pt x="1307" y="-40" on="0"/>
        <pt x="1140" y="-40" on="1"/>
        <pt x="874" y="-40" on="0"/>
        <pt x="724" y="44" on="1"/>
        <pt x="682" y="3" on="0"/>
        <pt x="562" y="-20" on="0"/>
        <pt x="350" y="-20" on="0"/>
        <pt x="157" y="14" on="0"/>
        <pt x="13" y="67" on="0"/>
        <pt x="-79" y="132" on="0"/>
        <pt x="-79" y="184" on="0"/>
        <pt x="-38" y="213" on="0"/>
        <pt x="-12" y="213" on="1"/>
        <pt x="78" y="213" on="0"/>
        <pt x="163" y="270" on="0"/>
        <pt x="252" y="428" on="0"/>
        <pt x="328" y="630" on="0"/>
        <pt x="395" y="816" on="0"/>
        <pt x="438" y="911" on="1"/>
        <pt x="531" y="1120" on="0"/>
        <pt x="671" y="1186" on="1"/>
        <pt x="740" y="1218" on="0"/>
        <pt x="954" y="1253" on="0"/>
        <pt x="1170" y="1253" on="0"/>
        <pt x="1170" y="1203" on="1"/>
        <pt x="1170" y="1165" on="0"/>
        <pt x="1079" y="1021" on="0"/>
        <pt x="975" y="719" on="0"/>
        <pt x="848" y="301" on="0"/>
        <pt x="813" y="204" on="1"/>
        <pt x="796" y="160" on="1"/>
        <pt x="827" y="157" on="0"/>
        <pt x="959" y="157" on="0"/>
        <pt x="1122" y="213" on="0"/>
        <pt x="1242" y="310" on="0"/>
        <pt x="1339" y="442" on="0"/>
        <pt x="1402" y="591" on="0"/>
        <pt x="1423" y="674" on="1"/>
        <pt x="1462" y="827" on="0"/>
        <pt x="1462" y="1002" on="1"/>
        <pt x="1462" y="1360" on="0"/>
      </contour>
    </TTGlyph>
    <TTGlyph name="Delta" xMin="129" yMin="-6" xMax="1534" yMax="1671">
      <contour>
        <pt x="715" y="4" on="1"/>
        <pt x="256" y="-6" on="1"/>
        <pt x="253" y="-6" on="1"/>
        <pt x="218" y="-4" on="0"/>
        <pt x="129" y="79" on="0"/>
        <pt x="129" y="107" on="1"/>
        <pt x="129" y="116" on="0"/>
        <pt x="134" y="124" on="1"/>
        <pt x="266" y="330" on="0"/>
        <pt x="916" y="1379" on="0"/>
        <pt x="1036" y="1581" on="1"/>
        <pt x="1089" y="1671" on="0"/>
        <pt x="1150" y="1671" on="1"/>
        <pt x="1183" y="1671" on="0"/>
        <pt x="1245" y="1648" on="0"/>
        <pt x="1249" y="1630" on="1"/>
        <pt x="1300" y="1399" on="0"/>
        <pt x="1534" y="157" on="0"/>
        <pt x="1534" y="85" on="0"/>
        <pt x="1453" y="-6" on="0"/>
        <pt x="1412" y="-6" on="1"/>
      </contour>
      <contour>
        <pt x="1099" y="1336" on="1"/>
        <pt x="776" y="790" on="0"/>
        <pt x="447" y="208" on="1"/>
        <pt x="613" y="202" on="0"/>
        <pt x="944" y="202" on="0"/>
        <pt x="1143" y="206" on="0"/>
        <pt x="1289" y="212" on="0"/>
        <pt x="1290" y="212" on="1"/>
        <pt x="1167" y="969" on="0"/>
      </contour>
    </TTGlyph>
    <TTGlyph name="E" xMin="60" yMin="-40" xMax="1945" yMax="1576">
      <contour>
        <pt x="1386" y="919" on="1"/>
        <pt x="1424" y="919" on="0"/>
        <pt x="1424" y="802" on="0"/>
        <pt x="1348" y="718" on="0"/>
        <pt x="1259" y="712" on="0"/>
        <pt x="1164" y="698" on="0"/>
        <pt x="1043" y="673" on="0"/>
        <pt x="943" y="631" on="0"/>
        <pt x="900" y="603" on="1"/>
        <pt x="806" y="543" on="0"/>
        <pt x="806" y="439" on="1"/>
        <pt x="806" y="370" on="0"/>
        <pt x="875" y="267" on="0"/>
        <pt x="931" y="239" on="1"/>
        <pt x="1039" y="185" on="0"/>
        <pt x="1170" y="185" on="1"/>
        <pt x="1371" y="185" on="0"/>
        <pt x="1684" y="271" on="1"/>
        <pt x="1702" y="276" on="0"/>
        <pt x="1715" y="276" on="1"/>
        <pt x="1753" y="276" on="0"/>
        <pt x="1753" y="238" on="1"/>
        <pt x="1753" y="168" on="0"/>
        <pt x="1468" y="36" on="0"/>
        <pt x="1058" y="-40" on="0"/>
        <pt x="693" y="-40" on="0"/>
        <pt x="405" y="6" on="0"/>
        <pt x="183" y="99" on="0"/>
        <pt x="60" y="254" on="0"/>
        <pt x="60" y="456" on="0"/>
        <pt x="181" y="617" on="0"/>
        <pt x="379" y="722" on="0"/>
        <pt x="510" y="758" on="1"/>
        <pt x="757" y="824" on="0"/>
        <pt x="1055" y="824" on="1"/>
        <pt x="843" y="835" on="0"/>
        <pt x="634" y="885" on="0"/>
        <pt x="513" y="932" on="0"/>
        <pt x="472" y="962" on="1"/>
        <pt x="378" y="1030" on="0"/>
        <pt x="378" y="1234" on="0"/>
        <pt x="531" y="1407" on="0"/>
        <pt x="657" y="1462" on="1"/>
        <pt x="918" y="1576" on="0"/>
        <pt x="1263" y="1576" on="1"/>
        <pt x="1732" y="1576" on="0"/>
        <pt x="1907" y="1471" on="1"/>
        <pt x="1945" y="1448" on="0"/>
        <pt x="1945" y="1359" on="0"/>
        <pt x="1814" y="1155" on="0"/>
        <pt x="1733" y="1077" on="0"/>
        <pt x="1664" y="1077" on="0"/>
        <pt x="1608" y="1127" on="0"/>
        <pt x="1592" y="1164" on="1"/>
        <pt x="1483" y="1409" on="0"/>
        <pt x="1256" y="1409" on="1"/>
        <pt x="1124" y="1409" on="0"/>
        <pt x="943" y="1266" on="0"/>
        <pt x="943" y="1061" on="0"/>
        <pt x="1152" y="913" on="0"/>
        <pt x="1302" y="913" on="1"/>
      </contour>
    </TTGlyph>
    <TTGlyph name="Eacute" xMin="60" yMin="-40" xMax="1945" yMax="2050">
      <contour>
        <pt x="1386" y="919" on="1"/>
        <pt x="1424" y="919" on="0"/>
        <pt x="1424" y="802" on="0"/>
        <pt x="1348" y="718" on="0"/>
        <pt x="1259" y="712" on="0"/>
        <pt x="1164" y="698" on="0"/>
        <pt x="1043" y="673" on="0"/>
        <pt x="943" y="631" on="0"/>
        <pt x="900" y="603" on="1"/>
        <pt x="806" y="543" on="0"/>
        <pt x="806" y="439" on="1"/>
        <pt x="806" y="370" on="0"/>
        <pt x="875" y="267" on="0"/>
        <pt x="931" y="239" on="1"/>
        <pt x="1039" y="185" on="0"/>
        <pt x="1170" y="185" on="1"/>
        <pt x="1371" y="185" on="0"/>
        <pt x="1684" y="271" on="1"/>
        <pt x="1702" y="276" on="0"/>
        <pt x="1715" y="276" on="1"/>
        <pt x="1753" y="276" on="0"/>
        <pt x="1753" y="238" on="1"/>
        <pt x="1753" y="168" on="0"/>
        <pt x="1468" y="36" on="0"/>
        <pt x="1058" y="-40" on="0"/>
        <pt x="693" y="-40" on="0"/>
        <pt x="405" y="6" on="0"/>
        <pt x="183" y="99" on="0"/>
        <pt x="60" y="254" on="0"/>
        <pt x="60" y="456" on="0"/>
        <pt x="181" y="617" on="0"/>
        <pt x="379" y="722" on="0"/>
        <pt x="510" y="758" on="1"/>
        <pt x="757" y="824" on="0"/>
        <pt x="1055" y="824" on="1"/>
        <pt x="843" y="835" on="0"/>
        <pt x="634" y="885" on="0"/>
        <pt x="513" y="932" on="0"/>
        <pt x="472" y="962" on="1"/>
        <pt x="378" y="1030" on="0"/>
        <pt x="378" y="1234" on="0"/>
        <pt x="531" y="1407" on="0"/>
        <pt x="657" y="1462" on="1"/>
        <pt x="918" y="1576" on="0"/>
        <pt x="1263" y="1576" on="1"/>
        <pt x="1732" y="1576" on="0"/>
        <pt x="1907" y="1471" on="1"/>
        <pt x="1945" y="1448" on="0"/>
        <pt x="1945" y="1359" on="0"/>
        <pt x="1814" y="1155" on="0"/>
        <pt x="1733" y="1077" on="0"/>
        <pt x="1664" y="1077" on="0"/>
        <pt x="1608" y="1127" on="0"/>
        <pt x="1592" y="1164" on="1"/>
        <pt x="1483" y="1409" on="0"/>
        <pt x="1256" y="1409" on="1"/>
        <pt x="1124" y="1409" on="0"/>
        <pt x="943" y="1266" on="0"/>
        <pt x="943" y="1061" on="0"/>
        <pt x="1152" y="913" on="0"/>
        <pt x="1302" y="913" on="1"/>
      </contour>
      <contour>
        <pt x="1550" y="2013" on="1"/>
        <pt x="1648" y="2050" on="0"/>
        <pt x="1809" y="2050" on="0"/>
        <pt x="1940" y="1951" on="0"/>
        <pt x="1940" y="1886" on="1"/>
        <pt x="1940" y="1847" on="0"/>
        <pt x="1886" y="1780" on="0"/>
        <pt x="1827" y="1772" on="1"/>
        <pt x="1818" y="1771" on="0"/>
        <pt x="1702" y="1755" on="0"/>
        <pt x="1641" y="1747" on="0"/>
        <pt x="1518" y="1729" on="0"/>
        <pt x="1429" y="1713" on="0"/>
        <pt x="1318" y="1691" on="0"/>
        <pt x="1219" y="1667" on="0"/>
        <pt x="1135" y="1641" on="0"/>
        <pt x="1069" y="1641" on="0"/>
        <pt x="1069" y="1680" on="1"/>
        <pt x="1069" y="1737" on="0"/>
        <pt x="1359" y="1941" on="0"/>
      </contour>
    </TTGlyph>
    <TTGlyph name="Ebreve" xMin="60" yMin="-40" xMax="1945" yMax="2046">
      <contour>
        <pt x="1386" y="919" on="1"/>
        <pt x="1424" y="919" on="0"/>
        <pt x="1424" y="802" on="0"/>
        <pt x="1348" y="718" on="0"/>
        <pt x="1259" y="712" on="0"/>
        <pt x="1164" y="698" on="0"/>
        <pt x="1043" y="673" on="0"/>
        <pt x="943" y="631" on="0"/>
        <pt x="900" y="603" on="1"/>
        <pt x="806" y="543" on="0"/>
        <pt x="806" y="439" on="1"/>
        <pt x="806" y="370" on="0"/>
        <pt x="875" y="267" on="0"/>
        <pt x="931" y="239" on="1"/>
        <pt x="1039" y="185" on="0"/>
        <pt x="1170" y="185" on="1"/>
        <pt x="1371" y="185" on="0"/>
        <pt x="1684" y="271" on="1"/>
        <pt x="1702" y="276" on="0"/>
        <pt x="1715" y="276" on="1"/>
        <pt x="1753" y="276" on="0"/>
        <pt x="1753" y="238" on="1"/>
        <pt x="1753" y="168" on="0"/>
        <pt x="1468" y="36" on="0"/>
        <pt x="1058" y="-40" on="0"/>
        <pt x="693" y="-40" on="0"/>
        <pt x="405" y="6" on="0"/>
        <pt x="183" y="99" on="0"/>
        <pt x="60" y="254" on="0"/>
        <pt x="60" y="456" on="0"/>
        <pt x="181" y="617" on="0"/>
        <pt x="379" y="722" on="0"/>
        <pt x="510" y="758" on="1"/>
        <pt x="757" y="824" on="0"/>
        <pt x="1055" y="824" on="1"/>
        <pt x="843" y="835" on="0"/>
        <pt x="634" y="885" on="0"/>
        <pt x="513" y="932" on="0"/>
        <pt x="472" y="962" on="1"/>
        <pt x="378" y="1030" on="0"/>
        <pt x="378" y="1234" on="0"/>
        <pt x="531" y="1407" on="0"/>
        <pt x="657" y="1462" on="1"/>
        <pt x="918" y="1576" on="0"/>
        <pt x="1263" y="1576" on="1"/>
        <pt x="1732" y="1576" on="0"/>
        <pt x="1907" y="1471" on="1"/>
        <pt x="1945" y="1448" on="0"/>
        <pt x="1945" y="1359" on="0"/>
        <pt x="1814" y="1155" on="0"/>
        <pt x="1733" y="1077" on="0"/>
        <pt x="1664" y="1077" on="0"/>
        <pt x="1608" y="1127" on="0"/>
        <pt x="1592" y="1164" on="1"/>
        <pt x="1483" y="1409" on="0"/>
        <pt x="1256" y="1409" on="1"/>
        <pt x="1124" y="1409" on="0"/>
        <pt x="943" y="1266" on="0"/>
        <pt x="943" y="1061" on="0"/>
        <pt x="1152" y="913" on="0"/>
        <pt x="1302" y="913" on="1"/>
      </contour>
      <contour>
        <pt x="927" y="1978" on="1"/>
        <pt x="927" y="2045" on="0"/>
        <pt x="996" y="2045" on="1"/>
        <pt x="1035" y="2045" on="0"/>
        <pt x="1119" y="1999" on="1"/>
        <pt x="1281" y="1911" on="0"/>
        <pt x="1432" y="1911" on="1"/>
        <pt x="1630" y="1911" on="0"/>
        <pt x="1776" y="1998" on="1"/>
        <pt x="1856" y="2046" on="0"/>
        <pt x="1886" y="2046" on="1"/>
        <pt x="1936" y="2046" on="0"/>
        <pt x="1936" y="1969" on="0"/>
        <pt x="1886" y="1896" on="0"/>
        <pt x="1838" y="1848" on="1"/>
        <pt x="1635" y="1645" on="0"/>
        <pt x="1387" y="1645" on="1"/>
        <pt x="1108" y="1645" on="0"/>
        <pt x="965" y="1867" on="1"/>
        <pt x="927" y="1925" on="0"/>
      </contour>
    </TTGlyph>
    <TTGlyph name="Ecaron" xMin="60" yMin="-40" xMax="1945" yMax="2049">
      <contour>
        <pt x="1386" y="919" on="1"/>
        <pt x="1424" y="919" on="0"/>
        <pt x="1424" y="802" on="0"/>
        <pt x="1348" y="718" on="0"/>
        <pt x="1259" y="712" on="0"/>
        <pt x="1164" y="698" on="0"/>
        <pt x="1043" y="673" on="0"/>
        <pt x="943" y="631" on="0"/>
        <pt x="900" y="603" on="1"/>
        <pt x="806" y="543" on="0"/>
        <pt x="806" y="439" on="1"/>
        <pt x="806" y="370" on="0"/>
        <pt x="875" y="267" on="0"/>
        <pt x="931" y="239" on="1"/>
        <pt x="1039" y="185" on="0"/>
        <pt x="1170" y="185" on="1"/>
        <pt x="1371" y="185" on="0"/>
        <pt x="1684" y="271" on="1"/>
        <pt x="1702" y="276" on="0"/>
        <pt x="1715" y="276" on="1"/>
        <pt x="1753" y="276" on="0"/>
        <pt x="1753" y="238" on="1"/>
        <pt x="1753" y="168" on="0"/>
        <pt x="1468" y="36" on="0"/>
        <pt x="1058" y="-40" on="0"/>
        <pt x="693" y="-40" on="0"/>
        <pt x="405" y="6" on="0"/>
        <pt x="183" y="99" on="0"/>
        <pt x="60" y="254" on="0"/>
        <pt x="60" y="456" on="0"/>
        <pt x="181" y="617" on="0"/>
        <pt x="379" y="722" on="0"/>
        <pt x="510" y="758" on="1"/>
        <pt x="757" y="824" on="0"/>
        <pt x="1055" y="824" on="1"/>
        <pt x="843" y="835" on="0"/>
        <pt x="634" y="885" on="0"/>
        <pt x="513" y="932" on="0"/>
        <pt x="472" y="962" on="1"/>
        <pt x="378" y="1030" on="0"/>
        <pt x="378" y="1234" on="0"/>
        <pt x="531" y="1407" on="0"/>
        <pt x="657" y="1462" on="1"/>
        <pt x="918" y="1576" on="0"/>
        <pt x="1263" y="1576" on="1"/>
        <pt x="1732" y="1576" on="0"/>
        <pt x="1907" y="1471" on="1"/>
        <pt x="1945" y="1448" on="0"/>
        <pt x="1945" y="1359" on="0"/>
        <pt x="1814" y="1155" on="0"/>
        <pt x="1733" y="1077" on="0"/>
        <pt x="1664" y="1077" on="0"/>
        <pt x="1608" y="1127" on="0"/>
        <pt x="1592" y="1164" on="1"/>
        <pt x="1483" y="1409" on="0"/>
        <pt x="1256" y="1409" on="1"/>
        <pt x="1124" y="1409" on="0"/>
        <pt x="943" y="1266" on="0"/>
        <pt x="943" y="1061" on="0"/>
        <pt x="1152" y="913" on="0"/>
        <pt x="1302" y="913" on="1"/>
      </contour>
      <contour>
        <pt x="1421" y="1887" on="1"/>
        <pt x="1825" y="2042" on="0"/>
        <pt x="1891" y="2042" on="1"/>
        <pt x="1911" y="2042" on="0"/>
        <pt x="1939" y="2018" on="0"/>
        <pt x="1939" y="1997" on="1"/>
        <pt x="1939" y="1955" on="0"/>
        <pt x="1723" y="1788" on="0"/>
        <pt x="1523" y="1662" on="1"/>
        <pt x="1483" y="1637" on="0"/>
        <pt x="1424" y="1620" on="0"/>
        <pt x="1324" y="1620" on="0"/>
        <pt x="1264" y="1650" on="0"/>
        <pt x="1236" y="1678" on="1"/>
        <pt x="1103" y="1810" on="0"/>
        <pt x="970" y="1969" on="0"/>
        <pt x="970" y="2049" on="0"/>
        <pt x="1065" y="2049" on="0"/>
        <pt x="1147" y="2016" on="1"/>
        <pt x="1288" y="1959" on="0"/>
      </contour>
    </TTGlyph>
    <TTGlyph name="Ecircumflex" xMin="60" yMin="-40" xMax="1945" yMax="2049">
      <contour>
        <pt x="1386" y="919" on="1"/>
        <pt x="1424" y="919" on="0"/>
        <pt x="1424" y="802" on="0"/>
        <pt x="1348" y="718" on="0"/>
        <pt x="1259" y="712" on="0"/>
        <pt x="1164" y="698" on="0"/>
        <pt x="1043" y="673" on="0"/>
        <pt x="943" y="631" on="0"/>
        <pt x="900" y="603" on="1"/>
        <pt x="806" y="543" on="0"/>
        <pt x="806" y="439" on="1"/>
        <pt x="806" y="370" on="0"/>
        <pt x="875" y="267" on="0"/>
        <pt x="931" y="239" on="1"/>
        <pt x="1039" y="185" on="0"/>
        <pt x="1170" y="185" on="1"/>
        <pt x="1371" y="185" on="0"/>
        <pt x="1684" y="271" on="1"/>
        <pt x="1702" y="276" on="0"/>
        <pt x="1715" y="276" on="1"/>
        <pt x="1753" y="276" on="0"/>
        <pt x="1753" y="238" on="1"/>
        <pt x="1753" y="168" on="0"/>
        <pt x="1468" y="36" on="0"/>
        <pt x="1058" y="-40" on="0"/>
        <pt x="693" y="-40" on="0"/>
        <pt x="405" y="6" on="0"/>
        <pt x="183" y="99" on="0"/>
        <pt x="60" y="254" on="0"/>
        <pt x="60" y="456" on="0"/>
        <pt x="181" y="617" on="0"/>
        <pt x="379" y="722" on="0"/>
        <pt x="510" y="758" on="1"/>
        <pt x="757" y="824" on="0"/>
        <pt x="1055" y="824" on="1"/>
        <pt x="843" y="835" on="0"/>
        <pt x="634" y="885" on="0"/>
        <pt x="513" y="932" on="0"/>
        <pt x="472" y="962" on="1"/>
        <pt x="378" y="1030" on="0"/>
        <pt x="378" y="1234" on="0"/>
        <pt x="531" y="1407" on="0"/>
        <pt x="657" y="1462" on="1"/>
        <pt x="918" y="1576" on="0"/>
        <pt x="1263" y="1576" on="1"/>
        <pt x="1732" y="1576" on="0"/>
        <pt x="1907" y="1471" on="1"/>
        <pt x="1945" y="1448" on="0"/>
        <pt x="1945" y="1359" on="0"/>
        <pt x="1814" y="1155" on="0"/>
        <pt x="1733" y="1077" on="0"/>
        <pt x="1664" y="1077" on="0"/>
        <pt x="1608" y="1127" on="0"/>
        <pt x="1592" y="1164" on="1"/>
        <pt x="1483" y="1409" on="0"/>
        <pt x="1256" y="1409" on="1"/>
        <pt x="1124" y="1409" on="0"/>
        <pt x="943" y="1266" on="0"/>
        <pt x="943" y="1061" on="0"/>
        <pt x="1152" y="913" on="0"/>
        <pt x="1302" y="913" on="1"/>
      </contour>
      <contour>
        <pt x="1358" y="1782" on="1"/>
        <pt x="954" y="1627" on="0"/>
        <pt x="888" y="1627" on="1"/>
        <pt x="868" y="1627" on="0"/>
        <pt x="840" y="1651" on="0"/>
        <pt x="840" y="1672" on="1"/>
        <pt x="840" y="1714" on="0"/>
        <pt x="1056" y="1881" on="0"/>
        <pt x="1256" y="2007" on="1"/>
        <pt x="1296" y="2032" on="0"/>
        <pt x="1355" y="2049" on="0"/>
        <pt x="1455" y="2049" on="0"/>
        <pt x="1515" y="2019" on="0"/>
        <pt x="1543" y="1991" on="1"/>
        <pt x="1674" y="1861" on="0"/>
        <pt x="1809" y="1700" on="0"/>
        <pt x="1809" y="1620" on="0"/>
        <pt x="1714" y="1620" on="0"/>
        <pt x="1632" y="1653" on="1"/>
        <pt x="1491" y="1710" on="0"/>
      </contour>
    </TTGlyph>
    <TTGlyph name="Edieresis" xMin="60" yMin="-40" xMax="2010" yMax="2020">
      <contour>
        <pt x="1386" y="919" on="1"/>
        <pt x="1424" y="919" on="0"/>
        <pt x="1424" y="802" on="0"/>
        <pt x="1348" y="718" on="0"/>
        <pt x="1259" y="712" on="0"/>
        <pt x="1164" y="698" on="0"/>
        <pt x="1043" y="673" on="0"/>
        <pt x="943" y="631" on="0"/>
        <pt x="900" y="603" on="1"/>
        <pt x="806" y="543" on="0"/>
        <pt x="806" y="439" on="1"/>
        <pt x="806" y="370" on="0"/>
        <pt x="875" y="267" on="0"/>
        <pt x="931" y="239" on="1"/>
        <pt x="1039" y="185" on="0"/>
        <pt x="1170" y="185" on="1"/>
        <pt x="1371" y="185" on="0"/>
        <pt x="1684" y="271" on="1"/>
        <pt x="1702" y="276" on="0"/>
        <pt x="1715" y="276" on="1"/>
        <pt x="1753" y="276" on="0"/>
        <pt x="1753" y="238" on="1"/>
        <pt x="1753" y="168" on="0"/>
        <pt x="1468" y="36" on="0"/>
        <pt x="1058" y="-40" on="0"/>
        <pt x="693" y="-40" on="0"/>
        <pt x="405" y="6" on="0"/>
        <pt x="183" y="99" on="0"/>
        <pt x="60" y="254" on="0"/>
        <pt x="60" y="456" on="0"/>
        <pt x="181" y="617" on="0"/>
        <pt x="379" y="722" on="0"/>
        <pt x="510" y="758" on="1"/>
        <pt x="757" y="824" on="0"/>
        <pt x="1055" y="824" on="1"/>
        <pt x="843" y="835" on="0"/>
        <pt x="634" y="885" on="0"/>
        <pt x="513" y="932" on="0"/>
        <pt x="472" y="962" on="1"/>
        <pt x="378" y="1030" on="0"/>
        <pt x="378" y="1234" on="0"/>
        <pt x="531" y="1407" on="0"/>
        <pt x="657" y="1462" on="1"/>
        <pt x="918" y="1576" on="0"/>
        <pt x="1263" y="1576" on="1"/>
        <pt x="1732" y="1576" on="0"/>
        <pt x="1907" y="1471" on="1"/>
        <pt x="1945" y="1448" on="0"/>
        <pt x="1945" y="1359" on="0"/>
        <pt x="1814" y="1155" on="0"/>
        <pt x="1733" y="1077" on="0"/>
        <pt x="1664" y="1077" on="0"/>
        <pt x="1608" y="1127" on="0"/>
        <pt x="1592" y="1164" on="1"/>
        <pt x="1483" y="1409" on="0"/>
        <pt x="1256" y="1409" on="1"/>
        <pt x="1124" y="1409" on="0"/>
        <pt x="943" y="1266" on="0"/>
        <pt x="943" y="1061" on="0"/>
        <pt x="1152" y="913" on="0"/>
        <pt x="1302" y="913" on="1"/>
      </contour>
      <contour>
        <pt x="1218" y="1749" on="1"/>
        <pt x="1167" y="1697" on="0"/>
        <pt x="1008" y="1641" on="0"/>
        <pt x="822" y="1641" on="0"/>
        <pt x="687" y="1726" on="0"/>
        <pt x="687" y="1857" on="0"/>
        <pt x="790" y="1962" on="0"/>
        <pt x="949" y="2020" on="0"/>
        <pt x="1136" y="2020" on="0"/>
        <pt x="1270" y="1932" on="0"/>
        <pt x="1270" y="1801" on="0"/>
      </contour>
      <contour>
        <pt x="2010" y="1862" on="1"/>
        <pt x="2010" y="1770" on="0"/>
        <pt x="1796" y="1641" on="0"/>
        <pt x="1562" y="1641" on="0"/>
        <pt x="1427" y="1726" on="0"/>
        <pt x="1427" y="1857" on="0"/>
        <pt x="1530" y="1962" on="0"/>
        <pt x="1689" y="2020" on="0"/>
        <pt x="1876" y="2020" on="0"/>
        <pt x="2010" y="1932" on="0"/>
      </contour>
    </TTGlyph>
    <TTGlyph name="Edotaccent" xMin="60" yMin="-40" xMax="1945" yMax="2044">
      <contour>
        <pt x="1386" y="919" on="1"/>
        <pt x="1424" y="919" on="0"/>
        <pt x="1424" y="802" on="0"/>
        <pt x="1348" y="718" on="0"/>
        <pt x="1259" y="712" on="0"/>
        <pt x="1164" y="698" on="0"/>
        <pt x="1043" y="673" on="0"/>
        <pt x="943" y="631" on="0"/>
        <pt x="900" y="603" on="1"/>
        <pt x="806" y="543" on="0"/>
        <pt x="806" y="439" on="1"/>
        <pt x="806" y="370" on="0"/>
        <pt x="875" y="267" on="0"/>
        <pt x="931" y="239" on="1"/>
        <pt x="1039" y="185" on="0"/>
        <pt x="1170" y="185" on="1"/>
        <pt x="1371" y="185" on="0"/>
        <pt x="1684" y="271" on="1"/>
        <pt x="1702" y="276" on="0"/>
        <pt x="1715" y="276" on="1"/>
        <pt x="1753" y="276" on="0"/>
        <pt x="1753" y="238" on="1"/>
        <pt x="1753" y="168" on="0"/>
        <pt x="1468" y="36" on="0"/>
        <pt x="1058" y="-40" on="0"/>
        <pt x="693" y="-40" on="0"/>
        <pt x="405" y="6" on="0"/>
        <pt x="183" y="99" on="0"/>
        <pt x="60" y="254" on="0"/>
        <pt x="60" y="456" on="0"/>
        <pt x="181" y="617" on="0"/>
        <pt x="379" y="722" on="0"/>
        <pt x="510" y="758" on="1"/>
        <pt x="757" y="824" on="0"/>
        <pt x="1055" y="824" on="1"/>
        <pt x="843" y="835" on="0"/>
        <pt x="634" y="885" on="0"/>
        <pt x="513" y="932" on="0"/>
        <pt x="472" y="962" on="1"/>
        <pt x="378" y="1030" on="0"/>
        <pt x="378" y="1234" on="0"/>
        <pt x="531" y="1407" on="0"/>
        <pt x="657" y="1462" on="1"/>
        <pt x="918" y="1576" on="0"/>
        <pt x="1263" y="1576" on="1"/>
        <pt x="1732" y="1576" on="0"/>
        <pt x="1907" y="1471" on="1"/>
        <pt x="1945" y="1448" on="0"/>
        <pt x="1945" y="1359" on="0"/>
        <pt x="1814" y="1155" on="0"/>
        <pt x="1733" y="1077" on="0"/>
        <pt x="1664" y="1077" on="0"/>
        <pt x="1608" y="1127" on="0"/>
        <pt x="1592" y="1164" on="1"/>
        <pt x="1483" y="1409" on="0"/>
        <pt x="1256" y="1409" on="1"/>
        <pt x="1124" y="1409" on="0"/>
        <pt x="943" y="1266" on="0"/>
        <pt x="943" y="1061" on="0"/>
        <pt x="1152" y="913" on="0"/>
        <pt x="1302" y="913" on="1"/>
      </contour>
      <contour>
        <pt x="1044" y="1940" on="1"/>
        <pt x="1159" y="2044" on="0"/>
        <pt x="1355" y="2044" on="1"/>
        <pt x="1466" y="2044" on="0"/>
        <pt x="1603" y="1954" on="0"/>
        <pt x="1603" y="1815" on="0"/>
        <pt x="1493" y="1714" on="0"/>
        <pt x="1326" y="1661" on="0"/>
        <pt x="1125" y="1661" on="0"/>
        <pt x="987" y="1750" on="0"/>
        <pt x="987" y="1890" on="0"/>
      </contour>
    </TTGlyph>
    <TTGlyph name="Egrave" xMin="60" yMin="-40" xMax="1945" yMax="2050">
      <contour>
        <pt x="1386" y="919" on="1"/>
        <pt x="1424" y="919" on="0"/>
        <pt x="1424" y="802" on="0"/>
        <pt x="1348" y="718" on="0"/>
        <pt x="1259" y="712" on="0"/>
        <pt x="1164" y="698" on="0"/>
        <pt x="1043" y="673" on="0"/>
        <pt x="943" y="631" on="0"/>
        <pt x="900" y="603" on="1"/>
        <pt x="806" y="543" on="0"/>
        <pt x="806" y="439" on="1"/>
        <pt x="806" y="370" on="0"/>
        <pt x="875" y="267" on="0"/>
        <pt x="931" y="239" on="1"/>
        <pt x="1039" y="185" on="0"/>
        <pt x="1170" y="185" on="1"/>
        <pt x="1371" y="185" on="0"/>
        <pt x="1684" y="271" on="1"/>
        <pt x="1702" y="276" on="0"/>
        <pt x="1715" y="276" on="1"/>
        <pt x="1753" y="276" on="0"/>
        <pt x="1753" y="238" on="1"/>
        <pt x="1753" y="168" on="0"/>
        <pt x="1468" y="36" on="0"/>
        <pt x="1058" y="-40" on="0"/>
        <pt x="693" y="-40" on="0"/>
        <pt x="405" y="6" on="0"/>
        <pt x="183" y="99" on="0"/>
        <pt x="60" y="254" on="0"/>
        <pt x="60" y="456" on="0"/>
        <pt x="181" y="617" on="0"/>
        <pt x="379" y="722" on="0"/>
        <pt x="510" y="758" on="1"/>
        <pt x="757" y="824" on="0"/>
        <pt x="1055" y="824" on="1"/>
        <pt x="843" y="835" on="0"/>
        <pt x="634" y="885" on="0"/>
        <pt x="513" y="932" on="0"/>
        <pt x="472" y="962" on="1"/>
        <pt x="378" y="1030" on="0"/>
        <pt x="378" y="1234" on="0"/>
        <pt x="531" y="1407" on="0"/>
        <pt x="657" y="1462" on="1"/>
        <pt x="918" y="1576" on="0"/>
        <pt x="1263" y="1576" on="1"/>
        <pt x="1732" y="1576" on="0"/>
        <pt x="1907" y="1471" on="1"/>
        <pt x="1945" y="1448" on="0"/>
        <pt x="1945" y="1359" on="0"/>
        <pt x="1814" y="1155" on="0"/>
        <pt x="1733" y="1077" on="0"/>
        <pt x="1664" y="1077" on="0"/>
        <pt x="1608" y="1127" on="0"/>
        <pt x="1592" y="1164" on="1"/>
        <pt x="1483" y="1409" on="0"/>
        <pt x="1256" y="1409" on="1"/>
        <pt x="1124" y="1409" on="0"/>
        <pt x="943" y="1266" on="0"/>
        <pt x="943" y="1061" on="0"/>
        <pt x="1152" y="913" on="0"/>
        <pt x="1302" y="913" on="1"/>
      </contour>
      <contour>
        <pt x="1620" y="1674" on="1"/>
        <pt x="1620" y="1636" on="0"/>
        <pt x="1540" y="1636" on="0"/>
        <pt x="1430" y="1670" on="1"/>
        <pt x="1233" y="1729" on="0"/>
        <pt x="971" y="1755" on="1"/>
        <pt x="914" y="1760" on="0"/>
        <pt x="838" y="1838" on="0"/>
        <pt x="838" y="1969" on="0"/>
        <pt x="946" y="2050" on="0"/>
        <pt x="1121" y="2050" on="0"/>
        <pt x="1341" y="1954" on="0"/>
        <pt x="1507" y="1826" on="0"/>
        <pt x="1620" y="1703" on="0"/>
      </contour>
    </TTGlyph>
    <TTGlyph name="Emacron" xMin="60" yMin="-40" xMax="1945" yMax="1949">
      <contour>
        <pt x="1386" y="919" on="1"/>
        <pt x="1424" y="919" on="0"/>
        <pt x="1424" y="802" on="0"/>
        <pt x="1348" y="718" on="0"/>
        <pt x="1259" y="712" on="0"/>
        <pt x="1164" y="698" on="0"/>
        <pt x="1043" y="673" on="0"/>
        <pt x="943" y="631" on="0"/>
        <pt x="900" y="603" on="1"/>
        <pt x="806" y="543" on="0"/>
        <pt x="806" y="439" on="1"/>
        <pt x="806" y="370" on="0"/>
        <pt x="875" y="267" on="0"/>
        <pt x="931" y="239" on="1"/>
        <pt x="1039" y="185" on="0"/>
        <pt x="1170" y="185" on="1"/>
        <pt x="1371" y="185" on="0"/>
        <pt x="1684" y="271" on="1"/>
        <pt x="1702" y="276" on="0"/>
        <pt x="1715" y="276" on="1"/>
        <pt x="1753" y="276" on="0"/>
        <pt x="1753" y="238" on="1"/>
        <pt x="1753" y="168" on="0"/>
        <pt x="1468" y="36" on="0"/>
        <pt x="1058" y="-40" on="0"/>
        <pt x="693" y="-40" on="0"/>
        <pt x="405" y="6" on="0"/>
        <pt x="183" y="99" on="0"/>
        <pt x="60" y="254" on="0"/>
        <pt x="60" y="456" on="0"/>
        <pt x="181" y="617" on="0"/>
        <pt x="379" y="722" on="0"/>
        <pt x="510" y="758" on="1"/>
        <pt x="757" y="824" on="0"/>
        <pt x="1055" y="824" on="1"/>
        <pt x="843" y="835" on="0"/>
        <pt x="634" y="885" on="0"/>
        <pt x="513" y="932" on="0"/>
        <pt x="472" y="962" on="1"/>
        <pt x="378" y="1030" on="0"/>
        <pt x="378" y="1234" on="0"/>
        <pt x="531" y="1407" on="0"/>
        <pt x="657" y="1462" on="1"/>
        <pt x="918" y="1576" on="0"/>
        <pt x="1263" y="1576" on="1"/>
        <pt x="1732" y="1576" on="0"/>
        <pt x="1907" y="1471" on="1"/>
        <pt x="1945" y="1448" on="0"/>
        <pt x="1945" y="1359" on="0"/>
        <pt x="1814" y="1155" on="0"/>
        <pt x="1733" y="1077" on="0"/>
        <pt x="1664" y="1077" on="0"/>
        <pt x="1608" y="1127" on="0"/>
        <pt x="1592" y="1164" on="1"/>
        <pt x="1483" y="1409" on="0"/>
        <pt x="1256" y="1409" on="1"/>
        <pt x="1124" y="1409" on="0"/>
        <pt x="943" y="1266" on="0"/>
        <pt x="943" y="1061" on="0"/>
        <pt x="1152" y="913" on="0"/>
        <pt x="1302" y="913" on="1"/>
      </contour>
      <contour>
        <pt x="1300" y="1728" on="1"/>
        <pt x="898" y="1708" on="1"/>
        <pt x="880" y="1708" on="0"/>
        <pt x="853" y="1761" on="0"/>
        <pt x="853" y="1858" on="0"/>
        <pt x="913" y="1949" on="0"/>
        <pt x="948" y="1949" on="1"/>
        <pt x="1364" y="1929" on="1"/>
        <pt x="1767" y="1949" on="1"/>
        <pt x="1783" y="1949" on="0"/>
        <pt x="1802" y="1896" on="0"/>
        <pt x="1802" y="1799" on="0"/>
        <pt x="1743" y="1708" on="0"/>
        <pt x="1650" y="1708" on="0"/>
        <pt x="1380" y="1728" on="0"/>
      </contour>
    </TTGlyph>
    <TTGlyph name="Eng" xMin="129" yMin="-510" xMax="2140" yMax="1577">
      <contour>
        <pt x="444" y="1227" on="1"/>
        <pt x="326" y="1203" on="1"/>
        <pt x="304" y="1203" on="0"/>
        <pt x="282" y="1215" on="0"/>
        <pt x="282" y="1234" on="1"/>
        <pt x="282" y="1280" on="0"/>
        <pt x="468" y="1430" on="0"/>
        <pt x="791" y="1556" on="0"/>
        <pt x="1050" y="1556" on="0"/>
        <pt x="1161" y="1466" on="0"/>
        <pt x="1161" y="1336" on="1"/>
        <pt x="1161" y="1324" on="0"/>
        <pt x="1159" y="1298" on="1"/>
        <pt x="1289" y="1430" on="0"/>
        <pt x="1667" y="1577" on="0"/>
        <pt x="1976" y="1577" on="0"/>
        <pt x="2140" y="1450" on="0"/>
        <pt x="2140" y="1226" on="0"/>
        <pt x="2031" y="857" on="0"/>
        <pt x="1822" y="280" on="0"/>
        <pt x="1730" y="1" on="0"/>
        <pt x="1594" y="-252" on="0"/>
        <pt x="1504" y="-340" on="1"/>
        <pt x="1330" y="-510" on="0"/>
        <pt x="1034" y="-510" on="1"/>
        <pt x="933" y="-510" on="0"/>
        <pt x="841" y="-485" on="0"/>
        <pt x="841" y="-449" on="1"/>
        <pt x="841" y="-419" on="0"/>
        <pt x="874" y="-389" on="1"/>
        <pt x="945" y="-326" on="0"/>
        <pt x="1053" y="-144" on="0"/>
        <pt x="1276" y="408" on="0"/>
        <pt x="1486" y="1040" on="0"/>
        <pt x="1486" y="1147" on="1"/>
        <pt x="1486" y="1243" on="0"/>
        <pt x="1335" y="1243" on="1"/>
        <pt x="1240" y="1243" on="0"/>
        <pt x="1138" y="1187" on="1"/>
        <pt x="1092" y="1000" on="0"/>
        <pt x="927" y="612" on="1"/>
        <pt x="778" y="261" on="0"/>
        <pt x="778" y="121" on="1"/>
        <pt x="781" y="55" on="1"/>
        <pt x="781" y="24" on="0"/>
        <pt x="713" y="-12" on="0"/>
        <pt x="676" y="-12" on="1"/>
        <pt x="275" y="-18" on="1"/>
        <pt x="164" y="-18" on="0"/>
        <pt x="140" y="20" on="1"/>
        <pt x="129" y="39" on="0"/>
        <pt x="129" y="118" on="0"/>
        <pt x="163" y="265" on="0"/>
        <pt x="346" y="696" on="0"/>
        <pt x="497" y="1068" on="0"/>
        <pt x="497" y="1187" on="0"/>
        <pt x="471" y="1227" on="0"/>
      </contour>
    </TTGlyph>
    <TTGlyph name="Eogonek" xMin="60" yMin="-542" xMax="1945" yMax="1576">
      <contour>
        <pt x="1337" y="-384" on="1"/>
        <pt x="1440" y="-375" on="1"/>
        <pt x="1483" y="-375" on="0"/>
        <pt x="1483" y="-413" on="1"/>
        <pt x="1483" y="-465" on="0"/>
        <pt x="1243" y="-542" on="0"/>
        <pt x="942" y="-542" on="0"/>
        <pt x="804" y="-450" on="0"/>
        <pt x="804" y="-289" on="0"/>
        <pt x="990" y="-96" on="0"/>
        <pt x="1263" y="53" on="0"/>
        <pt x="1408" y="96" on="1"/>
        <pt x="1565" y="83" on="1"/>
        <pt x="1548" y="76" on="0"/>
        <pt x="1445" y="37" on="0"/>
        <pt x="1408" y="20" on="1"/>
        <pt x="1327" y="-16" on="0"/>
        <pt x="1185" y="-185" on="0"/>
        <pt x="1185" y="-267" on="1"/>
        <pt x="1185" y="-384" on="0"/>
      </contour>
      <contour>
        <pt x="1386" y="919" on="1"/>
        <pt x="1424" y="919" on="0"/>
        <pt x="1424" y="802" on="0"/>
        <pt x="1348" y="718" on="0"/>
        <pt x="1259" y="712" on="0"/>
        <pt x="1164" y="698" on="0"/>
        <pt x="1043" y="673" on="0"/>
        <pt x="943" y="631" on="0"/>
        <pt x="900" y="603" on="1"/>
        <pt x="806" y="543" on="0"/>
        <pt x="806" y="439" on="1"/>
        <pt x="806" y="370" on="0"/>
        <pt x="875" y="267" on="0"/>
        <pt x="931" y="239" on="1"/>
        <pt x="1039" y="185" on="0"/>
        <pt x="1170" y="185" on="1"/>
        <pt x="1371" y="185" on="0"/>
        <pt x="1684" y="271" on="1"/>
        <pt x="1702" y="276" on="0"/>
        <pt x="1715" y="276" on="1"/>
        <pt x="1753" y="276" on="0"/>
        <pt x="1753" y="238" on="1"/>
        <pt x="1753" y="168" on="0"/>
        <pt x="1468" y="36" on="0"/>
        <pt x="1058" y="-40" on="0"/>
        <pt x="693" y="-40" on="0"/>
        <pt x="405" y="6" on="0"/>
        <pt x="183" y="99" on="0"/>
        <pt x="60" y="254" on="0"/>
        <pt x="60" y="456" on="0"/>
        <pt x="181" y="617" on="0"/>
        <pt x="379" y="722" on="0"/>
        <pt x="510" y="758" on="1"/>
        <pt x="757" y="824" on="0"/>
        <pt x="1055" y="824" on="1"/>
        <pt x="843" y="835" on="0"/>
        <pt x="634" y="885" on="0"/>
        <pt x="513" y="932" on="0"/>
        <pt x="472" y="962" on="1"/>
        <pt x="378" y="1030" on="0"/>
        <pt x="378" y="1234" on="0"/>
        <pt x="531" y="1407" on="0"/>
        <pt x="657" y="1462" on="1"/>
        <pt x="918" y="1576" on="0"/>
        <pt x="1263" y="1576" on="1"/>
        <pt x="1732" y="1576" on="0"/>
        <pt x="1907" y="1471" on="1"/>
        <pt x="1945" y="1448" on="0"/>
        <pt x="1945" y="1359" on="0"/>
        <pt x="1814" y="1155" on="0"/>
        <pt x="1733" y="1077" on="0"/>
        <pt x="1664" y="1077" on="0"/>
        <pt x="1608" y="1127" on="0"/>
        <pt x="1592" y="1164" on="1"/>
        <pt x="1483" y="1409" on="0"/>
        <pt x="1256" y="1409" on="1"/>
        <pt x="1124" y="1409" on="0"/>
        <pt x="943" y="1266" on="0"/>
        <pt x="943" y="1061" on="0"/>
        <pt x="1152" y="913" on="0"/>
        <pt x="1302" y="913" on="1"/>
      </contour>
    </TTGlyph>
    <TTGlyph name="Eth" xMin="-79" yMin="-40" xMax="2032" yMax="1576">
      <contour>
        <pt x="1063" y="598" on="1"/>
        <pt x="802" y="600" on="1"/>
        <pt x="704" y="600" on="0"/>
        <pt x="236" y="552" on="0"/>
        <pt x="152" y="552" on="1"/>
        <pt x="103" y="552" on="0"/>
        <pt x="103" y="683" on="0"/>
        <pt x="157" y="753" on="0"/>
        <pt x="251" y="758" on="0"/>
        <pt x="312" y="758" on="1"/>
        <pt x="526" y="757" on="1"/>
        <pt x="651" y="757" on="0"/>
        <pt x="1119" y="803" on="0"/>
        <pt x="1169" y="806" on="1"/>
        <pt x="1208" y="806" on="0"/>
        <pt x="1208" y="730" on="1"/>
        <pt x="1208" y="645" on="0"/>
        <pt x="1164" y="619" on="1"/>
        <pt x="1127" y="598" on="0"/>
      </contour>
      <contour>
        <pt x="1041" y="1360" on="1"/>
        <pt x="914" y="1360" on="0"/>
        <pt x="627" y="1311" on="0"/>
        <pt x="431" y="1251" on="0"/>
        <pt x="271" y="1202" on="0"/>
        <pt x="255" y="1202" on="1"/>
        <pt x="200" y="1202" on="0"/>
        <pt x="200" y="1279" on="0"/>
        <pt x="260" y="1319" on="1"/>
        <pt x="453" y="1448" on="0"/>
        <pt x="942" y="1576" on="0"/>
        <pt x="1389" y="1576" on="0"/>
        <pt x="1674" y="1502" on="0"/>
        <pt x="1860" y="1374" on="0"/>
        <pt x="1920" y="1282" on="1"/>
        <pt x="2032" y="1111" on="0"/>
        <pt x="2032" y="855" on="1"/>
        <pt x="2032" y="585" on="0"/>
        <pt x="1884" y="358" on="1"/>
        <pt x="1721" y="109" on="0"/>
        <pt x="1453" y="12" on="1"/>
        <pt x="1307" y="-40" on="0"/>
        <pt x="1140" y="-40" on="1"/>
        <pt x="874" y="-40" on="0"/>
        <pt x="724" y="44" on="1"/>
        <pt x="682" y="3" on="0"/>
        <pt x="562" y="-20" on="0"/>
        <pt x="350" y="-20" on="0"/>
        <pt x="157" y="14" on="0"/>
        <pt x="13" y="67" on="0"/>
        <pt x="-79" y="132" on="0"/>
        <pt x="-79" y="184" on="0"/>
        <pt x="-38" y="213" on="0"/>
        <pt x="-12" y="213" on="1"/>
        <pt x="78" y="213" on="0"/>
        <pt x="163" y="270" on="0"/>
        <pt x="252" y="428" on="0"/>
        <pt x="328" y="630" on="0"/>
        <pt x="395" y="816" on="0"/>
        <pt x="438" y="911" on="1"/>
        <pt x="531" y="1120" on="0"/>
        <pt x="671" y="1186" on="1"/>
        <pt x="740" y="1218" on="0"/>
        <pt x="954" y="1253" on="0"/>
        <pt x="1170" y="1253" on="0"/>
        <pt x="1170" y="1203" on="1"/>
        <pt x="1170" y="1165" on="0"/>
        <pt x="1079" y="1021" on="0"/>
        <pt x="975" y="719" on="0"/>
        <pt x="848" y="301" on="0"/>
        <pt x="813" y="204" on="1"/>
        <pt x="796" y="160" on="1"/>
        <pt x="827" y="157" on="0"/>
        <pt x="959" y="157" on="0"/>
        <pt x="1122" y="213" on="0"/>
        <pt x="1242" y="310" on="0"/>
        <pt x="1339" y="442" on="0"/>
        <pt x="1402" y="591" on="0"/>
        <pt x="1423" y="674" on="1"/>
        <pt x="1462" y="827" on="0"/>
        <pt x="1462" y="1002" on="1"/>
        <pt x="1462" y="1360" on="0"/>
      </contour>
    </TTGlyph>
    <TTGlyph name="Euro" xMin="72" yMin="-40" xMax="1994" yMax="1576">
      <contour>
        <pt x="167" y="580" on="1"/>
        <pt x="213" y="580" on="0"/>
        <pt x="313" y="575" on="1"/>
        <pt x="314" y="633" on="0"/>
        <pt x="326" y="701" on="1"/>
        <pt x="258" y="697" on="0"/>
        <pt x="194" y="697" on="1"/>
        <pt x="149" y="697" on="0"/>
        <pt x="149" y="758" on="1"/>
        <pt x="149" y="858" on="0"/>
        <pt x="244" y="858" on="1"/>
        <pt x="267" y="858" on="0"/>
        <pt x="371" y="854" on="1"/>
        <pt x="433" y="1010" on="0"/>
        <pt x="678" y="1284" on="0"/>
        <pt x="977" y="1469" on="0"/>
        <pt x="1313" y="1576" on="0"/>
        <pt x="1595" y="1576" on="0"/>
        <pt x="1798" y="1514" on="0"/>
        <pt x="1862" y="1461" on="1"/>
        <pt x="1994" y="1352" on="0"/>
        <pt x="1994" y="1060" on="0"/>
        <pt x="1835" y="913" on="0"/>
        <pt x="1684" y="913" on="1"/>
        <pt x="1614" y="913" on="0"/>
        <pt x="1491" y="991" on="0"/>
        <pt x="1491" y="1035" on="1"/>
        <pt x="1491" y="1060" on="0"/>
        <pt x="1610" y="1325" on="0"/>
        <pt x="1610" y="1421" on="0"/>
        <pt x="1543" y="1453" on="0"/>
        <pt x="1397" y="1453" on="0"/>
        <pt x="1188" y="1282" on="0"/>
        <pt x="1009" y="999" on="0"/>
        <pt x="962" y="843" on="1"/>
        <pt x="1345" y="858" on="0"/>
        <pt x="1363" y="858" on="1"/>
        <pt x="1398" y="858" on="0"/>
        <pt x="1398" y="800" on="1"/>
        <pt x="1398" y="697" on="0"/>
        <pt x="1303" y="697" on="1"/>
        <pt x="1242" y="697" on="0"/>
        <pt x="932" y="710" on="1"/>
        <pt x="924" y="651" on="0"/>
        <pt x="924" y="578" on="0"/>
        <pt x="925" y="567" on="1"/>
        <pt x="1235" y="580" on="0"/>
        <pt x="1286" y="580" on="1"/>
        <pt x="1321" y="580" on="0"/>
        <pt x="1321" y="522" on="1"/>
        <pt x="1321" y="419" on="0"/>
        <pt x="1226" y="419" on="1"/>
        <pt x="1150" y="419" on="0"/>
        <pt x="950" y="428" on="1"/>
        <pt x="1026" y="208" on="0"/>
        <pt x="1285" y="208" on="1"/>
        <pt x="1463" y="208" on="0"/>
        <pt x="1652" y="272" on="1"/>
        <pt x="1714" y="293" on="0"/>
        <pt x="1744" y="293" on="1"/>
        <pt x="1798" y="293" on="0"/>
        <pt x="1798" y="260" on="1"/>
        <pt x="1798" y="195" on="0"/>
        <pt x="1564" y="54" on="0"/>
        <pt x="1209" y="-40" on="0"/>
        <pt x="1045" y="-40" on="1"/>
        <pt x="757" y="-40" on="0"/>
        <pt x="372" y="211" on="0"/>
        <pt x="326" y="427" on="1"/>
        <pt x="162" y="419" on="0"/>
        <pt x="72" y="419" on="0"/>
        <pt x="72" y="480" on="1"/>
        <pt x="72" y="580" on="0"/>
      </contour>
    </TTGlyph>
    <TTGlyph name="F" xMin="-39" yMin="-43" xMax="2092" yMax="1576">
      <contour>
        <pt x="1468" y="843" on="1"/>
        <pt x="1612" y="843" on="0"/>
        <pt x="1612" y="777" on="1"/>
        <pt x="1612" y="735" on="0"/>
        <pt x="1516" y="516" on="0"/>
        <pt x="1452" y="422" on="0"/>
        <pt x="1390" y="422" on="0"/>
        <pt x="1304" y="473" on="0"/>
        <pt x="1215" y="534" on="0"/>
        <pt x="1077" y="590" on="0"/>
        <pt x="1010" y="594" on="1"/>
        <pt x="910" y="236" on="0"/>
        <pt x="887" y="160" on="0"/>
        <pt x="841" y="82" on="0"/>
        <pt x="777" y="32" on="0"/>
        <pt x="710" y="0" on="0"/>
        <pt x="662" y="-8" on="1"/>
        <pt x="435" y="-43" on="0"/>
        <pt x="222" y="9" on="1"/>
        <pt x="103" y="38" on="0"/>
        <pt x="-39" y="123" on="0"/>
        <pt x="-39" y="163" on="1"/>
        <pt x="-36" y="186" on="0"/>
        <pt x="1" y="213" on="0"/>
        <pt x="26" y="213" on="1"/>
        <pt x="118" y="213" on="0"/>
        <pt x="205" y="272" on="0"/>
        <pt x="283" y="431" on="0"/>
        <pt x="352" y="627" on="0"/>
        <pt x="410" y="791" on="0"/>
        <pt x="448" y="876" on="1"/>
        <pt x="531" y="1059" on="0"/>
        <pt x="789" y="1183" on="0"/>
        <pt x="1051" y="1183" on="1"/>
        <pt x="1207" y="1183" on="0"/>
        <pt x="1207" y="1131" on="1"/>
        <pt x="1207" y="1111" on="0"/>
        <pt x="1188" y="1074" on="1"/>
        <pt x="1113" y="933" on="0"/>
        <pt x="1050" y="729" on="1"/>
        <pt x="1135" y="774" on="0"/>
        <pt x="1362" y="843" on="0"/>
      </contour>
      <contour>
        <pt x="1773" y="1051" on="1"/>
        <pt x="1628" y="1178" on="0"/>
        <pt x="1211" y="1335" on="0"/>
        <pt x="999" y="1335" on="1"/>
        <pt x="872" y="1335" on="0"/>
        <pt x="514" y="1268" on="0"/>
        <pt x="342" y="1191" on="0"/>
        <pt x="315" y="1191" on="1"/>
        <pt x="282" y="1191" on="0"/>
        <pt x="282" y="1254" on="0"/>
        <pt x="392" y="1344" on="0"/>
        <pt x="603" y="1440" on="0"/>
        <pt x="736" y="1482" on="1"/>
        <pt x="1040" y="1576" on="0"/>
        <pt x="1402" y="1576" on="1"/>
        <pt x="1638" y="1576" on="0"/>
        <pt x="1797" y="1556" on="1"/>
        <pt x="2092" y="1521" on="0"/>
        <pt x="2092" y="1444" on="1"/>
        <pt x="2089" y="1403" on="0"/>
        <pt x="2015" y="1213" on="0"/>
        <pt x="1913" y="1040" on="0"/>
        <pt x="1880" y="1030" on="1"/>
        <pt x="1859" y="1024" on="0"/>
        <pt x="1806" y="1024" on="0"/>
      </contour>
    </TTGlyph>
    <TTGlyph name="G" xMin="135" yMin="-286" xMax="2030" yMax="1576">
      <contour>
        <pt x="1557" y="1373" on="1"/>
        <pt x="1557" y="1438" on="0"/>
        <pt x="1388" y="1438" on="1"/>
        <pt x="1316" y="1438" on="0"/>
        <pt x="1137" y="1347" on="0"/>
        <pt x="983" y="1185" on="0"/>
        <pt x="922" y="1083" on="1"/>
        <pt x="789" y="863" on="0"/>
        <pt x="789" y="400" on="0"/>
        <pt x="974" y="142" on="0"/>
        <pt x="1162" y="142" on="1"/>
        <pt x="1178" y="142" on="0"/>
        <pt x="1186" y="143" on="1"/>
        <pt x="1226" y="245" on="0"/>
        <pt x="1291" y="465" on="0"/>
        <pt x="1291" y="514" on="0"/>
        <pt x="1235" y="546" on="0"/>
        <pt x="1201" y="552" on="1"/>
        <pt x="1111" y="568" on="0"/>
        <pt x="1111" y="611" on="1"/>
        <pt x="1111" y="667" on="0"/>
        <pt x="1399" y="727" on="0"/>
        <pt x="1798" y="727" on="0"/>
        <pt x="1926" y="690" on="0"/>
        <pt x="1926" y="648" on="1"/>
        <pt x="1926" y="619" on="0"/>
        <pt x="1856" y="481" on="0"/>
        <pt x="1696" y="-49" on="0"/>
        <pt x="1660" y="-104" on="1"/>
        <pt x="1601" y="-195" on="0"/>
        <pt x="1360" y="-286" on="0"/>
        <pt x="1198" y="-286" on="1"/>
        <pt x="901" y="-286" on="0"/>
        <pt x="901" y="-223" on="1"/>
        <pt x="901" y="-181" on="0"/>
        <pt x="976" y="-138" on="1"/>
        <pt x="1062" y="-88" on="0"/>
        <pt x="1105" y="-27" on="1"/>
        <pt x="1123" y="0" on="0"/>
        <pt x="1140" y="35" on="1"/>
        <pt x="1003" y="0" on="0"/>
        <pt x="641" y="0" on="0"/>
        <pt x="370" y="79" on="0"/>
        <pt x="290" y="153" on="1"/>
        <pt x="135" y="296" on="0"/>
        <pt x="135" y="541" on="1"/>
        <pt x="135" y="685" on="0"/>
        <pt x="249" y="961" on="0"/>
        <pt x="443" y="1185" on="0"/>
        <pt x="701" y="1375" on="0"/>
        <pt x="844" y="1440" on="1"/>
        <pt x="1147" y="1576" on="0"/>
        <pt x="1739" y="1576" on="0"/>
        <pt x="2030" y="1398" on="0"/>
        <pt x="2030" y="1238" on="1"/>
        <pt x="2030" y="1145" on="0"/>
        <pt x="1947" y="1064" on="1"/>
        <pt x="1853" y="972" on="0"/>
        <pt x="1652" y="972" on="1"/>
        <pt x="1584" y="972" on="0"/>
        <pt x="1536" y="991" on="1"/>
        <pt x="1445" y="1027" on="0"/>
        <pt x="1445" y="1094" on="1"/>
        <pt x="1445" y="1109" on="0"/>
        <pt x="1557" y="1337" on="0"/>
      </contour>
    </TTGlyph>
    <TTGlyph name="Gbreve" xMin="135" yMin="-286" xMax="2071" yMax="2046">
      <contour>
        <pt x="1557" y="1373" on="1"/>
        <pt x="1557" y="1438" on="0"/>
        <pt x="1388" y="1438" on="1"/>
        <pt x="1316" y="1438" on="0"/>
        <pt x="1137" y="1347" on="0"/>
        <pt x="983" y="1185" on="0"/>
        <pt x="922" y="1083" on="1"/>
        <pt x="789" y="863" on="0"/>
        <pt x="789" y="400" on="0"/>
        <pt x="974" y="142" on="0"/>
        <pt x="1162" y="142" on="1"/>
        <pt x="1178" y="142" on="0"/>
        <pt x="1186" y="143" on="1"/>
        <pt x="1226" y="245" on="0"/>
        <pt x="1291" y="465" on="0"/>
        <pt x="1291" y="514" on="0"/>
        <pt x="1235" y="546" on="0"/>
        <pt x="1201" y="552" on="1"/>
        <pt x="1111" y="568" on="0"/>
        <pt x="1111" y="611" on="1"/>
        <pt x="1111" y="667" on="0"/>
        <pt x="1399" y="727" on="0"/>
        <pt x="1798" y="727" on="0"/>
        <pt x="1926" y="690" on="0"/>
        <pt x="1926" y="648" on="1"/>
        <pt x="1926" y="619" on="0"/>
        <pt x="1856" y="481" on="0"/>
        <pt x="1696" y="-49" on="0"/>
        <pt x="1660" y="-104" on="1"/>
        <pt x="1601" y="-195" on="0"/>
        <pt x="1360" y="-286" on="0"/>
        <pt x="1198" y="-286" on="1"/>
        <pt x="901" y="-286" on="0"/>
        <pt x="901" y="-223" on="1"/>
        <pt x="901" y="-181" on="0"/>
        <pt x="976" y="-138" on="1"/>
        <pt x="1062" y="-88" on="0"/>
        <pt x="1105" y="-27" on="1"/>
        <pt x="1123" y="0" on="0"/>
        <pt x="1140" y="35" on="1"/>
        <pt x="1003" y="0" on="0"/>
        <pt x="641" y="0" on="0"/>
        <pt x="370" y="79" on="0"/>
        <pt x="290" y="153" on="1"/>
        <pt x="135" y="296" on="0"/>
        <pt x="135" y="541" on="1"/>
        <pt x="135" y="685" on="0"/>
        <pt x="249" y="961" on="0"/>
        <pt x="443" y="1185" on="0"/>
        <pt x="701" y="1375" on="0"/>
        <pt x="844" y="1440" on="1"/>
        <pt x="1147" y="1576" on="0"/>
        <pt x="1739" y="1576" on="0"/>
        <pt x="2030" y="1398" on="0"/>
        <pt x="2030" y="1238" on="1"/>
        <pt x="2030" y="1145" on="0"/>
        <pt x="1947" y="1064" on="1"/>
        <pt x="1853" y="972" on="0"/>
        <pt x="1652" y="972" on="1"/>
        <pt x="1584" y="972" on="0"/>
        <pt x="1536" y="991" on="1"/>
        <pt x="1445" y="1027" on="0"/>
        <pt x="1445" y="1094" on="1"/>
        <pt x="1445" y="1109" on="0"/>
        <pt x="1557" y="1337" on="0"/>
      </contour>
      <contour>
        <pt x="1062" y="1978" on="1"/>
        <pt x="1062" y="2045" on="0"/>
        <pt x="1131" y="2045" on="1"/>
        <pt x="1170" y="2045" on="0"/>
        <pt x="1254" y="1999" on="1"/>
        <pt x="1416" y="1911" on="0"/>
        <pt x="1567" y="1911" on="1"/>
        <pt x="1765" y="1911" on="0"/>
        <pt x="1910" y="1998" on="1"/>
        <pt x="1991" y="2046" on="0"/>
        <pt x="2021" y="2046" on="1"/>
        <pt x="2071" y="2046" on="0"/>
        <pt x="2071" y="1969" on="0"/>
        <pt x="2021" y="1896" on="0"/>
        <pt x="1973" y="1848" on="1"/>
        <pt x="1770" y="1645" on="0"/>
        <pt x="1522" y="1645" on="1"/>
        <pt x="1243" y="1645" on="0"/>
        <pt x="1100" y="1867" on="1"/>
        <pt x="1062" y="1925" on="0"/>
      </contour>
    </TTGlyph>
    <TTGlyph name="Gcircumflex" xMin="135" yMin="-286" xMax="2030" yMax="2049">
      <contour>
        <pt x="1557" y="1373" on="1"/>
        <pt x="1557" y="1438" on="0"/>
        <pt x="1388" y="1438" on="1"/>
        <pt x="1316" y="1438" on="0"/>
        <pt x="1137" y="1347" on="0"/>
        <pt x="983" y="1185" on="0"/>
        <pt x="922" y="1083" on="1"/>
        <pt x="789" y="863" on="0"/>
        <pt x="789" y="400" on="0"/>
        <pt x="974" y="142" on="0"/>
        <pt x="1162" y="142" on="1"/>
        <pt x="1178" y="142" on="0"/>
        <pt x="1186" y="143" on="1"/>
        <pt x="1226" y="245" on="0"/>
        <pt x="1291" y="465" on="0"/>
        <pt x="1291" y="514" on="0"/>
        <pt x="1235" y="546" on="0"/>
        <pt x="1201" y="552" on="1"/>
        <pt x="1111" y="568" on="0"/>
        <pt x="1111" y="611" on="1"/>
        <pt x="1111" y="667" on="0"/>
        <pt x="1399" y="727" on="0"/>
        <pt x="1798" y="727" on="0"/>
        <pt x="1926" y="690" on="0"/>
        <pt x="1926" y="648" on="1"/>
        <pt x="1926" y="619" on="0"/>
        <pt x="1856" y="481" on="0"/>
        <pt x="1696" y="-49" on="0"/>
        <pt x="1660" y="-104" on="1"/>
        <pt x="1601" y="-195" on="0"/>
        <pt x="1360" y="-286" on="0"/>
        <pt x="1198" y="-286" on="1"/>
        <pt x="901" y="-286" on="0"/>
        <pt x="901" y="-223" on="1"/>
        <pt x="901" y="-181" on="0"/>
        <pt x="976" y="-138" on="1"/>
        <pt x="1062" y="-88" on="0"/>
        <pt x="1105" y="-27" on="1"/>
        <pt x="1123" y="0" on="0"/>
        <pt x="1140" y="35" on="1"/>
        <pt x="1003" y="0" on="0"/>
        <pt x="641" y="0" on="0"/>
        <pt x="370" y="79" on="0"/>
        <pt x="290" y="153" on="1"/>
        <pt x="135" y="296" on="0"/>
        <pt x="135" y="541" on="1"/>
        <pt x="135" y="685" on="0"/>
        <pt x="249" y="961" on="0"/>
        <pt x="443" y="1185" on="0"/>
        <pt x="701" y="1375" on="0"/>
        <pt x="844" y="1440" on="1"/>
        <pt x="1147" y="1576" on="0"/>
        <pt x="1739" y="1576" on="0"/>
        <pt x="2030" y="1398" on="0"/>
        <pt x="2030" y="1238" on="1"/>
        <pt x="2030" y="1145" on="0"/>
        <pt x="1947" y="1064" on="1"/>
        <pt x="1853" y="972" on="0"/>
        <pt x="1652" y="972" on="1"/>
        <pt x="1584" y="972" on="0"/>
        <pt x="1536" y="991" on="1"/>
        <pt x="1445" y="1027" on="0"/>
        <pt x="1445" y="1094" on="1"/>
        <pt x="1445" y="1109" on="0"/>
        <pt x="1557" y="1337" on="0"/>
      </contour>
      <contour>
        <pt x="1493" y="1782" on="1"/>
        <pt x="1089" y="1627" on="0"/>
        <pt x="1023" y="1627" on="1"/>
        <pt x="1003" y="1627" on="0"/>
        <pt x="975" y="1651" on="0"/>
        <pt x="975" y="1672" on="1"/>
        <pt x="975" y="1714" on="0"/>
        <pt x="1191" y="1881" on="0"/>
        <pt x="1391" y="2007" on="1"/>
        <pt x="1431" y="2032" on="0"/>
        <pt x="1490" y="2049" on="0"/>
        <pt x="1590" y="2049" on="0"/>
        <pt x="1650" y="2019" on="0"/>
        <pt x="1678" y="1991" on="1"/>
        <pt x="1809" y="1861" on="0"/>
        <pt x="1944" y="1700" on="0"/>
        <pt x="1944" y="1620" on="0"/>
        <pt x="1849" y="1620" on="0"/>
        <pt x="1767" y="1653" on="1"/>
        <pt x="1626" y="1710" on="0"/>
      </contour>
    </TTGlyph>
    <TTGlyph name="Gcommaaccent" xMin="135" yMin="-600" xMax="2030" yMax="1576">
      <contour>
        <pt x="1557" y="1373" on="1"/>
        <pt x="1557" y="1438" on="0"/>
        <pt x="1388" y="1438" on="1"/>
        <pt x="1316" y="1438" on="0"/>
        <pt x="1137" y="1347" on="0"/>
        <pt x="983" y="1185" on="0"/>
        <pt x="922" y="1083" on="1"/>
        <pt x="789" y="863" on="0"/>
        <pt x="789" y="633" on="1"/>
        <pt x="789" y="164" on="0"/>
        <pt x="1162" y="164" on="1"/>
        <pt x="1174" y="164" on="1"/>
        <pt x="1218" y="239" on="0"/>
        <pt x="1292" y="446" on="0"/>
        <pt x="1292" y="496" on="1"/>
        <pt x="1292" y="537" on="0"/>
        <pt x="1111" y="569" on="0"/>
        <pt x="1111" y="611" on="1"/>
        <pt x="1111" y="667" on="0"/>
        <pt x="1399" y="727" on="0"/>
        <pt x="1798" y="727" on="0"/>
        <pt x="1926" y="690" on="0"/>
        <pt x="1926" y="648" on="1"/>
        <pt x="1926" y="619" on="0"/>
        <pt x="1857" y="482" on="0"/>
        <pt x="1784" y="260" on="0"/>
        <pt x="1716" y="156" on="0"/>
        <pt x="1599" y="84" on="0"/>
        <pt x="1436" y="41" on="0"/>
        <pt x="1282" y="14" on="0"/>
        <pt x="1178" y="8" on="1"/>
        <pt x="1016" y="0" on="0"/>
        <pt x="846" y="0" on="1"/>
        <pt x="825" y="0" on="1"/>
        <pt x="299" y="0" on="0"/>
        <pt x="172" y="323" on="1"/>
        <pt x="135" y="419" on="0"/>
        <pt x="135" y="685" on="0"/>
        <pt x="249" y="961" on="0"/>
        <pt x="443" y="1185" on="0"/>
        <pt x="701" y="1375" on="0"/>
        <pt x="844" y="1440" on="1"/>
        <pt x="1147" y="1576" on="0"/>
        <pt x="1739" y="1576" on="0"/>
        <pt x="2030" y="1398" on="0"/>
        <pt x="2030" y="1238" on="1"/>
        <pt x="2030" y="1145" on="0"/>
        <pt x="1947" y="1064" on="1"/>
        <pt x="1853" y="972" on="0"/>
        <pt x="1652" y="972" on="1"/>
        <pt x="1584" y="972" on="0"/>
        <pt x="1536" y="991" on="1"/>
        <pt x="1445" y="1027" on="0"/>
        <pt x="1445" y="1094" on="1"/>
        <pt x="1445" y="1109" on="0"/>
        <pt x="1557" y="1337" on="0"/>
      </contour>
      <contour>
        <pt x="896" y="-404" on="1"/>
        <pt x="854" y="-415" on="0"/>
        <pt x="770" y="-415" on="1"/>
        <pt x="503" y="-415" on="0"/>
        <pt x="503" y="-291" on="1"/>
        <pt x="503" y="-214" on="0"/>
        <pt x="739" y="-109" on="0"/>
        <pt x="920" y="-109" on="1"/>
        <pt x="1017" y="-109" on="0"/>
        <pt x="1079" y="-138" on="1"/>
        <pt x="1193" y="-190" on="0"/>
        <pt x="1193" y="-297" on="1"/>
        <pt x="1193" y="-373" on="0"/>
        <pt x="1101" y="-492" on="0"/>
        <pt x="1022" y="-528" on="1"/>
        <pt x="859" y="-600" on="0"/>
        <pt x="632" y="-600" on="1"/>
        <pt x="547" y="-600" on="0"/>
        <pt x="547" y="-518" on="0"/>
        <pt x="620" y="-498" on="1"/>
        <pt x="644" y="-491" on="0"/>
        <pt x="745" y="-467" on="0"/>
        <pt x="768" y="-460" on="1"/>
        <pt x="835" y="-440" on="0"/>
      </contour>
    </TTGlyph>
    <TTGlyph name="Gdotaccent" xMin="135" yMin="-286" xMax="2030" yMax="2044">
      <contour>
        <pt x="1557" y="1373" on="1"/>
        <pt x="1557" y="1438" on="0"/>
        <pt x="1388" y="1438" on="1"/>
        <pt x="1316" y="1438" on="0"/>
        <pt x="1137" y="1347" on="0"/>
        <pt x="983" y="1185" on="0"/>
        <pt x="922" y="1083" on="1"/>
        <pt x="789" y="863" on="0"/>
        <pt x="789" y="400" on="0"/>
        <pt x="974" y="142" on="0"/>
        <pt x="1162" y="142" on="1"/>
        <pt x="1178" y="142" on="0"/>
        <pt x="1186" y="143" on="1"/>
        <pt x="1226" y="245" on="0"/>
        <pt x="1291" y="465" on="0"/>
        <pt x="1291" y="514" on="0"/>
        <pt x="1235" y="546" on="0"/>
        <pt x="1201" y="552" on="1"/>
        <pt x="1111" y="568" on="0"/>
        <pt x="1111" y="611" on="1"/>
        <pt x="1111" y="667" on="0"/>
        <pt x="1399" y="727" on="0"/>
        <pt x="1798" y="727" on="0"/>
        <pt x="1926" y="690" on="0"/>
        <pt x="1926" y="648" on="1"/>
        <pt x="1926" y="619" on="0"/>
        <pt x="1856" y="481" on="0"/>
        <pt x="1696" y="-49" on="0"/>
        <pt x="1660" y="-104" on="1"/>
        <pt x="1601" y="-195" on="0"/>
        <pt x="1360" y="-286" on="0"/>
        <pt x="1198" y="-286" on="1"/>
        <pt x="901" y="-286" on="0"/>
        <pt x="901" y="-223" on="1"/>
        <pt x="901" y="-181" on="0"/>
        <pt x="976" y="-138" on="1"/>
        <pt x="1062" y="-88" on="0"/>
        <pt x="1105" y="-27" on="1"/>
        <pt x="1123" y="0" on="0"/>
        <pt x="1140" y="35" on="1"/>
        <pt x="1003" y="0" on="0"/>
        <pt x="641" y="0" on="0"/>
        <pt x="370" y="79" on="0"/>
        <pt x="290" y="153" on="1"/>
        <pt x="135" y="296" on="0"/>
        <pt x="135" y="541" on="1"/>
        <pt x="135" y="685" on="0"/>
        <pt x="249" y="961" on="0"/>
        <pt x="443" y="1185" on="0"/>
        <pt x="701" y="1375" on="0"/>
        <pt x="844" y="1440" on="1"/>
        <pt x="1147" y="1576" on="0"/>
        <pt x="1739" y="1576" on="0"/>
        <pt x="2030" y="1398" on="0"/>
        <pt x="2030" y="1238" on="1"/>
        <pt x="2030" y="1145" on="0"/>
        <pt x="1947" y="1064" on="1"/>
        <pt x="1853" y="972" on="0"/>
        <pt x="1652" y="972" on="1"/>
        <pt x="1584" y="972" on="0"/>
        <pt x="1536" y="991" on="1"/>
        <pt x="1445" y="1027" on="0"/>
        <pt x="1445" y="1094" on="1"/>
        <pt x="1445" y="1109" on="0"/>
        <pt x="1557" y="1337" on="0"/>
      </contour>
      <contour>
        <pt x="1258" y="1940" on="1"/>
        <pt x="1374" y="2044" on="0"/>
        <pt x="1570" y="2044" on="1"/>
        <pt x="1681" y="2044" on="0"/>
        <pt x="1818" y="1954" on="0"/>
        <pt x="1818" y="1815" on="0"/>
        <pt x="1708" y="1714" on="0"/>
        <pt x="1541" y="1661" on="0"/>
        <pt x="1340" y="1661" on="0"/>
        <pt x="1202" y="1750" on="0"/>
        <pt x="1202" y="1890" on="0"/>
      </contour>
    </TTGlyph>
    <TTGlyph name="H" xMin="119" yMin="-18" xMax="2082" yMax="1556">
      <contour>
        <pt x="434" y="1227" on="1"/>
        <pt x="316" y="1203" on="1"/>
        <pt x="294" y="1203" on="0"/>
        <pt x="272" y="1215" on="0"/>
        <pt x="272" y="1234" on="1"/>
        <pt x="272" y="1279" on="0"/>
        <pt x="456" y="1430" on="0"/>
        <pt x="780" y="1556" on="0"/>
        <pt x="1040" y="1556" on="0"/>
        <pt x="1151" y="1466" on="0"/>
        <pt x="1151" y="1243" on="0"/>
        <pt x="1059" y="959" on="0"/>
        <pt x="973" y="749" on="1"/>
        <pt x="1147" y="754" on="1"/>
        <pt x="1217" y="754" on="0"/>
        <pt x="1217" y="713" on="1"/>
        <pt x="1217" y="684" on="0"/>
        <pt x="1184" y="667" on="1"/>
        <pt x="1098" y="623" on="0"/>
        <pt x="913" y="601" on="1"/>
        <pt x="843" y="426" on="0"/>
        <pt x="768" y="194" on="0"/>
        <pt x="768" y="121" on="1"/>
        <pt x="771" y="55" on="1"/>
        <pt x="771" y="24" on="0"/>
        <pt x="703" y="-12" on="0"/>
        <pt x="666" y="-12" on="1"/>
        <pt x="265" y="-18" on="1"/>
        <pt x="154" y="-18" on="0"/>
        <pt x="130" y="20" on="1"/>
        <pt x="119" y="39" on="0"/>
        <pt x="119" y="118" on="0"/>
        <pt x="153" y="265" on="0"/>
        <pt x="336" y="696" on="0"/>
        <pt x="487" y="1068" on="0"/>
        <pt x="487" y="1187" on="0"/>
        <pt x="461" y="1227" on="0"/>
      </contour>
      <contour>
        <pt x="1640" y="-12" on="1"/>
        <pt x="1269" y="-18" on="1"/>
        <pt x="1158" y="-18" on="0"/>
        <pt x="1134" y="20" on="1"/>
        <pt x="1123" y="39" on="0"/>
        <pt x="1123" y="68" on="1"/>
        <pt x="1123" y="162" on="0"/>
        <pt x="1269" y="635" on="0"/>
        <pt x="1440" y="1161" on="0"/>
        <pt x="1468" y="1337" on="0"/>
        <pt x="1468" y="1473" on="0"/>
        <pt x="1529" y="1510" on="0"/>
        <pt x="1706" y="1510" on="0"/>
        <pt x="1956" y="1528" on="0"/>
        <pt x="2041" y="1528" on="0"/>
        <pt x="2082" y="1481" on="0"/>
        <pt x="2082" y="1445" on="1"/>
        <pt x="2082" y="1269" on="0"/>
        <pt x="1962" y="942" on="1"/>
        <pt x="1912" y="805" on="0"/>
        <pt x="1862" y="666" on="1"/>
        <pt x="1741" y="334" on="0"/>
        <pt x="1741" y="118" on="1"/>
        <pt x="1745" y="55" on="1"/>
        <pt x="1745" y="24" on="0"/>
        <pt x="1677" y="-12" on="0"/>
      </contour>
    </TTGlyph>
    <TTGlyph name="Hbar" xMin="119" yMin="-18" xMax="2235" yMax="1556">
      <contour>
        <pt x="2140" y="840" on="1"/>
        <pt x="1686" y="860" on="1"/>
        <pt x="1681" y="860" on="1"/>
        <pt x="1749" y="1051" on="1"/>
        <pt x="2200" y="1071" on="1"/>
        <pt x="2216" y="1071" on="0"/>
        <pt x="2235" y="1018" on="0"/>
        <pt x="2235" y="922" on="0"/>
        <pt x="2177" y="840" on="0"/>
      </contour>
      <contour>
        <pt x="651" y="860" on="1"/>
        <pt x="199" y="840" on="1"/>
        <pt x="181" y="840" on="0"/>
        <pt x="154" y="893" on="0"/>
        <pt x="154" y="989" on="0"/>
        <pt x="213" y="1071" on="0"/>
        <pt x="296" y="1071" on="0"/>
        <pt x="650" y="1051" on="0"/>
        <pt x="719" y="1051" on="1"/>
      </contour>
      <contour>
        <pt x="434" y="1227" on="1"/>
        <pt x="316" y="1203" on="1"/>
        <pt x="294" y="1203" on="0"/>
        <pt x="272" y="1215" on="0"/>
        <pt x="272" y="1234" on="1"/>
        <pt x="272" y="1279" on="0"/>
        <pt x="456" y="1430" on="0"/>
        <pt x="780" y="1556" on="0"/>
        <pt x="1040" y="1556" on="0"/>
        <pt x="1151" y="1466" on="0"/>
        <pt x="1151" y="1243" on="0"/>
        <pt x="1059" y="959" on="0"/>
        <pt x="973" y="749" on="1"/>
        <pt x="1147" y="754" on="1"/>
        <pt x="1217" y="754" on="0"/>
        <pt x="1217" y="713" on="1"/>
        <pt x="1217" y="684" on="0"/>
        <pt x="1184" y="667" on="1"/>
        <pt x="1098" y="623" on="0"/>
        <pt x="913" y="601" on="1"/>
        <pt x="843" y="426" on="0"/>
        <pt x="768" y="194" on="0"/>
        <pt x="768" y="121" on="1"/>
        <pt x="771" y="55" on="1"/>
        <pt x="771" y="24" on="0"/>
        <pt x="703" y="-12" on="0"/>
        <pt x="666" y="-12" on="1"/>
        <pt x="265" y="-18" on="1"/>
        <pt x="154" y="-18" on="0"/>
        <pt x="130" y="20" on="1"/>
        <pt x="119" y="39" on="0"/>
        <pt x="119" y="118" on="0"/>
        <pt x="153" y="265" on="0"/>
        <pt x="336" y="696" on="0"/>
        <pt x="487" y="1068" on="0"/>
        <pt x="487" y="1187" on="0"/>
        <pt x="461" y="1227" on="0"/>
      </contour>
      <contour>
        <pt x="1640" y="-12" on="1"/>
        <pt x="1269" y="-18" on="1"/>
        <pt x="1158" y="-18" on="0"/>
        <pt x="1134" y="20" on="1"/>
        <pt x="1123" y="39" on="0"/>
        <pt x="1123" y="68" on="1"/>
        <pt x="1123" y="162" on="0"/>
        <pt x="1269" y="635" on="0"/>
        <pt x="1440" y="1161" on="0"/>
        <pt x="1468" y="1337" on="0"/>
        <pt x="1468" y="1473" on="0"/>
        <pt x="1529" y="1510" on="0"/>
        <pt x="1706" y="1510" on="0"/>
        <pt x="1956" y="1528" on="0"/>
        <pt x="2041" y="1528" on="0"/>
        <pt x="2082" y="1481" on="0"/>
        <pt x="2082" y="1445" on="1"/>
        <pt x="2082" y="1269" on="0"/>
        <pt x="1962" y="942" on="1"/>
        <pt x="1912" y="805" on="0"/>
        <pt x="1862" y="666" on="1"/>
        <pt x="1741" y="334" on="0"/>
        <pt x="1741" y="118" on="1"/>
        <pt x="1745" y="55" on="1"/>
        <pt x="1745" y="24" on="0"/>
        <pt x="1677" y="-12" on="0"/>
      </contour>
    </TTGlyph>
    <TTGlyph name="Hcircumflex" xMin="119" yMin="-18" xMax="2082" yMax="2049">
      <contour>
        <pt x="434" y="1227" on="1"/>
        <pt x="316" y="1203" on="1"/>
        <pt x="294" y="1203" on="0"/>
        <pt x="272" y="1215" on="0"/>
        <pt x="272" y="1234" on="1"/>
        <pt x="272" y="1279" on="0"/>
        <pt x="456" y="1430" on="0"/>
        <pt x="780" y="1556" on="0"/>
        <pt x="1040" y="1556" on="0"/>
        <pt x="1151" y="1466" on="0"/>
        <pt x="1151" y="1243" on="0"/>
        <pt x="1059" y="959" on="0"/>
        <pt x="973" y="749" on="1"/>
        <pt x="1147" y="754" on="1"/>
        <pt x="1217" y="754" on="0"/>
        <pt x="1217" y="713" on="1"/>
        <pt x="1217" y="684" on="0"/>
        <pt x="1184" y="667" on="1"/>
        <pt x="1098" y="623" on="0"/>
        <pt x="913" y="601" on="1"/>
        <pt x="843" y="426" on="0"/>
        <pt x="768" y="194" on="0"/>
        <pt x="768" y="121" on="1"/>
        <pt x="771" y="55" on="1"/>
        <pt x="771" y="24" on="0"/>
        <pt x="703" y="-12" on="0"/>
        <pt x="666" y="-12" on="1"/>
        <pt x="265" y="-18" on="1"/>
        <pt x="154" y="-18" on="0"/>
        <pt x="130" y="20" on="1"/>
        <pt x="119" y="39" on="0"/>
        <pt x="119" y="118" on="0"/>
        <pt x="153" y="265" on="0"/>
        <pt x="336" y="696" on="0"/>
        <pt x="487" y="1068" on="0"/>
        <pt x="487" y="1187" on="0"/>
        <pt x="461" y="1227" on="0"/>
      </contour>
      <contour>
        <pt x="1640" y="-12" on="1"/>
        <pt x="1269" y="-18" on="1"/>
        <pt x="1158" y="-18" on="0"/>
        <pt x="1134" y="20" on="1"/>
        <pt x="1123" y="39" on="0"/>
        <pt x="1123" y="68" on="1"/>
        <pt x="1123" y="162" on="0"/>
        <pt x="1269" y="635" on="0"/>
        <pt x="1440" y="1161" on="0"/>
        <pt x="1468" y="1337" on="0"/>
        <pt x="1468" y="1473" on="0"/>
        <pt x="1529" y="1510" on="0"/>
        <pt x="1706" y="1510" on="0"/>
        <pt x="1956" y="1528" on="0"/>
        <pt x="2041" y="1528" on="0"/>
        <pt x="2082" y="1481" on="0"/>
        <pt x="2082" y="1445" on="1"/>
        <pt x="2082" y="1269" on="0"/>
        <pt x="1962" y="942" on="1"/>
        <pt x="1912" y="805" on="0"/>
        <pt x="1862" y="666" on="1"/>
        <pt x="1741" y="334" on="0"/>
        <pt x="1741" y="118" on="1"/>
        <pt x="1745" y="55" on="1"/>
        <pt x="1745" y="24" on="0"/>
        <pt x="1677" y="-12" on="0"/>
      </contour>
      <contour>
        <pt x="1388" y="1782" on="1"/>
        <pt x="984" y="1627" on="0"/>
        <pt x="918" y="1627" on="1"/>
        <pt x="898" y="1627" on="0"/>
        <pt x="870" y="1651" on="0"/>
        <pt x="870" y="1672" on="1"/>
        <pt x="870" y="1714" on="0"/>
        <pt x="1086" y="1881" on="0"/>
        <pt x="1286" y="2007" on="1"/>
        <pt x="1326" y="2032" on="0"/>
        <pt x="1385" y="2049" on="0"/>
        <pt x="1485" y="2049" on="0"/>
        <pt x="1545" y="2019" on="0"/>
        <pt x="1573" y="1991" on="1"/>
        <pt x="1704" y="1861" on="0"/>
        <pt x="1839" y="1700" on="0"/>
        <pt x="1839" y="1620" on="0"/>
        <pt x="1744" y="1620" on="0"/>
        <pt x="1662" y="1653" on="1"/>
        <pt x="1521" y="1710" on="0"/>
      </contour>
    </TTGlyph>
    <TTGlyph name="I" xMin="72" yMin="-20" xMax="1330" yMax="1536">
      <contour>
        <pt x="466" y="594" on="1"/>
        <pt x="223" y="744" on="0"/>
        <pt x="223" y="982" on="1"/>
        <pt x="223" y="1088" on="0"/>
        <pt x="329" y="1272" on="0"/>
        <pt x="503" y="1400" on="0"/>
        <pt x="614" y="1446" on="1"/>
        <pt x="833" y="1536" on="0"/>
        <pt x="1076" y="1536" on="1"/>
        <pt x="1227" y="1536" on="0"/>
        <pt x="1282" y="1472" on="1"/>
        <pt x="1330" y="1415" on="0"/>
        <pt x="1330" y="1232" on="0"/>
        <pt x="1243" y="939" on="0"/>
        <pt x="1056" y="416" on="0"/>
        <pt x="960" y="117" on="0"/>
        <pt x="756" y="-20" on="0"/>
        <pt x="391" y="-20" on="0"/>
        <pt x="72" y="71" on="0"/>
        <pt x="72" y="130" on="1"/>
        <pt x="72" y="175" on="0"/>
        <pt x="139" y="182" on="1"/>
        <pt x="238" y="194" on="0"/>
        <pt x="327" y="258" on="0"/>
        <pt x="405" y="422" on="0"/>
      </contour>
      <contour>
        <pt x="648" y="1221" on="1"/>
        <pt x="648" y="1245" on="0"/>
        <pt x="619" y="1275" on="0"/>
        <pt x="575" y="1275" on="0"/>
        <pt x="525" y="1242" on="0"/>
        <pt x="498" y="1208" on="1"/>
        <pt x="431" y="1127" on="0"/>
        <pt x="431" y="841" on="0"/>
        <pt x="508" y="717" on="1"/>
        <pt x="648" y="1133" on="0"/>
      </contour>
    </TTGlyph>
    <TTGlyph name="IJ" xMin="72" yMin="-510" xMax="2696" yMax="1536">
      <contour>
        <pt x="466" y="594" on="1"/>
        <pt x="223" y="744" on="0"/>
        <pt x="223" y="982" on="1"/>
        <pt x="223" y="1088" on="0"/>
        <pt x="329" y="1272" on="0"/>
        <pt x="503" y="1400" on="0"/>
        <pt x="614" y="1446" on="1"/>
        <pt x="833" y="1536" on="0"/>
        <pt x="1076" y="1536" on="1"/>
        <pt x="1227" y="1536" on="0"/>
        <pt x="1282" y="1472" on="1"/>
        <pt x="1330" y="1415" on="0"/>
        <pt x="1330" y="1232" on="0"/>
        <pt x="1243" y="939" on="0"/>
        <pt x="1056" y="416" on="0"/>
        <pt x="960" y="117" on="0"/>
        <pt x="756" y="-20" on="0"/>
        <pt x="391" y="-20" on="0"/>
        <pt x="72" y="71" on="0"/>
        <pt x="72" y="130" on="1"/>
        <pt x="72" y="175" on="0"/>
        <pt x="139" y="182" on="1"/>
        <pt x="238" y="194" on="0"/>
        <pt x="327" y="258" on="0"/>
        <pt x="405" y="422" on="0"/>
      </contour>
      <contour>
        <pt x="648" y="1221" on="1"/>
        <pt x="648" y="1245" on="0"/>
        <pt x="619" y="1275" on="0"/>
        <pt x="575" y="1275" on="0"/>
        <pt x="525" y="1242" on="0"/>
        <pt x="498" y="1208" on="1"/>
        <pt x="431" y="1127" on="0"/>
        <pt x="431" y="841" on="0"/>
        <pt x="508" y="717" on="1"/>
        <pt x="648" y="1133" on="0"/>
      </contour>
      <contour>
        <pt x="2047" y="-340" on="1"/>
        <pt x="1873" y="-510" on="0"/>
        <pt x="1577" y="-510" on="1"/>
        <pt x="1434" y="-510" on="0"/>
        <pt x="1248" y="-370" on="0"/>
        <pt x="1248" y="-129" on="0"/>
        <pt x="1334" y="65" on="0"/>
        <pt x="1409" y="142" on="1"/>
        <pt x="1553" y="290" on="0"/>
        <pt x="1770" y="385" on="1"/>
        <pt x="1794" y="460" on="0"/>
        <pt x="1868" y="668" on="1"/>
        <pt x="2016" y="1084" on="0"/>
        <pt x="2016" y="1173" on="1"/>
        <pt x="2016" y="1205" on="0"/>
        <pt x="1994" y="1232" on="0"/>
        <pt x="1911" y="1232" on="0"/>
        <pt x="1744" y="1160" on="1"/>
        <pt x="1697" y="1140" on="0"/>
        <pt x="1606" y="1140" on="0"/>
        <pt x="1606" y="1181" on="1"/>
        <pt x="1606" y="1208" on="0"/>
        <pt x="1639" y="1238" on="1"/>
        <pt x="1781" y="1361" on="0"/>
        <pt x="2221" y="1536" on="0"/>
        <pt x="2571" y="1536" on="0"/>
        <pt x="2696" y="1460" on="0"/>
        <pt x="2696" y="1270" on="0"/>
        <pt x="2584" y="893" on="0"/>
        <pt x="2363" y="274" on="0"/>
        <pt x="2273" y="1" on="0"/>
        <pt x="2137" y="-252" on="0"/>
      </contour>
      <contour>
        <pt x="1496" y="-367" on="1"/>
        <pt x="1521" y="-367" on="0"/>
        <pt x="1552" y="-286" on="1"/>
        <pt x="1597" y="-166" on="0"/>
        <pt x="1724" y="240" on="1"/>
        <pt x="1608" y="142" on="0"/>
        <pt x="1444" y="-117" on="0"/>
        <pt x="1444" y="-367" on="0"/>
      </contour>
    </TTGlyph>
    <TTGlyph name="Iacute" xMin="72" yMin="-20" xMax="1697" yMax="2050">
      <contour>
        <pt x="466" y="594" on="1"/>
        <pt x="223" y="744" on="0"/>
        <pt x="223" y="982" on="1"/>
        <pt x="223" y="1088" on="0"/>
        <pt x="329" y="1272" on="0"/>
        <pt x="503" y="1400" on="0"/>
        <pt x="614" y="1446" on="1"/>
        <pt x="833" y="1536" on="0"/>
        <pt x="1076" y="1536" on="1"/>
        <pt x="1227" y="1536" on="0"/>
        <pt x="1282" y="1472" on="1"/>
        <pt x="1330" y="1415" on="0"/>
        <pt x="1330" y="1232" on="0"/>
        <pt x="1243" y="939" on="0"/>
        <pt x="1056" y="416" on="0"/>
        <pt x="960" y="117" on="0"/>
        <pt x="756" y="-20" on="0"/>
        <pt x="391" y="-20" on="0"/>
        <pt x="72" y="71" on="0"/>
        <pt x="72" y="130" on="1"/>
        <pt x="72" y="175" on="0"/>
        <pt x="139" y="182" on="1"/>
        <pt x="238" y="194" on="0"/>
        <pt x="327" y="258" on="0"/>
        <pt x="405" y="422" on="0"/>
      </contour>
      <contour>
        <pt x="648" y="1221" on="1"/>
        <pt x="648" y="1245" on="0"/>
        <pt x="619" y="1275" on="0"/>
        <pt x="575" y="1275" on="0"/>
        <pt x="525" y="1242" on="0"/>
        <pt x="498" y="1208" on="1"/>
        <pt x="431" y="1127" on="0"/>
        <pt x="431" y="841" on="0"/>
        <pt x="508" y="717" on="1"/>
        <pt x="648" y="1133" on="0"/>
      </contour>
      <contour>
        <pt x="1307" y="2013" on="1"/>
        <pt x="1405" y="2050" on="0"/>
        <pt x="1566" y="2050" on="0"/>
        <pt x="1697" y="1951" on="0"/>
        <pt x="1697" y="1886" on="1"/>
        <pt x="1697" y="1847" on="0"/>
        <pt x="1643" y="1780" on="0"/>
        <pt x="1584" y="1772" on="1"/>
        <pt x="1575" y="1771" on="0"/>
        <pt x="1459" y="1755" on="0"/>
        <pt x="1398" y="1747" on="0"/>
        <pt x="1275" y="1729" on="0"/>
        <pt x="1186" y="1713" on="0"/>
        <pt x="1075" y="1691" on="0"/>
        <pt x="976" y="1667" on="0"/>
        <pt x="892" y="1641" on="0"/>
        <pt x="826" y="1641" on="0"/>
        <pt x="826" y="1680" on="1"/>
        <pt x="826" y="1737" on="0"/>
        <pt x="1116" y="1941" on="0"/>
      </contour>
    </TTGlyph>
    <TTGlyph name="Ibreve" xMin="72" yMin="-20" xMax="1693" yMax="2046">
      <contour>
        <pt x="466" y="594" on="1"/>
        <pt x="223" y="744" on="0"/>
        <pt x="223" y="982" on="1"/>
        <pt x="223" y="1088" on="0"/>
        <pt x="329" y="1272" on="0"/>
        <pt x="503" y="1400" on="0"/>
        <pt x="614" y="1446" on="1"/>
        <pt x="833" y="1536" on="0"/>
        <pt x="1076" y="1536" on="1"/>
        <pt x="1227" y="1536" on="0"/>
        <pt x="1282" y="1472" on="1"/>
        <pt x="1330" y="1415" on="0"/>
        <pt x="1330" y="1232" on="0"/>
        <pt x="1243" y="939" on="0"/>
        <pt x="1056" y="416" on="0"/>
        <pt x="960" y="117" on="0"/>
        <pt x="756" y="-20" on="0"/>
        <pt x="391" y="-20" on="0"/>
        <pt x="72" y="71" on="0"/>
        <pt x="72" y="130" on="1"/>
        <pt x="72" y="175" on="0"/>
        <pt x="139" y="182" on="1"/>
        <pt x="238" y="194" on="0"/>
        <pt x="327" y="258" on="0"/>
        <pt x="405" y="422" on="0"/>
      </contour>
      <contour>
        <pt x="648" y="1221" on="1"/>
        <pt x="648" y="1245" on="0"/>
        <pt x="619" y="1275" on="0"/>
        <pt x="575" y="1275" on="0"/>
        <pt x="525" y="1242" on="0"/>
        <pt x="498" y="1208" on="1"/>
        <pt x="431" y="1127" on="0"/>
        <pt x="431" y="841" on="0"/>
        <pt x="508" y="717" on="1"/>
        <pt x="648" y="1133" on="0"/>
      </contour>
      <contour>
        <pt x="684" y="1978" on="1"/>
        <pt x="684" y="2045" on="0"/>
        <pt x="753" y="2045" on="1"/>
        <pt x="792" y="2045" on="0"/>
        <pt x="876" y="1999" on="1"/>
        <pt x="1038" y="1911" on="0"/>
        <pt x="1189" y="1911" on="1"/>
        <pt x="1387" y="1911" on="0"/>
        <pt x="1532" y="1998" on="1"/>
        <pt x="1613" y="2046" on="0"/>
        <pt x="1643" y="2046" on="1"/>
        <pt x="1693" y="2046" on="0"/>
        <pt x="1693" y="1969" on="0"/>
        <pt x="1643" y="1896" on="0"/>
        <pt x="1595" y="1848" on="1"/>
        <pt x="1392" y="1645" on="0"/>
        <pt x="1144" y="1645" on="1"/>
        <pt x="865" y="1645" on="0"/>
        <pt x="722" y="1867" on="1"/>
        <pt x="684" y="1925" on="0"/>
      </contour>
    </TTGlyph>
    <TTGlyph name="Icircumflex" xMin="72" yMin="-20" xMax="1566" yMax="2049">
      <contour>
        <pt x="466" y="594" on="1"/>
        <pt x="223" y="744" on="0"/>
        <pt x="223" y="982" on="1"/>
        <pt x="223" y="1088" on="0"/>
        <pt x="329" y="1272" on="0"/>
        <pt x="503" y="1400" on="0"/>
        <pt x="614" y="1446" on="1"/>
        <pt x="833" y="1536" on="0"/>
        <pt x="1076" y="1536" on="1"/>
        <pt x="1227" y="1536" on="0"/>
        <pt x="1282" y="1472" on="1"/>
        <pt x="1330" y="1415" on="0"/>
        <pt x="1330" y="1232" on="0"/>
        <pt x="1243" y="939" on="0"/>
        <pt x="1056" y="416" on="0"/>
        <pt x="960" y="117" on="0"/>
        <pt x="756" y="-20" on="0"/>
        <pt x="391" y="-20" on="0"/>
        <pt x="72" y="71" on="0"/>
        <pt x="72" y="130" on="1"/>
        <pt x="72" y="175" on="0"/>
        <pt x="139" y="182" on="1"/>
        <pt x="238" y="194" on="0"/>
        <pt x="327" y="258" on="0"/>
        <pt x="405" y="422" on="0"/>
      </contour>
      <contour>
        <pt x="648" y="1221" on="1"/>
        <pt x="648" y="1245" on="0"/>
        <pt x="619" y="1275" on="0"/>
        <pt x="575" y="1275" on="0"/>
        <pt x="525" y="1242" on="0"/>
        <pt x="498" y="1208" on="1"/>
        <pt x="431" y="1127" on="0"/>
        <pt x="431" y="841" on="0"/>
        <pt x="508" y="717" on="1"/>
        <pt x="648" y="1133" on="0"/>
      </contour>
      <contour>
        <pt x="1115" y="1782" on="1"/>
        <pt x="711" y="1627" on="0"/>
        <pt x="645" y="1627" on="1"/>
        <pt x="625" y="1627" on="0"/>
        <pt x="597" y="1651" on="0"/>
        <pt x="597" y="1672" on="1"/>
        <pt x="597" y="1714" on="0"/>
        <pt x="813" y="1881" on="0"/>
        <pt x="1013" y="2007" on="1"/>
        <pt x="1053" y="2032" on="0"/>
        <pt x="1112" y="2049" on="0"/>
        <pt x="1212" y="2049" on="0"/>
        <pt x="1272" y="2019" on="0"/>
        <pt x="1300" y="1991" on="1"/>
        <pt x="1431" y="1861" on="0"/>
        <pt x="1566" y="1700" on="0"/>
        <pt x="1566" y="1620" on="0"/>
        <pt x="1471" y="1620" on="0"/>
        <pt x="1389" y="1653" on="1"/>
        <pt x="1248" y="1710" on="0"/>
      </contour>
    </TTGlyph>
    <TTGlyph name="Idieresis" xMin="72" yMin="-20" xMax="1767" yMax="2020">
      <contour>
        <pt x="466" y="594" on="1"/>
        <pt x="223" y="744" on="0"/>
        <pt x="223" y="982" on="1"/>
        <pt x="223" y="1088" on="0"/>
        <pt x="329" y="1272" on="0"/>
        <pt x="503" y="1400" on="0"/>
        <pt x="614" y="1446" on="1"/>
        <pt x="833" y="1536" on="0"/>
        <pt x="1076" y="1536" on="1"/>
        <pt x="1227" y="1536" on="0"/>
        <pt x="1282" y="1472" on="1"/>
        <pt x="1330" y="1415" on="0"/>
        <pt x="1330" y="1232" on="0"/>
        <pt x="1243" y="939" on="0"/>
        <pt x="1056" y="416" on="0"/>
        <pt x="960" y="117" on="0"/>
        <pt x="756" y="-20" on="0"/>
        <pt x="391" y="-20" on="0"/>
        <pt x="72" y="71" on="0"/>
        <pt x="72" y="130" on="1"/>
        <pt x="72" y="175" on="0"/>
        <pt x="139" y="182" on="1"/>
        <pt x="238" y="194" on="0"/>
        <pt x="327" y="258" on="0"/>
        <pt x="405" y="422" on="0"/>
      </contour>
      <contour>
        <pt x="648" y="1221" on="1"/>
        <pt x="648" y="1245" on="0"/>
        <pt x="619" y="1275" on="0"/>
        <pt x="575" y="1275" on="0"/>
        <pt x="525" y="1242" on="0"/>
        <pt x="498" y="1208" on="1"/>
        <pt x="431" y="1127" on="0"/>
        <pt x="431" y="841" on="0"/>
        <pt x="508" y="717" on="1"/>
        <pt x="648" y="1133" on="0"/>
      </contour>
      <contour>
        <pt x="975" y="1749" on="1"/>
        <pt x="924" y="1697" on="0"/>
        <pt x="765" y="1641" on="0"/>
        <pt x="579" y="1641" on="0"/>
        <pt x="444" y="1726" on="0"/>
        <pt x="444" y="1857" on="0"/>
        <pt x="547" y="1962" on="0"/>
        <pt x="706" y="2020" on="0"/>
        <pt x="893" y="2020" on="0"/>
        <pt x="1027" y="1932" on="0"/>
        <pt x="1027" y="1801" on="0"/>
      </contour>
      <contour>
        <pt x="1767" y="1862" on="1"/>
        <pt x="1767" y="1770" on="0"/>
        <pt x="1553" y="1641" on="0"/>
        <pt x="1319" y="1641" on="0"/>
        <pt x="1184" y="1726" on="0"/>
        <pt x="1184" y="1857" on="0"/>
        <pt x="1287" y="1962" on="0"/>
        <pt x="1446" y="2020" on="0"/>
        <pt x="1633" y="2020" on="0"/>
        <pt x="1767" y="1932" on="0"/>
      </contour>
    </TTGlyph>
    <TTGlyph name="Idotaccent" xMin="72" yMin="-20" xMax="1360" yMax="2044">
      <contour>
        <pt x="466" y="594" on="1"/>
        <pt x="223" y="744" on="0"/>
        <pt x="223" y="982" on="1"/>
        <pt x="223" y="1088" on="0"/>
        <pt x="329" y="1272" on="0"/>
        <pt x="503" y="1400" on="0"/>
        <pt x="614" y="1446" on="1"/>
        <pt x="833" y="1536" on="0"/>
        <pt x="1076" y="1536" on="1"/>
        <pt x="1227" y="1536" on="0"/>
        <pt x="1282" y="1472" on="1"/>
        <pt x="1330" y="1415" on="0"/>
        <pt x="1330" y="1232" on="0"/>
        <pt x="1243" y="939" on="0"/>
        <pt x="1056" y="416" on="0"/>
        <pt x="960" y="117" on="0"/>
        <pt x="756" y="-20" on="0"/>
        <pt x="391" y="-20" on="0"/>
        <pt x="72" y="71" on="0"/>
        <pt x="72" y="130" on="1"/>
        <pt x="72" y="175" on="0"/>
        <pt x="139" y="182" on="1"/>
        <pt x="238" y="194" on="0"/>
        <pt x="327" y="258" on="0"/>
        <pt x="405" y="422" on="0"/>
      </contour>
      <contour>
        <pt x="648" y="1221" on="1"/>
        <pt x="648" y="1245" on="0"/>
        <pt x="619" y="1275" on="0"/>
        <pt x="575" y="1275" on="0"/>
        <pt x="525" y="1242" on="0"/>
        <pt x="498" y="1208" on="1"/>
        <pt x="431" y="1127" on="0"/>
        <pt x="431" y="841" on="0"/>
        <pt x="508" y="717" on="1"/>
        <pt x="648" y="1133" on="0"/>
      </contour>
      <contour>
        <pt x="800" y="1940" on="1"/>
        <pt x="916" y="2044" on="0"/>
        <pt x="1112" y="2044" on="1"/>
        <pt x="1223" y="2044" on="0"/>
        <pt x="1360" y="1954" on="0"/>
        <pt x="1360" y="1815" on="0"/>
        <pt x="1250" y="1714" on="0"/>
        <pt x="1083" y="1661" on="0"/>
        <pt x="882" y="1661" on="0"/>
        <pt x="744" y="1750" on="0"/>
        <pt x="744" y="1890" on="0"/>
      </contour>
    </TTGlyph>
    <TTGlyph name="Igrave" xMin="72" yMin="-20" xMax="1377" yMax="2050">
      <contour>
        <pt x="466" y="594" on="1"/>
        <pt x="223" y="744" on="0"/>
        <pt x="223" y="982" on="1"/>
        <pt x="223" y="1088" on="0"/>
        <pt x="329" y="1272" on="0"/>
        <pt x="503" y="1400" on="0"/>
        <pt x="614" y="1446" on="1"/>
        <pt x="833" y="1536" on="0"/>
        <pt x="1076" y="1536" on="1"/>
        <pt x="1227" y="1536" on="0"/>
        <pt x="1282" y="1472" on="1"/>
        <pt x="1330" y="1415" on="0"/>
        <pt x="1330" y="1232" on="0"/>
        <pt x="1243" y="939" on="0"/>
        <pt x="1056" y="416" on="0"/>
        <pt x="960" y="117" on="0"/>
        <pt x="756" y="-20" on="0"/>
        <pt x="391" y="-20" on="0"/>
        <pt x="72" y="71" on="0"/>
        <pt x="72" y="130" on="1"/>
        <pt x="72" y="175" on="0"/>
        <pt x="139" y="182" on="1"/>
        <pt x="238" y="194" on="0"/>
        <pt x="327" y="258" on="0"/>
        <pt x="405" y="422" on="0"/>
      </contour>
      <contour>
        <pt x="648" y="1221" on="1"/>
        <pt x="648" y="1245" on="0"/>
        <pt x="619" y="1275" on="0"/>
        <pt x="575" y="1275" on="0"/>
        <pt x="525" y="1242" on="0"/>
        <pt x="498" y="1208" on="1"/>
        <pt x="431" y="1127" on="0"/>
        <pt x="431" y="841" on="0"/>
        <pt x="508" y="717" on="1"/>
        <pt x="648" y="1133" on="0"/>
      </contour>
      <contour>
        <pt x="1377" y="1674" on="1"/>
        <pt x="1377" y="1636" on="0"/>
        <pt x="1297" y="1636" on="0"/>
        <pt x="1186" y="1670" on="1"/>
        <pt x="990" y="1729" on="0"/>
        <pt x="728" y="1755" on="1"/>
        <pt x="671" y="1760" on="0"/>
        <pt x="595" y="1838" on="0"/>
        <pt x="595" y="1969" on="0"/>
        <pt x="703" y="2050" on="0"/>
        <pt x="878" y="2050" on="0"/>
        <pt x="1098" y="1954" on="0"/>
        <pt x="1264" y="1826" on="0"/>
        <pt x="1377" y="1703" on="0"/>
      </contour>
    </TTGlyph>
    <TTGlyph name="Imacron" xMin="72" yMin="-20" xMax="1559" yMax="1949">
      <contour>
        <pt x="466" y="594" on="1"/>
        <pt x="223" y="744" on="0"/>
        <pt x="223" y="982" on="1"/>
        <pt x="223" y="1088" on="0"/>
        <pt x="329" y="1272" on="0"/>
        <pt x="503" y="1400" on="0"/>
        <pt x="614" y="1446" on="1"/>
        <pt x="833" y="1536" on="0"/>
        <pt x="1076" y="1536" on="1"/>
        <pt x="1227" y="1536" on="0"/>
        <pt x="1282" y="1472" on="1"/>
        <pt x="1330" y="1415" on="0"/>
        <pt x="1330" y="1232" on="0"/>
        <pt x="1243" y="939" on="0"/>
        <pt x="1056" y="416" on="0"/>
        <pt x="960" y="117" on="0"/>
        <pt x="756" y="-20" on="0"/>
        <pt x="391" y="-20" on="0"/>
        <pt x="72" y="71" on="0"/>
        <pt x="72" y="130" on="1"/>
        <pt x="72" y="175" on="0"/>
        <pt x="139" y="182" on="1"/>
        <pt x="238" y="194" on="0"/>
        <pt x="327" y="258" on="0"/>
        <pt x="405" y="422" on="0"/>
      </contour>
      <contour>
        <pt x="648" y="1221" on="1"/>
        <pt x="648" y="1245" on="0"/>
        <pt x="619" y="1275" on="0"/>
        <pt x="575" y="1275" on="0"/>
        <pt x="525" y="1242" on="0"/>
        <pt x="498" y="1208" on="1"/>
        <pt x="431" y="1127" on="0"/>
        <pt x="431" y="841" on="0"/>
        <pt x="508" y="717" on="1"/>
        <pt x="648" y="1133" on="0"/>
      </contour>
      <contour>
        <pt x="1057" y="1728" on="1"/>
        <pt x="655" y="1708" on="1"/>
        <pt x="637" y="1708" on="0"/>
        <pt x="610" y="1761" on="0"/>
        <pt x="610" y="1858" on="0"/>
        <pt x="670" y="1949" on="0"/>
        <pt x="705" y="1949" on="1"/>
        <pt x="1121" y="1929" on="1"/>
        <pt x="1524" y="1949" on="1"/>
        <pt x="1540" y="1949" on="0"/>
        <pt x="1559" y="1896" on="0"/>
        <pt x="1559" y="1799" on="0"/>
        <pt x="1500" y="1708" on="0"/>
        <pt x="1407" y="1708" on="0"/>
        <pt x="1137" y="1728" on="0"/>
      </contour>
    </TTGlyph>
    <TTGlyph name="Iogonek" xMin="72" yMin="-542" xMax="1330" yMax="1536">
      <contour>
        <pt x="139" y="182" on="1"/>
        <pt x="238" y="194" on="0"/>
        <pt x="327" y="258" on="0"/>
        <pt x="405" y="422" on="0"/>
        <pt x="466" y="594" on="1"/>
        <pt x="223" y="744" on="0"/>
        <pt x="223" y="982" on="1"/>
        <pt x="223" y="1088" on="0"/>
        <pt x="329" y="1272" on="0"/>
        <pt x="503" y="1400" on="0"/>
        <pt x="614" y="1446" on="1"/>
        <pt x="833" y="1536" on="0"/>
        <pt x="1076" y="1536" on="1"/>
        <pt x="1227" y="1536" on="0"/>
        <pt x="1282" y="1472" on="1"/>
        <pt x="1330" y="1415" on="0"/>
        <pt x="1330" y="1232" on="0"/>
        <pt x="1243" y="939" on="0"/>
        <pt x="1056" y="416" on="0"/>
        <pt x="960" y="117" on="0"/>
        <pt x="756" y="-20" on="0"/>
        <pt x="391" y="-20" on="0"/>
        <pt x="72" y="71" on="0"/>
        <pt x="72" y="130" on="1"/>
        <pt x="72" y="175" on="0"/>
      </contour>
      <contour>
        <pt x="648" y="1221" on="1"/>
        <pt x="648" y="1245" on="0"/>
        <pt x="619" y="1275" on="0"/>
        <pt x="575" y="1275" on="0"/>
        <pt x="525" y="1242" on="0"/>
        <pt x="498" y="1208" on="1"/>
        <pt x="431" y="1127" on="0"/>
        <pt x="431" y="841" on="0"/>
        <pt x="508" y="717" on="1"/>
        <pt x="648" y="1133" on="0"/>
      </contour>
      <contour>
        <pt x="684" y="-384" on="1"/>
        <pt x="787" y="-375" on="1"/>
        <pt x="830" y="-375" on="0"/>
        <pt x="830" y="-413" on="1"/>
        <pt x="830" y="-465" on="0"/>
        <pt x="590" y="-542" on="0"/>
        <pt x="289" y="-542" on="0"/>
        <pt x="151" y="-450" on="0"/>
        <pt x="151" y="-289" on="0"/>
        <pt x="337" y="-96" on="0"/>
        <pt x="610" y="53" on="0"/>
        <pt x="755" y="96" on="1"/>
        <pt x="755" y="20" on="1"/>
        <pt x="674" y="-20" on="0"/>
        <pt x="532" y="-186" on="0"/>
        <pt x="532" y="-267" on="1"/>
        <pt x="532" y="-384" on="0"/>
      </contour>
    </TTGlyph>
    <TTGlyph name="Itilde" xMin="72" yMin="-20" xMax="1676" yMax="2024">
      <contour>
        <pt x="466" y="594" on="1"/>
        <pt x="223" y="744" on="0"/>
        <pt x="223" y="982" on="1"/>
        <pt x="223" y="1088" on="0"/>
        <pt x="329" y="1272" on="0"/>
        <pt x="503" y="1400" on="0"/>
        <pt x="614" y="1446" on="1"/>
        <pt x="833" y="1536" on="0"/>
        <pt x="1076" y="1536" on="1"/>
        <pt x="1227" y="1536" on="0"/>
        <pt x="1282" y="1472" on="1"/>
        <pt x="1330" y="1415" on="0"/>
        <pt x="1330" y="1232" on="0"/>
        <pt x="1243" y="939" on="0"/>
        <pt x="1056" y="416" on="0"/>
        <pt x="960" y="117" on="0"/>
        <pt x="756" y="-20" on="0"/>
        <pt x="391" y="-20" on="0"/>
        <pt x="72" y="71" on="0"/>
        <pt x="72" y="130" on="1"/>
        <pt x="72" y="175" on="0"/>
        <pt x="139" y="182" on="1"/>
        <pt x="238" y="194" on="0"/>
        <pt x="327" y="258" on="0"/>
        <pt x="405" y="422" on="0"/>
      </contour>
      <contour>
        <pt x="648" y="1221" on="1"/>
        <pt x="648" y="1245" on="0"/>
        <pt x="619" y="1275" on="0"/>
        <pt x="575" y="1275" on="0"/>
        <pt x="525" y="1242" on="0"/>
        <pt x="498" y="1208" on="1"/>
        <pt x="431" y="1127" on="0"/>
        <pt x="431" y="841" on="0"/>
        <pt x="508" y="717" on="1"/>
        <pt x="648" y="1133" on="0"/>
      </contour>
      <contour>
        <pt x="639" y="1705" on="1"/>
        <pt x="570" y="1705" on="0"/>
        <pt x="570" y="1754" on="1"/>
        <pt x="570" y="1786" on="0"/>
        <pt x="621" y="1846" on="0"/>
        <pt x="645" y="1872" on="1"/>
        <pt x="784" y="2024" on="0"/>
        <pt x="959" y="2024" on="1"/>
        <pt x="1062" y="2024" on="0"/>
        <pt x="1296" y="1923" on="0"/>
        <pt x="1394" y="1923" on="0"/>
        <pt x="1576" y="1985" on="0"/>
        <pt x="1637" y="1985" on="0"/>
        <pt x="1676" y="1959" on="0"/>
        <pt x="1676" y="1898" on="0"/>
        <pt x="1601" y="1818" on="1"/>
        <pt x="1462" y="1665" on="0"/>
        <pt x="1286" y="1665" on="1"/>
        <pt x="1216" y="1665" on="0"/>
        <pt x="1065" y="1716" on="0"/>
        <pt x="931" y="1767" on="0"/>
        <pt x="852" y="1767" on="0"/>
        <pt x="670" y="1705" on="0"/>
      </contour>
    </TTGlyph>
    <TTGlyph name="J" xMin="-118" yMin="-510" xMax="1330" yMax="1536">
      <contour>
        <pt x="681" y="-340" on="1"/>
        <pt x="507" y="-510" on="0"/>
        <pt x="211" y="-510" on="1"/>
        <pt x="68" y="-510" on="0"/>
        <pt x="-118" y="-370" on="0"/>
        <pt x="-118" y="-129" on="0"/>
        <pt x="-32" y="65" on="0"/>
        <pt x="43" y="142" on="1"/>
        <pt x="187" y="290" on="0"/>
        <pt x="404" y="385" on="1"/>
        <pt x="428" y="460" on="0"/>
        <pt x="502" y="668" on="1"/>
        <pt x="650" y="1084" on="0"/>
        <pt x="650" y="1173" on="1"/>
        <pt x="650" y="1205" on="0"/>
        <pt x="628" y="1232" on="0"/>
        <pt x="545" y="1232" on="0"/>
        <pt x="378" y="1160" on="1"/>
        <pt x="331" y="1140" on="0"/>
        <pt x="240" y="1140" on="0"/>
        <pt x="240" y="1181" on="1"/>
        <pt x="240" y="1208" on="0"/>
        <pt x="273" y="1238" on="1"/>
        <pt x="415" y="1361" on="0"/>
        <pt x="855" y="1536" on="0"/>
        <pt x="1205" y="1536" on="0"/>
        <pt x="1330" y="1460" on="0"/>
        <pt x="1330" y="1270" on="0"/>
        <pt x="1218" y="893" on="0"/>
        <pt x="997" y="274" on="0"/>
        <pt x="907" y="1" on="0"/>
        <pt x="771" y="-252" on="0"/>
      </contour>
      <contour>
        <pt x="130" y="-367" on="1"/>
        <pt x="155" y="-367" on="0"/>
        <pt x="186" y="-286" on="1"/>
        <pt x="231" y="-166" on="0"/>
        <pt x="358" y="240" on="1"/>
        <pt x="242" y="142" on="0"/>
        <pt x="78" y="-117" on="0"/>
        <pt x="78" y="-367" on="0"/>
      </contour>
    </TTGlyph>
    <TTGlyph name="Jcircumflex" xMin="-118" yMin="-510" xMax="1584" yMax="2049">
      <contour>
        <pt x="681" y="-340" on="1"/>
        <pt x="507" y="-510" on="0"/>
        <pt x="211" y="-510" on="1"/>
        <pt x="68" y="-510" on="0"/>
        <pt x="-118" y="-370" on="0"/>
        <pt x="-118" y="-129" on="0"/>
        <pt x="-32" y="65" on="0"/>
        <pt x="43" y="142" on="1"/>
        <pt x="187" y="290" on="0"/>
        <pt x="404" y="385" on="1"/>
        <pt x="428" y="460" on="0"/>
        <pt x="502" y="668" on="1"/>
        <pt x="650" y="1084" on="0"/>
        <pt x="650" y="1173" on="1"/>
        <pt x="650" y="1205" on="0"/>
        <pt x="628" y="1232" on="0"/>
        <pt x="545" y="1232" on="0"/>
        <pt x="378" y="1160" on="1"/>
        <pt x="331" y="1140" on="0"/>
        <pt x="240" y="1140" on="0"/>
        <pt x="240" y="1181" on="1"/>
        <pt x="240" y="1208" on="0"/>
        <pt x="273" y="1238" on="1"/>
        <pt x="415" y="1361" on="0"/>
        <pt x="855" y="1536" on="0"/>
        <pt x="1205" y="1536" on="0"/>
        <pt x="1330" y="1460" on="0"/>
        <pt x="1330" y="1270" on="0"/>
        <pt x="1218" y="893" on="0"/>
        <pt x="997" y="274" on="0"/>
        <pt x="907" y="1" on="0"/>
        <pt x="771" y="-252" on="0"/>
      </contour>
      <contour>
        <pt x="130" y="-367" on="1"/>
        <pt x="155" y="-367" on="0"/>
        <pt x="186" y="-286" on="1"/>
        <pt x="231" y="-166" on="0"/>
        <pt x="358" y="240" on="1"/>
        <pt x="242" y="142" on="0"/>
        <pt x="78" y="-117" on="0"/>
        <pt x="78" y="-367" on="0"/>
      </contour>
      <contour>
        <pt x="1133" y="1782" on="1"/>
        <pt x="729" y="1627" on="0"/>
        <pt x="663" y="1627" on="1"/>
        <pt x="643" y="1627" on="0"/>
        <pt x="615" y="1651" on="0"/>
        <pt x="615" y="1672" on="1"/>
        <pt x="615" y="1714" on="0"/>
        <pt x="831" y="1881" on="0"/>
        <pt x="1031" y="2007" on="1"/>
        <pt x="1071" y="2032" on="0"/>
        <pt x="1130" y="2049" on="0"/>
        <pt x="1230" y="2049" on="0"/>
        <pt x="1290" y="2019" on="0"/>
        <pt x="1318" y="1991" on="1"/>
        <pt x="1449" y="1861" on="0"/>
        <pt x="1584" y="1700" on="0"/>
        <pt x="1584" y="1620" on="0"/>
        <pt x="1489" y="1620" on="0"/>
        <pt x="1407" y="1653" on="1"/>
        <pt x="1266" y="1710" on="0"/>
      </contour>
    </TTGlyph>
    <TTGlyph name="K" xMin="119" yMin="-40" xMax="2193" yMax="1556">
      <contour>
        <pt x="464" y="1227" on="1"/>
        <pt x="346" y="1203" on="1"/>
        <pt x="324" y="1203" on="0"/>
        <pt x="302" y="1215" on="0"/>
        <pt x="302" y="1260" on="0"/>
        <pt x="353" y="1324" on="0"/>
        <pt x="384" y="1346" on="1"/>
        <pt x="499" y="1428" on="0"/>
        <pt x="815" y="1556" on="0"/>
        <pt x="1070" y="1556" on="0"/>
        <pt x="1181" y="1466" on="0"/>
        <pt x="1181" y="1336" on="1"/>
        <pt x="1181" y="1188" on="0"/>
        <pt x="1035" y="854" on="1"/>
        <pt x="974" y="715" on="0"/>
        <pt x="914" y="578" on="1"/>
        <pt x="768" y="247" on="0"/>
        <pt x="768" y="121" on="1"/>
        <pt x="771" y="55" on="1"/>
        <pt x="771" y="24" on="0"/>
        <pt x="703" y="-12" on="0"/>
        <pt x="666" y="-12" on="1"/>
        <pt x="265" y="-18" on="1"/>
        <pt x="154" y="-18" on="0"/>
        <pt x="130" y="20" on="1"/>
        <pt x="119" y="39" on="0"/>
        <pt x="119" y="118" on="0"/>
        <pt x="148" y="245" on="0"/>
        <pt x="280" y="552" on="0"/>
        <pt x="346" y="686" on="1"/>
        <pt x="517" y="1035" on="0"/>
        <pt x="517" y="1135" on="1"/>
        <pt x="517" y="1187" on="0"/>
        <pt x="491" y="1227" on="0"/>
      </contour>
      <contour>
        <pt x="1740" y="1516" on="1"/>
        <pt x="2148" y="1539" on="1"/>
        <pt x="2193" y="1539" on="0"/>
        <pt x="2193" y="1461" on="0"/>
        <pt x="2091" y="1131" on="0"/>
        <pt x="1984" y="965" on="0"/>
        <pt x="1857" y="857" on="0"/>
        <pt x="1769" y="820" on="1"/>
        <pt x="1622" y="757" on="0"/>
        <pt x="1387" y="727" on="1"/>
        <pt x="1414" y="729" on="0"/>
        <pt x="1525" y="729" on="0"/>
        <pt x="1614" y="724" on="0"/>
        <pt x="1710" y="711" on="0"/>
        <pt x="1776" y="685" on="0"/>
        <pt x="1804" y="664" on="1"/>
        <pt x="1859" y="624" on="0"/>
        <pt x="1859" y="541" on="1"/>
        <pt x="1859" y="520" on="0"/>
        <pt x="1841" y="414" on="0"/>
        <pt x="1841" y="308" on="0"/>
        <pt x="1864" y="239" on="0"/>
        <pt x="1887" y="222" on="1"/>
        <pt x="1927" y="194" on="0"/>
        <pt x="2075" y="194" on="0"/>
        <pt x="2075" y="144" on="1"/>
        <pt x="2075" y="78" on="0"/>
        <pt x="1956" y="22" on="1"/>
        <pt x="1825" y="-40" on="0"/>
        <pt x="1544" y="-40" on="1"/>
        <pt x="1280" y="-40" on="0"/>
        <pt x="1206" y="58" on="1"/>
        <pt x="1174" y="102" on="0"/>
        <pt x="1174" y="246" on="0"/>
        <pt x="1251" y="528" on="0"/>
        <pt x="1251" y="599" on="0"/>
        <pt x="1230" y="652" on="0"/>
        <pt x="1197" y="680" on="0"/>
        <pt x="1156" y="697" on="0"/>
        <pt x="1115" y="705" on="0"/>
        <pt x="1098" y="708" on="1"/>
        <pt x="1061" y="716" on="0"/>
        <pt x="1061" y="736" on="1"/>
        <pt x="1061" y="780" on="0"/>
        <pt x="1124" y="804" on="1"/>
        <pt x="1373" y="892" on="0"/>
        <pt x="1488" y="1046" on="1"/>
        <pt x="1547" y="1125" on="0"/>
        <pt x="1618" y="1303" on="0"/>
        <pt x="1645" y="1429" on="1"/>
        <pt x="1663" y="1516" on="0"/>
      </contour>
    </TTGlyph>
    <TTGlyph name="Kcommaaccent" xMin="119" yMin="-600" xMax="2193" yMax="1556">
      <contour>
        <pt x="464" y="1227" on="1"/>
        <pt x="346" y="1203" on="1"/>
        <pt x="324" y="1203" on="0"/>
        <pt x="302" y="1215" on="0"/>
        <pt x="302" y="1260" on="0"/>
        <pt x="353" y="1324" on="0"/>
        <pt x="384" y="1346" on="1"/>
        <pt x="499" y="1428" on="0"/>
        <pt x="815" y="1556" on="0"/>
        <pt x="1070" y="1556" on="0"/>
        <pt x="1181" y="1466" on="0"/>
        <pt x="1181" y="1336" on="1"/>
        <pt x="1181" y="1188" on="0"/>
        <pt x="1035" y="854" on="1"/>
        <pt x="974" y="715" on="0"/>
        <pt x="914" y="578" on="1"/>
        <pt x="768" y="247" on="0"/>
        <pt x="768" y="121" on="1"/>
        <pt x="771" y="55" on="1"/>
        <pt x="771" y="24" on="0"/>
        <pt x="703" y="-12" on="0"/>
        <pt x="666" y="-12" on="1"/>
        <pt x="265" y="-18" on="1"/>
        <pt x="154" y="-18" on="0"/>
        <pt x="130" y="20" on="1"/>
        <pt x="119" y="39" on="0"/>
        <pt x="119" y="118" on="0"/>
        <pt x="148" y="245" on="0"/>
        <pt x="280" y="552" on="0"/>
        <pt x="346" y="686" on="1"/>
        <pt x="517" y="1035" on="0"/>
        <pt x="517" y="1135" on="1"/>
        <pt x="517" y="1187" on="0"/>
        <pt x="491" y="1227" on="0"/>
      </contour>
      <contour>
        <pt x="1740" y="1516" on="1"/>
        <pt x="2148" y="1539" on="1"/>
        <pt x="2193" y="1539" on="0"/>
        <pt x="2193" y="1461" on="0"/>
        <pt x="2091" y="1131" on="0"/>
        <pt x="1984" y="965" on="0"/>
        <pt x="1857" y="857" on="0"/>
        <pt x="1769" y="820" on="1"/>
        <pt x="1622" y="757" on="0"/>
        <pt x="1387" y="727" on="1"/>
        <pt x="1414" y="729" on="0"/>
        <pt x="1525" y="729" on="0"/>
        <pt x="1614" y="724" on="0"/>
        <pt x="1710" y="711" on="0"/>
        <pt x="1776" y="685" on="0"/>
        <pt x="1804" y="664" on="1"/>
        <pt x="1859" y="624" on="0"/>
        <pt x="1859" y="541" on="1"/>
        <pt x="1859" y="520" on="0"/>
        <pt x="1841" y="414" on="0"/>
        <pt x="1841" y="308" on="0"/>
        <pt x="1864" y="239" on="0"/>
        <pt x="1887" y="222" on="1"/>
        <pt x="1927" y="194" on="0"/>
        <pt x="2075" y="194" on="0"/>
        <pt x="2075" y="144" on="1"/>
        <pt x="2075" y="78" on="0"/>
        <pt x="1956" y="22" on="1"/>
        <pt x="1825" y="-40" on="0"/>
        <pt x="1544" y="-40" on="1"/>
        <pt x="1280" y="-40" on="0"/>
        <pt x="1206" y="58" on="1"/>
        <pt x="1174" y="102" on="0"/>
        <pt x="1174" y="246" on="0"/>
        <pt x="1251" y="528" on="0"/>
        <pt x="1251" y="599" on="0"/>
        <pt x="1230" y="652" on="0"/>
        <pt x="1197" y="680" on="0"/>
        <pt x="1156" y="697" on="0"/>
        <pt x="1115" y="705" on="0"/>
        <pt x="1098" y="708" on="1"/>
        <pt x="1061" y="716" on="0"/>
        <pt x="1061" y="736" on="1"/>
        <pt x="1061" y="780" on="0"/>
        <pt x="1124" y="804" on="1"/>
        <pt x="1373" y="892" on="0"/>
        <pt x="1488" y="1046" on="1"/>
        <pt x="1547" y="1125" on="0"/>
        <pt x="1618" y="1303" on="0"/>
        <pt x="1645" y="1429" on="1"/>
        <pt x="1663" y="1516" on="0"/>
      </contour>
      <contour>
        <pt x="967" y="-404" on="1"/>
        <pt x="925" y="-415" on="0"/>
        <pt x="841" y="-415" on="1"/>
        <pt x="574" y="-415" on="0"/>
        <pt x="574" y="-291" on="1"/>
        <pt x="574" y="-214" on="0"/>
        <pt x="810" y="-109" on="0"/>
        <pt x="991" y="-109" on="1"/>
        <pt x="1088" y="-109" on="0"/>
        <pt x="1150" y="-138" on="1"/>
        <pt x="1264" y="-190" on="0"/>
        <pt x="1264" y="-297" on="1"/>
        <pt x="1264" y="-373" on="0"/>
        <pt x="1172" y="-492" on="0"/>
        <pt x="1092" y="-528" on="1"/>
        <pt x="930" y="-600" on="0"/>
        <pt x="703" y="-600" on="1"/>
        <pt x="618" y="-600" on="0"/>
        <pt x="618" y="-518" on="0"/>
        <pt x="691" y="-498" on="1"/>
        <pt x="715" y="-491" on="0"/>
        <pt x="816" y="-467" on="0"/>
        <pt x="840" y="-460" on="1"/>
        <pt x="906" y="-440" on="0"/>
      </contour>
    </TTGlyph>
    <TTGlyph name="L" xMin="12" yMin="-20" xMax="1807" yMax="1556">
      <contour>
        <pt x="510" y="-8" on="1"/>
        <pt x="111" y="-18" on="1"/>
        <pt x="12" y="-18" on="0"/>
        <pt x="12" y="50" on="1"/>
        <pt x="12" y="81" on="0"/>
        <pt x="65" y="127" on="0"/>
        <pt x="151" y="186" on="0"/>
        <pt x="221" y="283" on="0"/>
        <pt x="306" y="514" on="0"/>
        <pt x="333" y="624" on="1"/>
        <pt x="419" y="973" on="0"/>
        <pt x="494" y="1184" on="0"/>
        <pt x="533" y="1281" on="0"/>
        <pt x="580" y="1363" on="0"/>
        <pt x="624" y="1425" on="0"/>
        <pt x="684" y="1474" on="0"/>
        <pt x="739" y="1507" on="0"/>
        <pt x="819" y="1532" on="0"/>
        <pt x="893" y="1546" on="0"/>
        <pt x="948" y="1550" on="1"/>
        <pt x="1031" y="1556" on="0"/>
        <pt x="1307" y="1556" on="0"/>
        <pt x="1441" y="1530" on="0"/>
        <pt x="1441" y="1488" on="1"/>
        <pt x="1441" y="1454" on="0"/>
        <pt x="1364" y="1407" on="1"/>
        <pt x="1278" y="1354" on="0"/>
        <pt x="1212" y="1235" on="1"/>
        <pt x="1141" y="1105" on="0"/>
        <pt x="1061" y="878" on="0"/>
        <pt x="1015" y="740" on="0"/>
        <pt x="949" y="538" on="0"/>
        <pt x="926" y="471" on="1"/>
        <pt x="832" y="202" on="0"/>
        <pt x="669" y="131" on="1"/>
        <pt x="921" y="144" on="0"/>
        <pt x="1086" y="220" on="1"/>
        <pt x="1176" y="261" on="0"/>
        <pt x="1305" y="333" on="0"/>
        <pt x="1385" y="404" on="1"/>
        <pt x="1490" y="498" on="0"/>
        <pt x="1654" y="669" on="0"/>
        <pt x="1661" y="676" on="1"/>
        <pt x="1687" y="703" on="0"/>
        <pt x="1761" y="703" on="0"/>
        <pt x="1807" y="667" on="0"/>
        <pt x="1807" y="638" on="1"/>
        <pt x="1807" y="523" on="0"/>
        <pt x="1733" y="285" on="1"/>
        <pt x="1707" y="203" on="0"/>
        <pt x="1655" y="99" on="0"/>
        <pt x="1614" y="58" on="1"/>
        <pt x="1536" y="-20" on="0"/>
        <pt x="1363" y="-20" on="1"/>
      </contour>
    </TTGlyph>
    <TTGlyph name="Lacute" xMin="12" yMin="-20" xMax="1807" yMax="2050">
      <contour>
        <pt x="510" y="-8" on="1"/>
        <pt x="111" y="-18" on="1"/>
        <pt x="12" y="-18" on="0"/>
        <pt x="12" y="50" on="1"/>
        <pt x="12" y="81" on="0"/>
        <pt x="65" y="127" on="0"/>
        <pt x="151" y="186" on="0"/>
        <pt x="221" y="283" on="0"/>
        <pt x="306" y="514" on="0"/>
        <pt x="333" y="624" on="1"/>
        <pt x="419" y="973" on="0"/>
        <pt x="494" y="1184" on="0"/>
        <pt x="533" y="1281" on="0"/>
        <pt x="580" y="1363" on="0"/>
        <pt x="624" y="1425" on="0"/>
        <pt x="684" y="1474" on="0"/>
        <pt x="739" y="1507" on="0"/>
        <pt x="819" y="1532" on="0"/>
        <pt x="893" y="1546" on="0"/>
        <pt x="948" y="1550" on="1"/>
        <pt x="1031" y="1556" on="0"/>
        <pt x="1307" y="1556" on="0"/>
        <pt x="1441" y="1530" on="0"/>
        <pt x="1441" y="1488" on="1"/>
        <pt x="1441" y="1454" on="0"/>
        <pt x="1364" y="1407" on="1"/>
        <pt x="1278" y="1354" on="0"/>
        <pt x="1212" y="1235" on="1"/>
        <pt x="1141" y="1105" on="0"/>
        <pt x="1061" y="878" on="0"/>
        <pt x="1015" y="740" on="0"/>
        <pt x="949" y="538" on="0"/>
        <pt x="926" y="471" on="1"/>
        <pt x="832" y="202" on="0"/>
        <pt x="669" y="131" on="1"/>
        <pt x="921" y="144" on="0"/>
        <pt x="1086" y="220" on="1"/>
        <pt x="1176" y="261" on="0"/>
        <pt x="1305" y="333" on="0"/>
        <pt x="1385" y="404" on="1"/>
        <pt x="1490" y="498" on="0"/>
        <pt x="1654" y="669" on="0"/>
        <pt x="1661" y="676" on="1"/>
        <pt x="1687" y="703" on="0"/>
        <pt x="1761" y="703" on="0"/>
        <pt x="1807" y="667" on="0"/>
        <pt x="1807" y="638" on="1"/>
        <pt x="1807" y="523" on="0"/>
        <pt x="1733" y="285" on="1"/>
        <pt x="1707" y="203" on="0"/>
        <pt x="1655" y="99" on="0"/>
        <pt x="1614" y="58" on="1"/>
        <pt x="1536" y="-20" on="0"/>
        <pt x="1363" y="-20" on="1"/>
      </contour>
      <contour>
        <pt x="1265" y="2013" on="1"/>
        <pt x="1363" y="2050" on="0"/>
        <pt x="1524" y="2050" on="0"/>
        <pt x="1655" y="1951" on="0"/>
        <pt x="1655" y="1886" on="1"/>
        <pt x="1655" y="1847" on="0"/>
        <pt x="1601" y="1780" on="0"/>
        <pt x="1542" y="1772" on="1"/>
        <pt x="1533" y="1771" on="0"/>
        <pt x="1417" y="1755" on="0"/>
        <pt x="1356" y="1747" on="0"/>
        <pt x="1233" y="1729" on="0"/>
        <pt x="1144" y="1713" on="0"/>
        <pt x="1033" y="1691" on="0"/>
        <pt x="934" y="1667" on="0"/>
        <pt x="850" y="1641" on="0"/>
        <pt x="784" y="1641" on="0"/>
        <pt x="784" y="1680" on="1"/>
        <pt x="784" y="1737" on="0"/>
        <pt x="1074" y="1941" on="0"/>
      </contour>
    </TTGlyph>
    <TTGlyph name="Lcaron" xMin="12" yMin="-20" xMax="1807" yMax="2049">
      <contour>
        <pt x="510" y="-8" on="1"/>
        <pt x="111" y="-18" on="1"/>
        <pt x="12" y="-18" on="0"/>
        <pt x="12" y="50" on="1"/>
        <pt x="12" y="81" on="0"/>
        <pt x="65" y="127" on="0"/>
        <pt x="151" y="186" on="0"/>
        <pt x="221" y="283" on="0"/>
        <pt x="306" y="514" on="0"/>
        <pt x="333" y="624" on="1"/>
        <pt x="419" y="973" on="0"/>
        <pt x="494" y="1184" on="0"/>
        <pt x="533" y="1281" on="0"/>
        <pt x="580" y="1363" on="0"/>
        <pt x="624" y="1425" on="0"/>
        <pt x="684" y="1474" on="0"/>
        <pt x="739" y="1507" on="0"/>
        <pt x="819" y="1532" on="0"/>
        <pt x="893" y="1546" on="0"/>
        <pt x="948" y="1550" on="1"/>
        <pt x="1031" y="1556" on="0"/>
        <pt x="1307" y="1556" on="0"/>
        <pt x="1441" y="1530" on="0"/>
        <pt x="1441" y="1488" on="1"/>
        <pt x="1441" y="1454" on="0"/>
        <pt x="1364" y="1407" on="1"/>
        <pt x="1278" y="1354" on="0"/>
        <pt x="1212" y="1235" on="1"/>
        <pt x="1141" y="1105" on="0"/>
        <pt x="1061" y="878" on="0"/>
        <pt x="1015" y="740" on="0"/>
        <pt x="949" y="538" on="0"/>
        <pt x="926" y="471" on="1"/>
        <pt x="832" y="202" on="0"/>
        <pt x="669" y="131" on="1"/>
        <pt x="921" y="144" on="0"/>
        <pt x="1086" y="220" on="1"/>
        <pt x="1176" y="261" on="0"/>
        <pt x="1305" y="333" on="0"/>
        <pt x="1385" y="404" on="1"/>
        <pt x="1490" y="498" on="0"/>
        <pt x="1654" y="669" on="0"/>
        <pt x="1661" y="676" on="1"/>
        <pt x="1687" y="703" on="0"/>
        <pt x="1761" y="703" on="0"/>
        <pt x="1807" y="667" on="0"/>
        <pt x="1807" y="638" on="1"/>
        <pt x="1807" y="523" on="0"/>
        <pt x="1733" y="285" on="1"/>
        <pt x="1707" y="203" on="0"/>
        <pt x="1655" y="99" on="0"/>
        <pt x="1614" y="58" on="1"/>
        <pt x="1536" y="-20" on="0"/>
        <pt x="1363" y="-20" on="1"/>
      </contour>
      <contour>
        <pt x="1129" y="1887" on="1"/>
        <pt x="1533" y="2042" on="0"/>
        <pt x="1599" y="2042" on="1"/>
        <pt x="1619" y="2042" on="0"/>
        <pt x="1647" y="2018" on="0"/>
        <pt x="1647" y="1997" on="1"/>
        <pt x="1647" y="1955" on="0"/>
        <pt x="1431" y="1788" on="0"/>
        <pt x="1231" y="1662" on="1"/>
        <pt x="1191" y="1637" on="0"/>
        <pt x="1132" y="1620" on="0"/>
        <pt x="1032" y="1620" on="0"/>
        <pt x="972" y="1650" on="0"/>
        <pt x="944" y="1678" on="1"/>
        <pt x="811" y="1810" on="0"/>
        <pt x="678" y="1969" on="0"/>
        <pt x="678" y="2049" on="0"/>
        <pt x="773" y="2049" on="0"/>
        <pt x="855" y="2016" on="1"/>
        <pt x="996" y="1959" on="0"/>
      </contour>
    </TTGlyph>
    <TTGlyph name="Lcommaaccent" xMin="12" yMin="-600" xMax="1807" yMax="1556">
      <contour>
        <pt x="510" y="-8" on="1"/>
        <pt x="111" y="-18" on="1"/>
        <pt x="12" y="-18" on="0"/>
        <pt x="12" y="50" on="1"/>
        <pt x="12" y="81" on="0"/>
        <pt x="65" y="127" on="0"/>
        <pt x="151" y="186" on="0"/>
        <pt x="221" y="283" on="0"/>
        <pt x="306" y="514" on="0"/>
        <pt x="333" y="624" on="1"/>
        <pt x="419" y="973" on="0"/>
        <pt x="494" y="1184" on="0"/>
        <pt x="533" y="1281" on="0"/>
        <pt x="580" y="1363" on="0"/>
        <pt x="624" y="1425" on="0"/>
        <pt x="684" y="1474" on="0"/>
        <pt x="739" y="1507" on="0"/>
        <pt x="819" y="1532" on="0"/>
        <pt x="893" y="1546" on="0"/>
        <pt x="948" y="1550" on="1"/>
        <pt x="1031" y="1556" on="0"/>
        <pt x="1307" y="1556" on="0"/>
        <pt x="1441" y="1530" on="0"/>
        <pt x="1441" y="1488" on="1"/>
        <pt x="1441" y="1454" on="0"/>
        <pt x="1364" y="1407" on="1"/>
        <pt x="1278" y="1354" on="0"/>
        <pt x="1212" y="1235" on="1"/>
        <pt x="1141" y="1105" on="0"/>
        <pt x="1061" y="878" on="0"/>
        <pt x="1015" y="740" on="0"/>
        <pt x="949" y="538" on="0"/>
        <pt x="926" y="471" on="1"/>
        <pt x="832" y="202" on="0"/>
        <pt x="669" y="131" on="1"/>
        <pt x="921" y="144" on="0"/>
        <pt x="1086" y="220" on="1"/>
        <pt x="1176" y="261" on="0"/>
        <pt x="1305" y="333" on="0"/>
        <pt x="1385" y="404" on="1"/>
        <pt x="1490" y="498" on="0"/>
        <pt x="1654" y="669" on="0"/>
        <pt x="1661" y="676" on="1"/>
        <pt x="1687" y="703" on="0"/>
        <pt x="1761" y="703" on="0"/>
        <pt x="1807" y="667" on="0"/>
        <pt x="1807" y="638" on="1"/>
        <pt x="1807" y="523" on="0"/>
        <pt x="1733" y="285" on="1"/>
        <pt x="1707" y="203" on="0"/>
        <pt x="1655" y="99" on="0"/>
        <pt x="1614" y="58" on="1"/>
        <pt x="1536" y="-20" on="0"/>
        <pt x="1363" y="-20" on="1"/>
      </contour>
      <contour>
        <pt x="874" y="-404" on="1"/>
        <pt x="832" y="-415" on="0"/>
        <pt x="748" y="-415" on="1"/>
        <pt x="481" y="-415" on="0"/>
        <pt x="481" y="-291" on="1"/>
        <pt x="481" y="-214" on="0"/>
        <pt x="717" y="-109" on="0"/>
        <pt x="898" y="-109" on="1"/>
        <pt x="995" y="-109" on="0"/>
        <pt x="1057" y="-138" on="1"/>
        <pt x="1171" y="-190" on="0"/>
        <pt x="1171" y="-297" on="1"/>
        <pt x="1171" y="-373" on="0"/>
        <pt x="1079" y="-492" on="0"/>
        <pt x="1000" y="-528" on="1"/>
        <pt x="837" y="-600" on="0"/>
        <pt x="610" y="-600" on="1"/>
        <pt x="525" y="-600" on="0"/>
        <pt x="525" y="-518" on="0"/>
        <pt x="598" y="-498" on="1"/>
        <pt x="622" y="-491" on="0"/>
        <pt x="723" y="-467" on="0"/>
        <pt x="746" y="-460" on="1"/>
        <pt x="813" y="-440" on="0"/>
      </contour>
    </TTGlyph>
    <TTGlyph name="Ldot" xMin="12" yMin="-20" xMax="2064" yMax="1556">
      <component glyphName="L" x="0" y="0" flags="0x204"/>
      <component glyphName="dotaccent" x="1152" y="-385" flags="0x4"/>
    </TTGlyph>
    <TTGlyph name="Lslash" xMin="12" yMin="-20" xMax="1807" yMax="1556">
      <contour>
        <pt x="1385" y="908" on="1"/>
        <pt x="1405" y="908" on="0"/>
        <pt x="1433" y="860" on="0"/>
        <pt x="1433" y="767" on="0"/>
        <pt x="1390" y="706" on="0"/>
        <pt x="1301" y="691" on="0"/>
        <pt x="763" y="615" on="0"/>
        <pt x="609" y="589" on="0"/>
        <pt x="176" y="503" on="0"/>
        <pt x="122" y="494" on="1"/>
        <pt x="98" y="494" on="0"/>
        <pt x="63" y="535" on="0"/>
        <pt x="63" y="633" on="0"/>
        <pt x="108" y="696" on="0"/>
        <pt x="187" y="709" on="0"/>
        <pt x="655" y="760" on="0"/>
        <pt x="793" y="783" on="0"/>
        <pt x="1334" y="900" on="0"/>
      </contour>
      <contour>
        <pt x="510" y="-8" on="1"/>
        <pt x="111" y="-18" on="1"/>
        <pt x="12" y="-18" on="0"/>
        <pt x="12" y="50" on="1"/>
        <pt x="12" y="81" on="0"/>
        <pt x="65" y="127" on="0"/>
        <pt x="151" y="186" on="0"/>
        <pt x="221" y="283" on="0"/>
        <pt x="306" y="514" on="0"/>
        <pt x="333" y="624" on="1"/>
        <pt x="419" y="973" on="0"/>
        <pt x="494" y="1184" on="0"/>
        <pt x="533" y="1281" on="0"/>
        <pt x="580" y="1363" on="0"/>
        <pt x="624" y="1425" on="0"/>
        <pt x="684" y="1474" on="0"/>
        <pt x="739" y="1507" on="0"/>
        <pt x="819" y="1532" on="0"/>
        <pt x="893" y="1546" on="0"/>
        <pt x="948" y="1550" on="1"/>
        <pt x="1031" y="1556" on="0"/>
        <pt x="1307" y="1556" on="0"/>
        <pt x="1441" y="1530" on="0"/>
        <pt x="1441" y="1488" on="1"/>
        <pt x="1441" y="1454" on="0"/>
        <pt x="1364" y="1407" on="1"/>
        <pt x="1278" y="1354" on="0"/>
        <pt x="1212" y="1235" on="1"/>
        <pt x="1141" y="1105" on="0"/>
        <pt x="1061" y="878" on="0"/>
        <pt x="1015" y="740" on="0"/>
        <pt x="949" y="538" on="0"/>
        <pt x="926" y="471" on="1"/>
        <pt x="832" y="202" on="0"/>
        <pt x="669" y="131" on="1"/>
        <pt x="921" y="144" on="0"/>
        <pt x="1086" y="220" on="1"/>
        <pt x="1176" y="261" on="0"/>
        <pt x="1305" y="333" on="0"/>
        <pt x="1385" y="404" on="1"/>
        <pt x="1490" y="498" on="0"/>
        <pt x="1654" y="669" on="0"/>
        <pt x="1661" y="676" on="1"/>
        <pt x="1687" y="703" on="0"/>
        <pt x="1761" y="703" on="0"/>
        <pt x="1807" y="667" on="0"/>
        <pt x="1807" y="638" on="1"/>
        <pt x="1807" y="523" on="0"/>
        <pt x="1733" y="285" on="1"/>
        <pt x="1707" y="203" on="0"/>
        <pt x="1655" y="99" on="0"/>
        <pt x="1614" y="58" on="1"/>
        <pt x="1536" y="-20" on="0"/>
        <pt x="1363" y="-20" on="1"/>
        <pt x="1363" y="-20" on="0"/>
      </contour>
    </TTGlyph>
    <TTGlyph name="M" xMin="129" yMin="-40" xMax="2995" yMax="1577">
      <contour>
        <pt x="444" y="1227" on="1"/>
        <pt x="326" y="1203" on="1"/>
        <pt x="304" y="1203" on="0"/>
        <pt x="282" y="1215" on="0"/>
        <pt x="282" y="1238" on="1"/>
        <pt x="282" y="1274" on="0"/>
        <pt x="462" y="1431" on="0"/>
        <pt x="788" y="1556" on="0"/>
        <pt x="1039" y="1556" on="0"/>
        <pt x="1131" y="1453" on="0"/>
        <pt x="1131" y="1336" on="1"/>
        <pt x="1131" y="1321" on="0"/>
        <pt x="1127" y="1285" on="1"/>
        <pt x="1490" y="1577" on="0"/>
        <pt x="1794" y="1577" on="1"/>
        <pt x="1937" y="1577" on="0"/>
        <pt x="2085" y="1447" on="0"/>
        <pt x="2085" y="1328" on="1"/>
        <pt x="2085" y="1319" on="1"/>
        <pt x="2416" y="1577" on="0"/>
        <pt x="2677" y="1577" on="1"/>
        <pt x="2825" y="1577" on="0"/>
        <pt x="2995" y="1438" on="0"/>
        <pt x="2995" y="1203" on="0"/>
        <pt x="2892" y="899" on="0"/>
        <pt x="2831" y="779" on="1"/>
        <pt x="2667" y="456" on="0"/>
        <pt x="2667" y="351" on="1"/>
        <pt x="2667" y="284" on="0"/>
        <pt x="2747" y="207" on="0"/>
        <pt x="2835" y="192" on="0"/>
        <pt x="2862" y="185" on="0"/>
        <pt x="2879" y="178" on="1"/>
        <pt x="2911" y="166" on="0"/>
        <pt x="2911" y="137" on="1"/>
        <pt x="2911" y="66" on="0"/>
        <pt x="2602" y="-40" on="0"/>
        <pt x="2376" y="-40" on="1"/>
        <pt x="2076" y="-40" on="0"/>
        <pt x="2076" y="183" on="1"/>
        <pt x="2076" y="282" on="0"/>
        <pt x="2176" y="579" on="0"/>
        <pt x="2236" y="706" on="1"/>
        <pt x="2395" y="1045" on="0"/>
        <pt x="2395" y="1159" on="1"/>
        <pt x="2395" y="1201" on="0"/>
        <pt x="2346" y="1253" on="0"/>
        <pt x="2294" y="1253" on="1"/>
        <pt x="2203" y="1253" on="0"/>
        <pt x="2063" y="1181" on="1"/>
        <pt x="2024" y="1029" on="0"/>
        <pt x="1800" y="496" on="0"/>
        <pt x="1704" y="179" on="0"/>
        <pt x="1698" y="65" on="1"/>
        <pt x="1696" y="32" on="0"/>
        <pt x="1663" y="-12" on="0"/>
        <pt x="1637" y="-12" on="1"/>
        <pt x="1231" y="-18" on="1"/>
        <pt x="1124" y="-18" on="0"/>
        <pt x="1100" y="18" on="1"/>
        <pt x="1089" y="35" on="0"/>
        <pt x="1089" y="101" on="0"/>
        <pt x="1135" y="293" on="0"/>
        <pt x="1268" y="636" on="0"/>
        <pt x="1328" y="763" on="1"/>
        <pt x="1478" y="1084" on="0"/>
        <pt x="1478" y="1163" on="1"/>
        <pt x="1478" y="1254" on="0"/>
        <pt x="1258" y="1254" on="0"/>
        <pt x="1104" y="1168" on="1"/>
        <pt x="1070" y="1039" on="0"/>
        <pt x="885" y="586" on="0"/>
        <pt x="748" y="214" on="0"/>
        <pt x="748" y="121" on="1"/>
        <pt x="751" y="55" on="1"/>
        <pt x="751" y="24" on="0"/>
        <pt x="683" y="-12" on="0"/>
        <pt x="646" y="-12" on="1"/>
        <pt x="275" y="-18" on="1"/>
        <pt x="164" y="-18" on="0"/>
        <pt x="140" y="20" on="1"/>
        <pt x="129" y="39" on="0"/>
        <pt x="129" y="118" on="0"/>
        <pt x="163" y="266" on="0"/>
        <pt x="346" y="697" on="0"/>
        <pt x="497" y="1067" on="0"/>
        <pt x="497" y="1187" on="0"/>
        <pt x="471" y="1227" on="0"/>
      </contour>
    </TTGlyph>
    <TTGlyph name="N" xMin="129" yMin="-40" xMax="2140" yMax="1577">
      <contour>
        <pt x="444" y="1227" on="1"/>
        <pt x="326" y="1203" on="1"/>
        <pt x="304" y="1203" on="0"/>
        <pt x="282" y="1215" on="0"/>
        <pt x="282" y="1234" on="1"/>
        <pt x="282" y="1280" on="0"/>
        <pt x="468" y="1430" on="0"/>
        <pt x="791" y="1556" on="0"/>
        <pt x="1050" y="1556" on="0"/>
        <pt x="1161" y="1466" on="0"/>
        <pt x="1161" y="1336" on="1"/>
        <pt x="1158" y="1291" on="1"/>
        <pt x="1357" y="1445" on="0"/>
        <pt x="1673" y="1577" on="0"/>
        <pt x="1976" y="1577" on="0"/>
        <pt x="2140" y="1450" on="0"/>
        <pt x="2140" y="1330" on="1"/>
        <pt x="2140" y="1207" on="0"/>
        <pt x="2024" y="936" on="1"/>
        <pt x="1976" y="824" on="0"/>
        <pt x="1928" y="714" on="1"/>
        <pt x="1812" y="446" on="0"/>
        <pt x="1812" y="365" on="1"/>
        <pt x="1812" y="221" on="0"/>
        <pt x="1955" y="196" on="1"/>
        <pt x="2032" y="183" on="0"/>
        <pt x="2056" y="152" on="0"/>
        <pt x="2056" y="137" on="1"/>
        <pt x="2056" y="66" on="0"/>
        <pt x="1747" y="-40" on="0"/>
        <pt x="1556" y="-40" on="1"/>
        <pt x="1180" y="-40" on="0"/>
        <pt x="1180" y="183" on="1"/>
        <pt x="1180" y="339" on="0"/>
        <pt x="1288" y="594" on="1"/>
        <pt x="1333" y="701" on="0"/>
        <pt x="1378" y="803" on="1"/>
        <pt x="1486" y="1048" on="0"/>
        <pt x="1486" y="1243" on="0"/>
        <pt x="1335" y="1243" on="1"/>
        <pt x="1247" y="1243" on="0"/>
        <pt x="1137" y="1181" on="1"/>
        <pt x="1088" y="988" on="0"/>
        <pt x="926" y="607" on="1"/>
        <pt x="778" y="261" on="0"/>
        <pt x="778" y="121" on="1"/>
        <pt x="778" y="121" on="0"/>
        <pt x="781" y="55" on="1"/>
        <pt x="781" y="24" on="0"/>
        <pt x="713" y="-12" on="0"/>
        <pt x="676" y="-12" on="1"/>
        <pt x="275" y="-18" on="1"/>
        <pt x="164" y="-18" on="0"/>
        <pt x="140" y="20" on="1"/>
        <pt x="129" y="39" on="0"/>
        <pt x="129" y="118" on="0"/>
        <pt x="163" y="265" on="0"/>
        <pt x="346" y="696" on="0"/>
        <pt x="497" y="1068" on="0"/>
        <pt x="497" y="1187" on="0"/>
        <pt x="471" y="1227" on="0"/>
      </contour>
    </TTGlyph>
    <TTGlyph name="Nacute" xMin="129" yMin="-40" xMax="2140" yMax="2050">
      <contour>
        <pt x="444" y="1227" on="1"/>
        <pt x="326" y="1203" on="1"/>
        <pt x="304" y="1203" on="0"/>
        <pt x="282" y="1215" on="0"/>
        <pt x="282" y="1234" on="1"/>
        <pt x="282" y="1280" on="0"/>
        <pt x="468" y="1430" on="0"/>
        <pt x="791" y="1556" on="0"/>
        <pt x="1050" y="1556" on="0"/>
        <pt x="1161" y="1466" on="0"/>
        <pt x="1161" y="1336" on="1"/>
        <pt x="1158" y="1291" on="1"/>
        <pt x="1357" y="1445" on="0"/>
        <pt x="1673" y="1577" on="0"/>
        <pt x="1976" y="1577" on="0"/>
        <pt x="2140" y="1450" on="0"/>
        <pt x="2140" y="1330" on="1"/>
        <pt x="2140" y="1207" on="0"/>
        <pt x="2024" y="936" on="1"/>
        <pt x="1976" y="824" on="0"/>
        <pt x="1928" y="714" on="1"/>
        <pt x="1812" y="446" on="0"/>
        <pt x="1812" y="365" on="1"/>
        <pt x="1812" y="221" on="0"/>
        <pt x="1955" y="196" on="1"/>
        <pt x="2032" y="183" on="0"/>
        <pt x="2056" y="152" on="0"/>
        <pt x="2056" y="137" on="1"/>
        <pt x="2056" y="66" on="0"/>
        <pt x="1747" y="-40" on="0"/>
        <pt x="1556" y="-40" on="1"/>
        <pt x="1180" y="-40" on="0"/>
        <pt x="1180" y="183" on="1"/>
        <pt x="1180" y="339" on="0"/>
        <pt x="1288" y="594" on="1"/>
        <pt x="1333" y="701" on="0"/>
        <pt x="1378" y="803" on="1"/>
        <pt x="1486" y="1048" on="0"/>
        <pt x="1486" y="1243" on="0"/>
        <pt x="1335" y="1243" on="1"/>
        <pt x="1247" y="1243" on="0"/>
        <pt x="1137" y="1181" on="1"/>
        <pt x="1088" y="988" on="0"/>
        <pt x="926" y="607" on="1"/>
        <pt x="778" y="261" on="0"/>
        <pt x="778" y="121" on="1"/>
        <pt x="778" y="121" on="0"/>
        <pt x="781" y="55" on="1"/>
        <pt x="781" y="24" on="0"/>
        <pt x="713" y="-12" on="0"/>
        <pt x="676" y="-12" on="1"/>
        <pt x="275" y="-18" on="1"/>
        <pt x="164" y="-18" on="0"/>
        <pt x="140" y="20" on="1"/>
        <pt x="129" y="39" on="0"/>
        <pt x="129" y="118" on="0"/>
        <pt x="163" y="265" on="0"/>
        <pt x="346" y="696" on="0"/>
        <pt x="497" y="1068" on="0"/>
        <pt x="497" y="1187" on="0"/>
        <pt x="471" y="1227" on="0"/>
      </contour>
      <contour>
        <pt x="1667" y="2013" on="1"/>
        <pt x="1765" y="2050" on="0"/>
        <pt x="1926" y="2050" on="0"/>
        <pt x="2057" y="1951" on="0"/>
        <pt x="2057" y="1886" on="1"/>
        <pt x="2057" y="1847" on="0"/>
        <pt x="2003" y="1780" on="0"/>
        <pt x="1944" y="1772" on="1"/>
        <pt x="1935" y="1771" on="0"/>
        <pt x="1819" y="1755" on="0"/>
        <pt x="1758" y="1747" on="0"/>
        <pt x="1635" y="1729" on="0"/>
        <pt x="1546" y="1713" on="0"/>
        <pt x="1435" y="1691" on="0"/>
        <pt x="1336" y="1667" on="0"/>
        <pt x="1252" y="1641" on="0"/>
        <pt x="1186" y="1641" on="0"/>
        <pt x="1186" y="1680" on="1"/>
        <pt x="1186" y="1737" on="0"/>
        <pt x="1476" y="1941" on="0"/>
      </contour>
    </TTGlyph>
    <TTGlyph name="Ncaron" xMin="129" yMin="-40" xMax="2140" yMax="2049">
      <contour>
        <pt x="444" y="1227" on="1"/>
        <pt x="326" y="1203" on="1"/>
        <pt x="304" y="1203" on="0"/>
        <pt x="282" y="1215" on="0"/>
        <pt x="282" y="1234" on="1"/>
        <pt x="282" y="1280" on="0"/>
        <pt x="468" y="1430" on="0"/>
        <pt x="791" y="1556" on="0"/>
        <pt x="1050" y="1556" on="0"/>
        <pt x="1161" y="1466" on="0"/>
        <pt x="1161" y="1336" on="1"/>
        <pt x="1158" y="1291" on="1"/>
        <pt x="1357" y="1445" on="0"/>
        <pt x="1673" y="1577" on="0"/>
        <pt x="1976" y="1577" on="0"/>
        <pt x="2140" y="1450" on="0"/>
        <pt x="2140" y="1330" on="1"/>
        <pt x="2140" y="1207" on="0"/>
        <pt x="2024" y="936" on="1"/>
        <pt x="1976" y="824" on="0"/>
        <pt x="1928" y="714" on="1"/>
        <pt x="1812" y="446" on="0"/>
        <pt x="1812" y="365" on="1"/>
        <pt x="1812" y="221" on="0"/>
        <pt x="1955" y="196" on="1"/>
        <pt x="2032" y="183" on="0"/>
        <pt x="2056" y="152" on="0"/>
        <pt x="2056" y="137" on="1"/>
        <pt x="2056" y="66" on="0"/>
        <pt x="1747" y="-40" on="0"/>
        <pt x="1556" y="-40" on="1"/>
        <pt x="1180" y="-40" on="0"/>
        <pt x="1180" y="183" on="1"/>
        <pt x="1180" y="339" on="0"/>
        <pt x="1288" y="594" on="1"/>
        <pt x="1333" y="701" on="0"/>
        <pt x="1378" y="803" on="1"/>
        <pt x="1486" y="1048" on="0"/>
        <pt x="1486" y="1243" on="0"/>
        <pt x="1335" y="1243" on="1"/>
        <pt x="1247" y="1243" on="0"/>
        <pt x="1137" y="1181" on="1"/>
        <pt x="1088" y="988" on="0"/>
        <pt x="926" y="607" on="1"/>
        <pt x="778" y="261" on="0"/>
        <pt x="778" y="121" on="1"/>
        <pt x="778" y="121" on="0"/>
        <pt x="781" y="55" on="1"/>
        <pt x="781" y="24" on="0"/>
        <pt x="713" y="-12" on="0"/>
        <pt x="676" y="-12" on="1"/>
        <pt x="275" y="-18" on="1"/>
        <pt x="164" y="-18" on="0"/>
        <pt x="140" y="20" on="1"/>
        <pt x="129" y="39" on="0"/>
        <pt x="129" y="118" on="0"/>
        <pt x="163" y="265" on="0"/>
        <pt x="346" y="696" on="0"/>
        <pt x="497" y="1068" on="0"/>
        <pt x="497" y="1187" on="0"/>
        <pt x="471" y="1227" on="0"/>
      </contour>
      <contour>
        <pt x="1426" y="1887" on="1"/>
        <pt x="1830" y="2042" on="0"/>
        <pt x="1896" y="2042" on="1"/>
        <pt x="1916" y="2042" on="0"/>
        <pt x="1944" y="2018" on="0"/>
        <pt x="1944" y="1997" on="1"/>
        <pt x="1944" y="1955" on="0"/>
        <pt x="1728" y="1788" on="0"/>
        <pt x="1528" y="1662" on="1"/>
        <pt x="1488" y="1637" on="0"/>
        <pt x="1429" y="1620" on="0"/>
        <pt x="1329" y="1620" on="0"/>
        <pt x="1269" y="1650" on="0"/>
        <pt x="1241" y="1678" on="1"/>
        <pt x="1108" y="1810" on="0"/>
        <pt x="975" y="1969" on="0"/>
        <pt x="975" y="2049" on="0"/>
        <pt x="1070" y="2049" on="0"/>
        <pt x="1152" y="2016" on="1"/>
        <pt x="1293" y="1959" on="0"/>
      </contour>
    </TTGlyph>
    <TTGlyph name="Ncommaaccent" xMin="129" yMin="-600" xMax="2140" yMax="1577">
      <contour>
        <pt x="444" y="1227" on="1"/>
        <pt x="326" y="1203" on="1"/>
        <pt x="304" y="1203" on="0"/>
        <pt x="282" y="1215" on="0"/>
        <pt x="282" y="1234" on="1"/>
        <pt x="282" y="1280" on="0"/>
        <pt x="468" y="1430" on="0"/>
        <pt x="791" y="1556" on="0"/>
        <pt x="1050" y="1556" on="0"/>
        <pt x="1161" y="1466" on="0"/>
        <pt x="1161" y="1336" on="1"/>
        <pt x="1158" y="1291" on="1"/>
        <pt x="1357" y="1445" on="0"/>
        <pt x="1673" y="1577" on="0"/>
        <pt x="1976" y="1577" on="0"/>
        <pt x="2140" y="1450" on="0"/>
        <pt x="2140" y="1330" on="1"/>
        <pt x="2140" y="1207" on="0"/>
        <pt x="2024" y="936" on="1"/>
        <pt x="1976" y="824" on="0"/>
        <pt x="1928" y="714" on="1"/>
        <pt x="1812" y="446" on="0"/>
        <pt x="1812" y="365" on="1"/>
        <pt x="1812" y="221" on="0"/>
        <pt x="1955" y="196" on="1"/>
        <pt x="2032" y="183" on="0"/>
        <pt x="2056" y="152" on="0"/>
        <pt x="2056" y="137" on="1"/>
        <pt x="2056" y="66" on="0"/>
        <pt x="1747" y="-40" on="0"/>
        <pt x="1556" y="-40" on="1"/>
        <pt x="1180" y="-40" on="0"/>
        <pt x="1180" y="183" on="1"/>
        <pt x="1180" y="339" on="0"/>
        <pt x="1288" y="594" on="1"/>
        <pt x="1333" y="701" on="0"/>
        <pt x="1378" y="803" on="1"/>
        <pt x="1486" y="1048" on="0"/>
        <pt x="1486" y="1243" on="0"/>
        <pt x="1335" y="1243" on="1"/>
        <pt x="1247" y="1243" on="0"/>
        <pt x="1137" y="1181" on="1"/>
        <pt x="1088" y="988" on="0"/>
        <pt x="926" y="607" on="1"/>
        <pt x="778" y="261" on="0"/>
        <pt x="778" y="121" on="1"/>
        <pt x="778" y="121" on="0"/>
        <pt x="781" y="55" on="1"/>
        <pt x="781" y="24" on="0"/>
        <pt x="713" y="-12" on="0"/>
        <pt x="676" y="-12" on="1"/>
        <pt x="275" y="-18" on="1"/>
        <pt x="164" y="-18" on="0"/>
        <pt x="140" y="20" on="1"/>
        <pt x="129" y="39" on="0"/>
        <pt x="129" y="118" on="0"/>
        <pt x="163" y="265" on="0"/>
        <pt x="346" y="696" on="0"/>
        <pt x="497" y="1068" on="0"/>
        <pt x="497" y="1187" on="0"/>
        <pt x="471" y="1227" on="0"/>
      </contour>
      <contour>
        <pt x="1015" y="-404" on="1"/>
        <pt x="973" y="-415" on="0"/>
        <pt x="889" y="-415" on="1"/>
        <pt x="622" y="-415" on="0"/>
        <pt x="622" y="-291" on="1"/>
        <pt x="622" y="-214" on="0"/>
        <pt x="858" y="-109" on="0"/>
        <pt x="1039" y="-109" on="1"/>
        <pt x="1136" y="-109" on="0"/>
        <pt x="1198" y="-138" on="1"/>
        <pt x="1312" y="-190" on="0"/>
        <pt x="1312" y="-297" on="1"/>
        <pt x="1312" y="-373" on="0"/>
        <pt x="1220" y="-492" on="0"/>
        <pt x="1140" y="-528" on="1"/>
        <pt x="978" y="-600" on="0"/>
        <pt x="751" y="-600" on="1"/>
        <pt x="666" y="-600" on="0"/>
        <pt x="666" y="-518" on="0"/>
        <pt x="739" y="-498" on="1"/>
        <pt x="763" y="-491" on="0"/>
        <pt x="864" y="-467" on="0"/>
        <pt x="888" y="-460" on="1"/>
        <pt x="954" y="-440" on="0"/>
      </contour>
    </TTGlyph>
</ttFont>
